%TF.GenerationSoftware,KiCad,Pcbnew,7.0.7-7.0.7~ubuntu22.04.1*%
%TF.CreationDate,2023-09-19T23:06:59+02:00*%
%TF.ProjectId,som_fpga,736f6d5f-6670-4676-912e-6b696361645f,rev?*%
%TF.SameCoordinates,Original*%
%TF.FileFunction,Paste,Bot*%
%TF.FilePolarity,Positive*%
%FSLAX46Y46*%
G04 Gerber Fmt 4.6, Leading zero omitted, Abs format (unit mm)*
G04 Created by KiCad (PCBNEW 7.0.7-7.0.7~ubuntu22.04.1) date 2023-09-19 23:06:59*
%MOMM*%
%LPD*%
G01*
G04 APERTURE LIST*
G04 Aperture macros list*
%AMRoundRect*
0 Rectangle with rounded corners*
0 $1 Rounding radius*
0 $2 $3 $4 $5 $6 $7 $8 $9 X,Y pos of 4 corners*
0 Add a 4 corners polygon primitive as box body*
4,1,4,$2,$3,$4,$5,$6,$7,$8,$9,$2,$3,0*
0 Add four circle primitives for the rounded corners*
1,1,$1+$1,$2,$3*
1,1,$1+$1,$4,$5*
1,1,$1+$1,$6,$7*
1,1,$1+$1,$8,$9*
0 Add four rect primitives between the rounded corners*
20,1,$1+$1,$2,$3,$4,$5,0*
20,1,$1+$1,$4,$5,$6,$7,0*
20,1,$1+$1,$6,$7,$8,$9,0*
20,1,$1+$1,$8,$9,$2,$3,0*%
G04 Aperture macros list end*
%ADD10RoundRect,0.250000X-0.475000X0.250000X-0.475000X-0.250000X0.475000X-0.250000X0.475000X0.250000X0*%
%ADD11RoundRect,0.135000X0.185000X-0.135000X0.185000X0.135000X-0.185000X0.135000X-0.185000X-0.135000X0*%
%ADD12RoundRect,0.250000X0.475000X-0.250000X0.475000X0.250000X-0.475000X0.250000X-0.475000X-0.250000X0*%
%ADD13RoundRect,0.140000X0.170000X-0.140000X0.170000X0.140000X-0.170000X0.140000X-0.170000X-0.140000X0*%
%ADD14RoundRect,0.140000X-0.170000X0.140000X-0.170000X-0.140000X0.170000X-0.140000X0.170000X0.140000X0*%
%ADD15R,0.740000X2.920000*%
%ADD16RoundRect,0.135000X-0.185000X0.135000X-0.185000X-0.135000X0.185000X-0.135000X0.185000X0.135000X0*%
%ADD17R,2.920000X0.740000*%
%ADD18RoundRect,0.140000X-0.140000X-0.170000X0.140000X-0.170000X0.140000X0.170000X-0.140000X0.170000X0*%
%ADD19RoundRect,0.250000X-0.650000X0.325000X-0.650000X-0.325000X0.650000X-0.325000X0.650000X0.325000X0*%
%ADD20RoundRect,0.140000X0.140000X0.170000X-0.140000X0.170000X-0.140000X-0.170000X0.140000X-0.170000X0*%
G04 APERTURE END LIST*
D10*
%TO.C,C11*%
X153650000Y-69850000D03*
X153650000Y-71750000D03*
%TD*%
D11*
%TO.C,R9*%
X135930000Y-83410000D03*
X135930000Y-82390000D03*
%TD*%
D12*
%TO.C,C38*%
X136480000Y-77580000D03*
X136480000Y-75680000D03*
%TD*%
D13*
%TO.C,C40*%
X139720000Y-80750000D03*
X139720000Y-79790000D03*
%TD*%
%TO.C,C42*%
X143980000Y-81730000D03*
X143980000Y-80770000D03*
%TD*%
D14*
%TO.C,C30*%
X145060000Y-82790000D03*
X145060000Y-83750000D03*
%TD*%
%TO.C,C31*%
X142820000Y-82820000D03*
X142820000Y-83780000D03*
%TD*%
D12*
%TO.C,C8*%
X131690000Y-84130000D03*
X131690000Y-82230000D03*
%TD*%
D15*
%TO.C,J3*%
X128362500Y-62475000D03*
X128362500Y-65905000D03*
X129632500Y-62475000D03*
X129632500Y-65905000D03*
X130902500Y-62475000D03*
X130902500Y-65905000D03*
X132172500Y-62475000D03*
X132172500Y-65905000D03*
X133442500Y-62475000D03*
X133442500Y-65905000D03*
X134712500Y-62475000D03*
X134712500Y-65905000D03*
X135982500Y-62475000D03*
X135982500Y-65905000D03*
X137252500Y-62475000D03*
X137252500Y-65905000D03*
X138522500Y-62475000D03*
X138522500Y-65905000D03*
X139792500Y-62475000D03*
X139792500Y-65905000D03*
X141062500Y-62475000D03*
X141062500Y-65905000D03*
X142332500Y-62475000D03*
X142332500Y-65905000D03*
X143602500Y-62475000D03*
X143602500Y-65905000D03*
X144872500Y-62475000D03*
X144872500Y-65905000D03*
X146142500Y-62475000D03*
X146142500Y-65905000D03*
X147412500Y-62475000D03*
X147412500Y-65905000D03*
X148682500Y-62475000D03*
X148682500Y-65905000D03*
X149952500Y-62475000D03*
X149952500Y-65905000D03*
X151222500Y-62475000D03*
X151222500Y-65905000D03*
X152492500Y-62475000D03*
X152492500Y-65905000D03*
%TD*%
D16*
%TO.C,R15*%
X136680000Y-97690000D03*
X136680000Y-98710000D03*
%TD*%
D14*
%TO.C,C43*%
X144890000Y-78690000D03*
X144890000Y-79650000D03*
%TD*%
D12*
%TO.C,C12*%
X135920000Y-88110000D03*
X135920000Y-86210000D03*
%TD*%
D17*
%TO.C,J2*%
X164325000Y-96867500D03*
X167755000Y-96867500D03*
X164325000Y-95597500D03*
X167755000Y-95597500D03*
X164325000Y-94327500D03*
X167755000Y-94327500D03*
X164325000Y-93057500D03*
X167755000Y-93057500D03*
X164325000Y-91787500D03*
X167755000Y-91787500D03*
X164325000Y-90517500D03*
X167755000Y-90517500D03*
X164325000Y-89247500D03*
X167755000Y-89247500D03*
X164325000Y-87977500D03*
X167755000Y-87977500D03*
X164325000Y-86707500D03*
X167755000Y-86707500D03*
X164325000Y-85437500D03*
X167755000Y-85437500D03*
X164325000Y-84167500D03*
X167755000Y-84167500D03*
X164325000Y-82897500D03*
X167755000Y-82897500D03*
X164325000Y-81627500D03*
X167755000Y-81627500D03*
X164325000Y-80357500D03*
X167755000Y-80357500D03*
X164325000Y-79087500D03*
X167755000Y-79087500D03*
X164325000Y-77817500D03*
X167755000Y-77817500D03*
X164325000Y-76547500D03*
X167755000Y-76547500D03*
X164325000Y-75277500D03*
X167755000Y-75277500D03*
X164325000Y-74007500D03*
X167755000Y-74007500D03*
X164325000Y-72737500D03*
X167755000Y-72737500D03*
%TD*%
D10*
%TO.C,C25*%
X129500000Y-86750000D03*
X129500000Y-88650000D03*
%TD*%
%TO.C,C7*%
X137990000Y-86230000D03*
X137990000Y-88130000D03*
%TD*%
D12*
%TO.C,C27*%
X127360000Y-86040000D03*
X127360000Y-84140000D03*
%TD*%
D18*
%TO.C,C22*%
X151580000Y-85070000D03*
X152540000Y-85070000D03*
%TD*%
D15*
%TO.C,J4*%
X152492500Y-107705000D03*
X152492500Y-104275000D03*
X151222500Y-107705000D03*
X151222500Y-104275000D03*
X149952500Y-107705000D03*
X149952500Y-104275000D03*
X148682500Y-107705000D03*
X148682500Y-104275000D03*
X147412500Y-107705000D03*
X147412500Y-104275000D03*
X146142500Y-107705000D03*
X146142500Y-104275000D03*
X144872500Y-107705000D03*
X144872500Y-104275000D03*
X143602500Y-107705000D03*
X143602500Y-104275000D03*
X142332500Y-107705000D03*
X142332500Y-104275000D03*
X141062500Y-107705000D03*
X141062500Y-104275000D03*
X139792500Y-107705000D03*
X139792500Y-104275000D03*
X138522500Y-107705000D03*
X138522500Y-104275000D03*
X137252500Y-107705000D03*
X137252500Y-104275000D03*
X135982500Y-107705000D03*
X135982500Y-104275000D03*
X134712500Y-107705000D03*
X134712500Y-104275000D03*
X133442500Y-107705000D03*
X133442500Y-104275000D03*
X132172500Y-107705000D03*
X132172500Y-104275000D03*
X130902500Y-107705000D03*
X130902500Y-104275000D03*
X129632500Y-107705000D03*
X129632500Y-104275000D03*
X128362500Y-107705000D03*
X128362500Y-104275000D03*
%TD*%
D12*
%TO.C,C36*%
X140720000Y-77600000D03*
X140720000Y-75700000D03*
%TD*%
D16*
%TO.C,R16*%
X139190000Y-97700000D03*
X139190000Y-98720000D03*
%TD*%
D12*
%TO.C,C35*%
X142770000Y-77620000D03*
X142770000Y-75720000D03*
%TD*%
%TO.C,C28*%
X145350000Y-73790000D03*
X145350000Y-71890000D03*
%TD*%
D14*
%TO.C,C29*%
X147950000Y-82820000D03*
X147950000Y-83780000D03*
%TD*%
D16*
%TO.C,R10*%
X141050000Y-82800000D03*
X141050000Y-83820000D03*
%TD*%
D11*
%TO.C,R17*%
X137940000Y-98710000D03*
X137940000Y-97690000D03*
%TD*%
D16*
%TO.C,R7*%
X136700000Y-78890000D03*
X136700000Y-79910000D03*
%TD*%
D13*
%TO.C,C20*%
X131500000Y-87330000D03*
X131500000Y-86370000D03*
%TD*%
D12*
%TO.C,C9*%
X140040000Y-88150000D03*
X140040000Y-86250000D03*
%TD*%
D14*
%TO.C,C21*%
X140350000Y-97700000D03*
X140350000Y-98660000D03*
%TD*%
D19*
%TO.C,C34*%
X122880000Y-81195000D03*
X122880000Y-84145000D03*
%TD*%
D13*
%TO.C,C41*%
X141960000Y-81770000D03*
X141960000Y-80810000D03*
%TD*%
D12*
%TO.C,C37*%
X138630000Y-77590000D03*
X138630000Y-75690000D03*
%TD*%
D14*
%TO.C,C32*%
X139010000Y-82770000D03*
X139010000Y-83730000D03*
%TD*%
D12*
%TO.C,C26*%
X146990000Y-80960000D03*
X146990000Y-79060000D03*
%TD*%
%TO.C,C13*%
X151380000Y-73400000D03*
X151380000Y-71500000D03*
%TD*%
D20*
%TO.C,C16*%
X133620000Y-90710000D03*
X132660000Y-90710000D03*
%TD*%
D13*
%TO.C,C14*%
X149980000Y-88620000D03*
X149980000Y-87660000D03*
%TD*%
D10*
%TO.C,C39*%
X134380000Y-75660000D03*
X134380000Y-77560000D03*
%TD*%
D13*
%TO.C,C19*%
X149830000Y-72510000D03*
X149830000Y-71550000D03*
%TD*%
M02*
