%TF.GenerationSoftware,KiCad,Pcbnew,7.0.7-7.0.7~ubuntu22.04.1*%
%TF.CreationDate,2023-09-19T23:06:59+02:00*%
%TF.ProjectId,som_fpga,736f6d5f-6670-4676-912e-6b696361645f,rev?*%
%TF.SameCoordinates,Original*%
%TF.FileFunction,Paste,Top*%
%TF.FilePolarity,Positive*%
%FSLAX46Y46*%
G04 Gerber Fmt 4.6, Leading zero omitted, Abs format (unit mm)*
G04 Created by KiCad (PCBNEW 7.0.7-7.0.7~ubuntu22.04.1) date 2023-09-19 23:06:59*
%MOMM*%
%LPD*%
G01*
G04 APERTURE LIST*
G04 Aperture macros list*
%AMRoundRect*
0 Rectangle with rounded corners*
0 $1 Rounding radius*
0 $2 $3 $4 $5 $6 $7 $8 $9 X,Y pos of 4 corners*
0 Add a 4 corners polygon primitive as box body*
4,1,4,$2,$3,$4,$5,$6,$7,$8,$9,$2,$3,0*
0 Add four circle primitives for the rounded corners*
1,1,$1+$1,$2,$3*
1,1,$1+$1,$4,$5*
1,1,$1+$1,$6,$7*
1,1,$1+$1,$8,$9*
0 Add four rect primitives between the rounded corners*
20,1,$1+$1,$2,$3,$4,$5,0*
20,1,$1+$1,$4,$5,$6,$7,0*
20,1,$1+$1,$6,$7,$8,$9,0*
20,1,$1+$1,$8,$9,$2,$3,0*%
G04 Aperture macros list end*
%ADD10RoundRect,0.140000X-0.170000X0.140000X-0.170000X-0.140000X0.170000X-0.140000X0.170000X0.140000X0*%
%ADD11RoundRect,0.135000X-0.135000X-0.185000X0.135000X-0.185000X0.135000X0.185000X-0.135000X0.185000X0*%
%ADD12RoundRect,0.218750X-0.218750X-0.256250X0.218750X-0.256250X0.218750X0.256250X-0.218750X0.256250X0*%
%ADD13C,0.400000*%
%ADD14R,1.200000X1.400000*%
%ADD15RoundRect,0.250000X-0.650000X0.325000X-0.650000X-0.325000X0.650000X-0.325000X0.650000X0.325000X0*%
%ADD16RoundRect,0.150000X-0.512500X-0.150000X0.512500X-0.150000X0.512500X0.150000X-0.512500X0.150000X0*%
%ADD17R,2.700000X0.800000*%
%ADD18RoundRect,0.250000X0.250000X0.475000X-0.250000X0.475000X-0.250000X-0.475000X0.250000X-0.475000X0*%
%ADD19RoundRect,0.218750X0.218750X0.256250X-0.218750X0.256250X-0.218750X-0.256250X0.218750X-0.256250X0*%
%ADD20RoundRect,0.140000X0.140000X0.170000X-0.140000X0.170000X-0.140000X-0.170000X0.140000X-0.170000X0*%
%ADD21RoundRect,0.135000X0.185000X-0.135000X0.185000X0.135000X-0.185000X0.135000X-0.185000X-0.135000X0*%
%ADD22RoundRect,0.135000X-0.185000X0.135000X-0.185000X-0.135000X0.185000X-0.135000X0.185000X0.135000X0*%
%ADD23RoundRect,0.135000X0.135000X0.185000X-0.135000X0.185000X-0.135000X-0.185000X0.135000X-0.185000X0*%
%ADD24RoundRect,0.140000X0.170000X-0.140000X0.170000X0.140000X-0.170000X0.140000X-0.170000X-0.140000X0*%
%ADD25RoundRect,0.250000X-0.250000X-0.475000X0.250000X-0.475000X0.250000X0.475000X-0.250000X0.475000X0*%
%ADD26RoundRect,0.250000X0.555000X-0.435000X0.555000X0.435000X-0.555000X0.435000X-0.555000X-0.435000X0*%
%ADD27RoundRect,0.125000X0.125000X-0.262500X0.125000X0.262500X-0.125000X0.262500X-0.125000X-0.262500X0*%
%ADD28RoundRect,0.250000X-0.475000X0.250000X-0.475000X-0.250000X0.475000X-0.250000X0.475000X0.250000X0*%
G04 APERTURE END LIST*
D10*
%TO.C,C45*%
X120919000Y-89214000D03*
X120919000Y-90174000D03*
%TD*%
D11*
%TO.C,R14*%
X160360000Y-102200000D03*
X161380000Y-102200000D03*
%TD*%
D12*
%TO.C,D5*%
X159982500Y-94730000D03*
X161557500Y-94730000D03*
%TD*%
D13*
%TO.C,U1*%
X152430000Y-72100000D03*
X152430000Y-73100000D03*
X152430000Y-74100000D03*
X152430000Y-75100000D03*
X152430000Y-76100000D03*
X152430000Y-77100000D03*
X152430000Y-78100000D03*
X152430000Y-79100000D03*
X152430000Y-80100000D03*
X152430000Y-81100000D03*
X152430000Y-82100000D03*
X152430000Y-83100000D03*
X152430000Y-84100000D03*
X152430000Y-85100000D03*
X152430000Y-86100000D03*
X152430000Y-87100000D03*
X152430000Y-88100000D03*
X152430000Y-89100000D03*
X152430000Y-90100000D03*
X152430000Y-91100000D03*
X152430000Y-92100000D03*
X152430000Y-93100000D03*
X132430000Y-72100000D03*
X132430000Y-73100000D03*
X132430000Y-74100000D03*
X132430000Y-75100000D03*
X132430000Y-76100000D03*
X132430000Y-77100000D03*
X132430000Y-78100000D03*
X132430000Y-79100000D03*
X132430000Y-80100000D03*
X132430000Y-81100000D03*
X132430000Y-82100000D03*
X132430000Y-83100000D03*
X132430000Y-84100000D03*
X132430000Y-85100000D03*
X132430000Y-86100000D03*
X132430000Y-87100000D03*
X132430000Y-88100000D03*
X132430000Y-89100000D03*
X132430000Y-90100000D03*
X132430000Y-91100000D03*
X132430000Y-92100000D03*
X132430000Y-93100000D03*
X131430000Y-72100000D03*
X131430000Y-73100000D03*
X131430000Y-74100000D03*
X131430000Y-75100000D03*
X131430000Y-76100000D03*
X131430000Y-77100000D03*
X131430000Y-78100000D03*
X131430000Y-79100000D03*
X131430000Y-80100000D03*
X131430000Y-81100000D03*
X131430000Y-82100000D03*
X131430000Y-83100000D03*
X131430000Y-84100000D03*
X131430000Y-85100000D03*
X131430000Y-86100000D03*
X131430000Y-87100000D03*
X131430000Y-88100000D03*
X131430000Y-89100000D03*
X131430000Y-90100000D03*
X131430000Y-91100000D03*
X131430000Y-92100000D03*
X131430000Y-93100000D03*
X151430000Y-72100000D03*
X151430000Y-73100000D03*
X151430000Y-74100000D03*
X151430000Y-75100000D03*
X151430000Y-76100000D03*
X151430000Y-77100000D03*
X151430000Y-78100000D03*
X151430000Y-79100000D03*
X151430000Y-80100000D03*
X151430000Y-81100000D03*
X151430000Y-82100000D03*
X151430000Y-83100000D03*
X151430000Y-84100000D03*
X151430000Y-85100000D03*
X151430000Y-86100000D03*
X151430000Y-87100000D03*
X151430000Y-88100000D03*
X151430000Y-89100000D03*
X151430000Y-90100000D03*
X151430000Y-91100000D03*
X151430000Y-92100000D03*
X151430000Y-93100000D03*
X150430000Y-72100000D03*
X150430000Y-73100000D03*
X150430000Y-74100000D03*
X150430000Y-75100000D03*
X150430000Y-76100000D03*
X150430000Y-77100000D03*
X150430000Y-78100000D03*
X150430000Y-79100000D03*
X150430000Y-80100000D03*
X150430000Y-81100000D03*
X150430000Y-82100000D03*
X150430000Y-83100000D03*
X150430000Y-84100000D03*
X150430000Y-85100000D03*
X150430000Y-86100000D03*
X150430000Y-87100000D03*
X150430000Y-88100000D03*
X150430000Y-89100000D03*
X150430000Y-90100000D03*
X150430000Y-91100000D03*
X150430000Y-92100000D03*
X150430000Y-93100000D03*
X149430000Y-72100000D03*
X149430000Y-73100000D03*
X149430000Y-74100000D03*
X149430000Y-75100000D03*
X149430000Y-76100000D03*
X149430000Y-77100000D03*
X149430000Y-78100000D03*
X149430000Y-79100000D03*
X149430000Y-80100000D03*
X149430000Y-81100000D03*
X149430000Y-82100000D03*
X149430000Y-83100000D03*
X149430000Y-84100000D03*
X149430000Y-85100000D03*
X149430000Y-86100000D03*
X149430000Y-87100000D03*
X149430000Y-88100000D03*
X149430000Y-89100000D03*
X149430000Y-90100000D03*
X149430000Y-91100000D03*
X149430000Y-92100000D03*
X149430000Y-93100000D03*
X148430000Y-72100000D03*
X148430000Y-73100000D03*
X148430000Y-74100000D03*
X148430000Y-75100000D03*
X148430000Y-76100000D03*
X148430000Y-77100000D03*
X148430000Y-78100000D03*
X148430000Y-79100000D03*
X148430000Y-80100000D03*
X148430000Y-81100000D03*
X148430000Y-82100000D03*
X148430000Y-83100000D03*
X148430000Y-84100000D03*
X148430000Y-85100000D03*
X148430000Y-86100000D03*
X148430000Y-87100000D03*
X148430000Y-88100000D03*
X148430000Y-89100000D03*
X148430000Y-90100000D03*
X148430000Y-91100000D03*
X148430000Y-92100000D03*
X148430000Y-93100000D03*
X147430000Y-72100000D03*
X147430000Y-73100000D03*
X147430000Y-74100000D03*
X147430000Y-75100000D03*
X147430000Y-76100000D03*
X147430000Y-77100000D03*
X147430000Y-78100000D03*
X147430000Y-79100000D03*
X147430000Y-80100000D03*
X147430000Y-81100000D03*
X147430000Y-82100000D03*
X147430000Y-83100000D03*
X147430000Y-84100000D03*
X147430000Y-85100000D03*
X147430000Y-86100000D03*
X147430000Y-87100000D03*
X147430000Y-88100000D03*
X147430000Y-89100000D03*
X147430000Y-90100000D03*
X147430000Y-91100000D03*
X147430000Y-92100000D03*
X147430000Y-93100000D03*
X146430000Y-72100000D03*
X146430000Y-73100000D03*
X146430000Y-74100000D03*
X146430000Y-75100000D03*
X146430000Y-76100000D03*
X146430000Y-77100000D03*
X146430000Y-78100000D03*
X146430000Y-79100000D03*
X146430000Y-80100000D03*
X146430000Y-81100000D03*
X146430000Y-82100000D03*
X146430000Y-83100000D03*
X146430000Y-84100000D03*
X146430000Y-85100000D03*
X146430000Y-86100000D03*
X146430000Y-87100000D03*
X146430000Y-88100000D03*
X146430000Y-89100000D03*
X146430000Y-90100000D03*
X146430000Y-91100000D03*
X146430000Y-92100000D03*
X146430000Y-93100000D03*
X145430000Y-72100000D03*
X145430000Y-73100000D03*
X145430000Y-74100000D03*
X145430000Y-75100000D03*
X145430000Y-76100000D03*
X145430000Y-77100000D03*
X145430000Y-78100000D03*
X145430000Y-79100000D03*
X145430000Y-80100000D03*
X145430000Y-81100000D03*
X145430000Y-82100000D03*
X145430000Y-83100000D03*
X145430000Y-84100000D03*
X145430000Y-85100000D03*
X145430000Y-86100000D03*
X145430000Y-87100000D03*
X145430000Y-88100000D03*
X145430000Y-89100000D03*
X145430000Y-90100000D03*
X145430000Y-91100000D03*
X145430000Y-92100000D03*
X145430000Y-93100000D03*
X144430000Y-72100000D03*
X144430000Y-73100000D03*
X144430000Y-74100000D03*
X144430000Y-75100000D03*
X144430000Y-76100000D03*
X144430000Y-77100000D03*
X144430000Y-78100000D03*
X144430000Y-79100000D03*
X144430000Y-80100000D03*
X144430000Y-81100000D03*
X144430000Y-82100000D03*
X144430000Y-83100000D03*
X144430000Y-84100000D03*
X144430000Y-85100000D03*
X144430000Y-86100000D03*
X144430000Y-87100000D03*
X144430000Y-88100000D03*
X144430000Y-89100000D03*
X144430000Y-90100000D03*
X144430000Y-91100000D03*
X144430000Y-92100000D03*
X144430000Y-93100000D03*
X143430000Y-72100000D03*
X143430000Y-73100000D03*
X143430000Y-74100000D03*
X143430000Y-75100000D03*
X143430000Y-76100000D03*
X143430000Y-77100000D03*
X143430000Y-78100000D03*
X143430000Y-79100000D03*
X143430000Y-80100000D03*
X143430000Y-81100000D03*
X143430000Y-82100000D03*
X143430000Y-83100000D03*
X143430000Y-84100000D03*
X143430000Y-85100000D03*
X143430000Y-86100000D03*
X143430000Y-87100000D03*
X143430000Y-88100000D03*
X143430000Y-89100000D03*
X143430000Y-90100000D03*
X143430000Y-91100000D03*
X143430000Y-92100000D03*
X143430000Y-93100000D03*
X142430000Y-72100000D03*
X142430000Y-73100000D03*
X142430000Y-74100000D03*
X142430000Y-75100000D03*
X142430000Y-76100000D03*
X142430000Y-77100000D03*
X142430000Y-78100000D03*
X142430000Y-79100000D03*
X142430000Y-80100000D03*
X142430000Y-81100000D03*
X142430000Y-82100000D03*
X142430000Y-83100000D03*
X142430000Y-84100000D03*
X142430000Y-85100000D03*
X142430000Y-86100000D03*
X142430000Y-87100000D03*
X142430000Y-88100000D03*
X142430000Y-89100000D03*
X142430000Y-90100000D03*
X142430000Y-91100000D03*
X142430000Y-92100000D03*
X142430000Y-93100000D03*
X141430000Y-72100000D03*
X141430000Y-73100000D03*
X141430000Y-74100000D03*
X141430000Y-75100000D03*
X141430000Y-76100000D03*
X141430000Y-77100000D03*
X141430000Y-78100000D03*
X141430000Y-79100000D03*
X141430000Y-80100000D03*
X141430000Y-81100000D03*
X141430000Y-82100000D03*
X141430000Y-83100000D03*
X141430000Y-84100000D03*
X141430000Y-85100000D03*
X141430000Y-86100000D03*
X141430000Y-87100000D03*
X141430000Y-88100000D03*
X141430000Y-89100000D03*
X141430000Y-90100000D03*
X141430000Y-91100000D03*
X141430000Y-92100000D03*
X141430000Y-93100000D03*
X140430000Y-72100000D03*
X140430000Y-73100000D03*
X140430000Y-74100000D03*
X140430000Y-75100000D03*
X140430000Y-76100000D03*
X140430000Y-77100000D03*
X140430000Y-78100000D03*
X140430000Y-79100000D03*
X140430000Y-80100000D03*
X140430000Y-81100000D03*
X140430000Y-82100000D03*
X140430000Y-83100000D03*
X140430000Y-84100000D03*
X140430000Y-85100000D03*
X140430000Y-86100000D03*
X140430000Y-87100000D03*
X140430000Y-88100000D03*
X140430000Y-89100000D03*
X140430000Y-90100000D03*
X140430000Y-91100000D03*
X140430000Y-92100000D03*
X140430000Y-93100000D03*
X139430000Y-72100000D03*
X139430000Y-73100000D03*
X139430000Y-74100000D03*
X139430000Y-75100000D03*
X139430000Y-76100000D03*
X139430000Y-77100000D03*
X139430000Y-78100000D03*
X139430000Y-79100000D03*
X139430000Y-80100000D03*
X139430000Y-81100000D03*
X139430000Y-82100000D03*
X139430000Y-83100000D03*
X139430000Y-84100000D03*
X139430000Y-85100000D03*
X139430000Y-86100000D03*
X139430000Y-87100000D03*
X139430000Y-88100000D03*
X139430000Y-89100000D03*
X139430000Y-90100000D03*
X139430000Y-91100000D03*
X139430000Y-92100000D03*
X139430000Y-93100000D03*
X138430000Y-72100000D03*
X138430000Y-73100000D03*
X138430000Y-74100000D03*
X138430000Y-75100000D03*
X138430000Y-76100000D03*
X138430000Y-77100000D03*
X138430000Y-78100000D03*
X138430000Y-79100000D03*
X138430000Y-80100000D03*
X138430000Y-81100000D03*
X138430000Y-82100000D03*
X138430000Y-83100000D03*
X138430000Y-84100000D03*
X138430000Y-85100000D03*
X138430000Y-86100000D03*
X138430000Y-87100000D03*
X138430000Y-88100000D03*
X138430000Y-89100000D03*
X138430000Y-90100000D03*
X138430000Y-91100000D03*
X138430000Y-92100000D03*
X138430000Y-93100000D03*
X137430000Y-72100000D03*
X137430000Y-73100000D03*
X137430000Y-74100000D03*
X137430000Y-75100000D03*
X137430000Y-76100000D03*
X137430000Y-77100000D03*
X137430000Y-78100000D03*
X137430000Y-79100000D03*
X137430000Y-80100000D03*
X137430000Y-81100000D03*
X137430000Y-82100000D03*
X137430000Y-83100000D03*
X137430000Y-84100000D03*
X137430000Y-85100000D03*
X137430000Y-86100000D03*
X137430000Y-87100000D03*
X137430000Y-88100000D03*
X137430000Y-89100000D03*
X137430000Y-90100000D03*
X137430000Y-91100000D03*
X137430000Y-92100000D03*
X137430000Y-93100000D03*
X136430000Y-72100000D03*
X136430000Y-73100000D03*
X136430000Y-74100000D03*
X136430000Y-75100000D03*
X136430000Y-76100000D03*
X136430000Y-77100000D03*
X136430000Y-78100000D03*
X136430000Y-79100000D03*
X136430000Y-80100000D03*
X136430000Y-81100000D03*
X136430000Y-82100000D03*
X136430000Y-83100000D03*
X136430000Y-84100000D03*
X136430000Y-85100000D03*
X136430000Y-86100000D03*
X136430000Y-87100000D03*
X136430000Y-88100000D03*
X136430000Y-89100000D03*
X136430000Y-90100000D03*
X136430000Y-91100000D03*
X136430000Y-92100000D03*
X136430000Y-93100000D03*
X135430000Y-72100000D03*
X135430000Y-73100000D03*
X135430000Y-74100000D03*
X135430000Y-75100000D03*
X135430000Y-76100000D03*
X135430000Y-77100000D03*
X135430000Y-78100000D03*
X135430000Y-79100000D03*
X135430000Y-80100000D03*
X135430000Y-81100000D03*
X135430000Y-82100000D03*
X135430000Y-83100000D03*
X135430000Y-84100000D03*
X135430000Y-85100000D03*
X135430000Y-86100000D03*
X135430000Y-87100000D03*
X135430000Y-88100000D03*
X135430000Y-89100000D03*
X135430000Y-90100000D03*
X135430000Y-91100000D03*
X135430000Y-92100000D03*
X135430000Y-93100000D03*
X134430000Y-72100000D03*
X134430000Y-73100000D03*
X134430000Y-74100000D03*
X134430000Y-75100000D03*
X134430000Y-76100000D03*
X134430000Y-77100000D03*
X134430000Y-78100000D03*
X134430000Y-79100000D03*
X134430000Y-80100000D03*
X134430000Y-81100000D03*
X134430000Y-82100000D03*
X134430000Y-83100000D03*
X134430000Y-84100000D03*
X134430000Y-85100000D03*
X134430000Y-86100000D03*
X134430000Y-87100000D03*
X134430000Y-88100000D03*
X134430000Y-89100000D03*
X134430000Y-90100000D03*
X134430000Y-91100000D03*
X134430000Y-92100000D03*
X134430000Y-93100000D03*
X133430000Y-72100000D03*
X133430000Y-73100000D03*
X133430000Y-74100000D03*
X133430000Y-75100000D03*
X133430000Y-76100000D03*
X133430000Y-77100000D03*
X133430000Y-78100000D03*
X133430000Y-79100000D03*
X133430000Y-80100000D03*
X133430000Y-81100000D03*
X133430000Y-82100000D03*
X133430000Y-83100000D03*
X133430000Y-84100000D03*
X133430000Y-85100000D03*
X133430000Y-86100000D03*
X133430000Y-87100000D03*
X133430000Y-88100000D03*
X133430000Y-89100000D03*
X133430000Y-90100000D03*
X133430000Y-91100000D03*
X133430000Y-92100000D03*
X133430000Y-93100000D03*
%TD*%
D14*
%TO.C,X1*%
X158250000Y-90300000D03*
X158250000Y-88100000D03*
X156550000Y-88100000D03*
X156550000Y-90300000D03*
%TD*%
D15*
%TO.C,C33*%
X122881500Y-79944000D03*
X122881500Y-82894000D03*
%TD*%
D16*
%TO.C,U3*%
X116081500Y-88844000D03*
X116081500Y-89794000D03*
X116081500Y-90744000D03*
X118356500Y-90744000D03*
X118356500Y-88844000D03*
%TD*%
D17*
%TO.C,L3*%
X113094000Y-83019000D03*
X113094000Y-80819000D03*
%TD*%
D11*
%TO.C,R19*%
X160220000Y-96210000D03*
X161240000Y-96210000D03*
%TD*%
D18*
%TO.C,C3*%
X118169000Y-92694000D03*
X116269000Y-92694000D03*
%TD*%
D19*
%TO.C,D1*%
X157437500Y-79170000D03*
X155862500Y-79170000D03*
%TD*%
D12*
%TO.C,D4*%
X159992500Y-100750000D03*
X161567500Y-100750000D03*
%TD*%
D20*
%TO.C,C18*%
X157070000Y-82950000D03*
X156110000Y-82950000D03*
%TD*%
D11*
%TO.C,R11*%
X156080000Y-81800000D03*
X157100000Y-81800000D03*
%TD*%
D17*
%TO.C,L2*%
X113219000Y-90894000D03*
X113219000Y-88694000D03*
%TD*%
D21*
%TO.C,R2*%
X119839000Y-73984000D03*
X119839000Y-72964000D03*
%TD*%
D22*
%TO.C,R4*%
X119919000Y-87184000D03*
X119919000Y-88204000D03*
%TD*%
D23*
%TO.C,R13*%
X113497500Y-99200000D03*
X112477500Y-99200000D03*
%TD*%
D15*
%TO.C,C24*%
X123006500Y-87469000D03*
X123006500Y-90419000D03*
%TD*%
D22*
%TO.C,R6*%
X119794000Y-81909000D03*
X119794000Y-82929000D03*
%TD*%
%TO.C,R3*%
X119919000Y-89184000D03*
X119919000Y-90204000D03*
%TD*%
D24*
%TO.C,C15*%
X159900000Y-89000000D03*
X159900000Y-88040000D03*
%TD*%
D16*
%TO.C,U2*%
X115964000Y-73034000D03*
X115964000Y-73984000D03*
X115964000Y-74934000D03*
X118239000Y-74934000D03*
X118239000Y-73034000D03*
%TD*%
D22*
%TO.C,R5*%
X119794000Y-79909000D03*
X119794000Y-80929000D03*
%TD*%
D12*
%TO.C,D2*%
X112212500Y-97800000D03*
X113787500Y-97800000D03*
%TD*%
D17*
%TO.C,L1*%
X113101500Y-75084000D03*
X113101500Y-72884000D03*
%TD*%
D25*
%TO.C,C6*%
X116144000Y-79069000D03*
X118044000Y-79069000D03*
%TD*%
D22*
%TO.C,R1*%
X119839000Y-71024000D03*
X119839000Y-72044000D03*
%TD*%
D11*
%TO.C,R12*%
X160280000Y-99340000D03*
X161300000Y-99340000D03*
%TD*%
D15*
%TO.C,C23*%
X123001500Y-71209000D03*
X123001500Y-74159000D03*
%TD*%
D23*
%TO.C,R18*%
X157110000Y-80650000D03*
X156090000Y-80650000D03*
%TD*%
D26*
%TO.C,U5*%
X137015000Y-99552500D03*
X139015000Y-99552500D03*
X137015000Y-97852500D03*
X139015000Y-97852500D03*
D27*
X136110000Y-101365000D03*
X137380000Y-101365000D03*
X138650000Y-101365000D03*
X139920000Y-101365000D03*
X139920000Y-96040000D03*
X138650000Y-96040000D03*
X137380000Y-96040000D03*
X136110000Y-96040000D03*
%TD*%
D25*
%TO.C,C4*%
X116169000Y-86894000D03*
X118069000Y-86894000D03*
%TD*%
D24*
%TO.C,C44*%
X120864000Y-73964000D03*
X120864000Y-73004000D03*
%TD*%
%TO.C,C17*%
X134450000Y-98090000D03*
X134450000Y-97130000D03*
%TD*%
D10*
%TO.C,C46*%
X120944000Y-81939000D03*
X120944000Y-82899000D03*
%TD*%
D18*
%TO.C,C5*%
X118094000Y-84769000D03*
X116194000Y-84769000D03*
%TD*%
D12*
%TO.C,D3*%
X159982500Y-97860000D03*
X161557500Y-97860000D03*
%TD*%
D18*
%TO.C,C1*%
X118051500Y-76984000D03*
X116151500Y-76984000D03*
%TD*%
D11*
%TO.C,R8*%
X126390000Y-88625000D03*
X127410000Y-88625000D03*
%TD*%
D25*
%TO.C,C2*%
X116151500Y-70984000D03*
X118051500Y-70984000D03*
%TD*%
D28*
%TO.C,C10*%
X125700000Y-71850000D03*
X125700000Y-73750000D03*
%TD*%
D16*
%TO.C,U4*%
X115956500Y-80969000D03*
X115956500Y-81919000D03*
X115956500Y-82869000D03*
X118231500Y-82869000D03*
X118231500Y-80969000D03*
%TD*%
M02*
