M48
; DRILL file {KiCad 7.0.7-7.0.7~ubuntu22.04.1} date mar 19 sep 2023 23:07:04
; FORMAT={-:-/ absolute / inch / decimal}
; #@! TF.CreationDate,2023-09-19T23:07:04+02:00
; #@! TF.GenerationSoftware,Kicad,Pcbnew,7.0.7-7.0.7~ubuntu22.04.1
; #@! TF.FileFunction,Plated,1,4,PTH
FMAT,2
INCH
; #@! TA.AperFunction,Plated,PTH,ViaDrill
T1C0.0118
; #@! TA.AperFunction,Plated,PTH,ComponentDrill
T2C0.0394
; #@! TA.AperFunction,Plated,PTH,ComponentDrill
T3C0.1260
%
G90
G05
T1
X4.4961Y-3.9094
X4.6265Y-2.8236
X4.6691Y-3.3525
X4.6777Y-3.0322
X4.6779Y-3.637
X4.7722Y-2.8472
X4.7953Y-3.0945
X4.8307Y-3.0945
X4.8541Y-3.1911
X4.8661Y-3.0945
X4.8824Y-2.8472
X4.8898Y-3.1378
X4.9126Y-3.1114
X4.9134Y-3.4252
X4.9606Y-3.4252
X5.0Y-2.624
X5.0114Y-3.4028
X5.0417Y-3.5311
X5.0536Y-4.029
X5.0551Y-2.8583
X5.0551Y-2.8898
X5.0551Y-2.9213
X5.0551Y-2.9528
X5.0551Y-2.9843
X5.0551Y-3.1654
X5.0669Y-3.0472
X5.0744Y-3.413
X5.0984Y-3.0472
X5.1036Y-4.1053
X5.1036Y-4.2404
X5.1102Y-3.1654
X5.1536Y-2.4596
X5.1536Y-2.5947
X5.1536Y-4.1053
X5.1536Y-4.2404
X5.1654Y-2.9528
X5.1654Y-3.3583
X5.1665Y-3.5504
X5.2036Y-2.4596
X5.2036Y-2.5947
X5.2047Y-3.4606
X5.2079Y-3.6594
X5.2087Y-2.8701
X5.2126Y-3.2677
X5.2161Y-3.072
X5.2402Y-3.0079
X5.2536Y-2.4596
X5.2536Y-4.1053
X5.2536Y-4.2404
X5.2559Y-3.1969
X5.2598Y-3.378
X5.2614Y-2.5947
X5.2638Y-3.5787
X5.2795Y-3.4961
X5.2835Y-2.9094
X5.2913Y-3.122
X5.2925Y-3.8787
X5.3031Y-3.9232
X5.3036Y-2.4596
X5.3036Y-2.5947
X5.3036Y-4.1053
X5.3036Y-4.2404
X5.3051Y-3.7764
X5.3127Y-3.2913
X5.3189Y-3.6142
X5.3353Y-3.9492
X5.3506Y-3.4483
X5.3536Y-4.1053
X5.3536Y-4.2404
X5.3553Y-3.2862
X5.3583Y-3.3228
X5.3609Y-3.3555
X5.3745Y-2.9687
X5.3764Y-3.7993
X5.378Y-3.5433
X5.3819Y-3.1059
X5.4016Y-3.2992
X5.4036Y-2.4596
X5.4036Y-2.5947
X5.4036Y-4.1053
X5.4036Y-4.2404
X5.4055Y-3.2598
X5.4094Y-3.689
X5.4106Y-3.4685
X5.4173Y-2.874
X5.4197Y-3.7993
X5.4205Y-4.0083
X5.4234Y-3.127
X5.4367Y-3.2958
X5.4394Y-3.3964
X5.4409Y-3.5787
X5.4536Y-2.4596
X5.4536Y-2.5947
X5.4539Y-3.6909
X5.4567Y-3.2402
X5.4612Y-3.0628
X5.4693Y-3.7358
X5.4798Y-3.9746
X5.4843Y-2.9252
X5.4995Y-3.1102
X5.5014Y-3.1805
X5.5036Y-2.4596
X5.5036Y-4.1053
X5.5036Y-4.2404
X5.5045Y-3.5209
X5.5114Y-2.5935
X5.5171Y-3.4175
X5.5175Y-3.2829
X5.5236Y-3.622
X5.526Y-3.2252
X5.528Y-2.8181
X5.5415Y-3.062
X5.5431Y-4.1053
X5.5536Y-2.4596
X5.5536Y-2.5947
X5.5536Y-4.2404
X5.565Y-3.75
X5.5694Y-3.9457
X5.5732Y-3.1189
X5.576Y-3.3563
X5.5787Y-3.5551
X5.5794Y-2.9424
X5.5885Y-3.291
X5.5916Y-3.968
X5.6004Y-3.6591
X5.6036Y-4.1053
X5.6036Y-4.2404
X5.6072Y-3.2316
X5.6102Y-2.8819
X5.6203Y-3.4557
X5.6203Y-3.062
X5.6293Y-2.979
X5.6341Y-3.2589
X5.6341Y-3.1801
X5.6382Y-3.5189
X5.6382Y-3.5543
X5.6512Y-3.1161
X5.6536Y-2.4596
X5.6536Y-2.5947
X5.6536Y-4.1053
X5.6536Y-4.2404
X5.6571Y-3.3846
X5.6734Y-3.2195
X5.6757Y-2.9313
X5.6776Y-3.5028
X5.6786Y-3.0857
X5.6862Y-3.6839
X5.6972Y-3.826
X5.6976Y-3.7835
X5.6976Y-3.8799
X5.7012Y-3.561
X5.7036Y-2.4596
X5.7036Y-2.5947
X5.7046Y-3.3299
X5.7059Y-3.6059
X5.711Y-3.2594
X5.712Y-3.6378
X5.7154Y-2.7906
X5.7193Y-3.4374
X5.7205Y-3.0315
X5.7209Y-3.1992
X5.7242Y-3.6835
X5.7279Y-3.1116
X5.7368Y-3.5615
X5.7399Y-2.9452
X5.7514Y-3.287
X5.7536Y-2.4596
X5.7536Y-4.1053
X5.7536Y-4.2404
X5.7634Y-2.5929
X5.765Y-3.0748
X5.7717Y-3.3583
X5.7717Y-3.5512
X5.774Y-2.948
X5.7874Y-4.0118
X5.7898Y-3.5201
X5.7916Y-3.2844
X5.7957Y-2.8685
X5.8031Y-3.7996
X5.8031Y-3.8728
X5.8031Y-3.9398
X5.8035Y-3.7327
X5.8036Y-2.4596
X5.8036Y-2.5947
X5.8036Y-4.1053
X5.8036Y-4.2404
X5.815Y-2.9071
X5.815Y-3.4764
X5.8279Y-3.6428
X5.8283Y-3.522
X5.8286Y-3.2586
X5.8331Y-3.5965
X5.852Y-3.3811
X5.8536Y-4.2404
X5.8539Y-2.9295
X5.8575Y-3.5579
X5.8831Y-3.5079
X5.8957Y-3.5602
X5.9Y-3.6421
X5.9036Y-2.4596
X5.9036Y-2.5947
X5.9036Y-4.2404
X5.9059Y-3.6094
X5.9096Y-2.8514
X5.9134Y-3.4409
X5.9386Y-3.2949
X5.939Y-3.6035
X5.9485Y-3.532
X5.9536Y-2.4596
X5.9536Y-2.5947
X5.965Y-3.3394
X5.9787Y-3.2951
X5.9941Y-2.6831
X6.0433Y-3.466
X6.05Y-2.8831
X6.0591Y-3.5118
X6.0591Y-3.5433
X6.0673Y-3.6571
X6.0988Y-3.2378
X6.1004Y-3.2795
X6.1969Y-3.2205
X6.2205Y-3.5866
X6.3079Y-3.7878
X6.3102Y-3.911
X6.3134Y-4.0236
X6.4457Y-2.8504
X6.4695Y-2.9137
X6.4695Y-2.9637
X6.4695Y-3.0637
X6.4695Y-3.1137
X6.4695Y-3.2137
X6.4695Y-3.4137
X6.4695Y-3.4637
X6.4695Y-3.6137
X6.4695Y-3.6637
X6.4695Y-3.7137
X6.4706Y-3.1714
X6.4764Y-3.5669
X6.6045Y-2.8637
X6.6045Y-2.9137
X6.6045Y-2.9637
X6.6045Y-3.0637
X6.6045Y-3.1137
X6.6045Y-3.1637
X6.6045Y-3.2137
X6.6045Y-3.3137
X6.6045Y-3.3637
X6.6045Y-3.4137
X6.6045Y-3.4637
X6.6067Y-3.5626
T2
X5.0079Y-3.588
X5.0079Y-3.688
T3
X4.5331Y-2.5626
X4.5331Y-4.1374
X6.5016Y-2.5626
X6.5016Y-4.1374
T0
M30
