%TF.GenerationSoftware,KiCad,Pcbnew,7.0.7-7.0.7~ubuntu22.04.1*%
%TF.CreationDate,2023-09-20T21:24:29+02:00*%
%TF.ProjectId,som_fpga,736f6d5f-6670-4676-912e-6b696361645f,rev?*%
%TF.SameCoordinates,Original*%
%TF.FileFunction,Drillmap*%
%TF.FilePolarity,Positive*%
%FSLAX45Y45*%
G04 Gerber Fmt 4.5, Leading zero omitted, Abs format (unit mm)*
G04 Created by KiCad (PCBNEW 7.0.7-7.0.7~ubuntu22.04.1) date 2023-09-20 21:24:29*
%MOMM*%
%LPD*%
G01*
G04 APERTURE LIST*
%ADD10C,0.100000*%
%ADD11C,0.200000*%
%ADD12C,0.030000*%
%ADD13C,0.320000*%
G04 APERTURE END LIST*
D10*
X11414000Y-6009000D02*
G75*
G03*
X11014000Y-6409000I0J-400000D01*
G01*
X11014000Y-10609000D02*
G75*
G03*
X11414000Y-11009000I400000J0D01*
G01*
X16614000Y-11009000D02*
G75*
G03*
X17014000Y-10609000I0J400000D01*
G01*
X16614000Y-11009000D02*
X11414000Y-11009000D01*
X17014000Y-6409000D02*
X17014000Y-10609000D01*
X11014000Y-6409000D02*
X11014000Y-10609000D01*
X11414000Y-6009000D02*
X16614000Y-6009000D01*
X17014000Y-6409000D02*
G75*
G03*
X16614000Y-6009000I-400000J0D01*
G01*
D11*
D12*
X11405000Y-9915000D02*
X11435000Y-9945000D01*
X11435000Y-9915000D02*
X11405000Y-9945000D01*
X11736400Y-7156900D02*
X11766400Y-7186900D01*
X11766400Y-7156900D02*
X11736400Y-7186900D01*
X11844400Y-8500400D02*
X11874400Y-8530400D01*
X11874400Y-8500400D02*
X11844400Y-8530400D01*
X11866400Y-7686900D02*
X11896400Y-7716900D01*
X11896400Y-7686900D02*
X11866400Y-7716900D01*
X11866900Y-9222900D02*
X11896900Y-9252900D01*
X11896900Y-9222900D02*
X11866900Y-9252900D01*
X12106400Y-7216900D02*
X12136400Y-7246900D01*
X12136400Y-7216900D02*
X12106400Y-7246900D01*
X12165000Y-7845000D02*
X12195000Y-7875000D01*
X12195000Y-7845000D02*
X12165000Y-7875000D01*
X12255000Y-7845000D02*
X12285000Y-7875000D01*
X12285000Y-7845000D02*
X12255000Y-7875000D01*
X12314400Y-8090400D02*
X12344400Y-8120400D01*
X12344400Y-8090400D02*
X12314400Y-8120400D01*
X12345000Y-7845000D02*
X12375000Y-7875000D01*
X12375000Y-7845000D02*
X12345000Y-7875000D01*
X12386400Y-7216900D02*
X12416400Y-7246900D01*
X12416400Y-7216900D02*
X12386400Y-7246900D01*
X12405000Y-7955000D02*
X12435000Y-7985000D01*
X12435000Y-7955000D02*
X12405000Y-7985000D01*
X12463000Y-7888000D02*
X12493000Y-7918000D01*
X12493000Y-7888000D02*
X12463000Y-7918000D01*
X12465000Y-8685000D02*
X12495000Y-8715000D01*
X12495000Y-8685000D02*
X12465000Y-8715000D01*
X12585000Y-8685000D02*
X12615000Y-8715000D01*
X12615000Y-8685000D02*
X12585000Y-8715000D01*
X12685000Y-6650000D02*
X12715000Y-6680000D01*
X12715000Y-6650000D02*
X12685000Y-6680000D01*
X12714000Y-8628000D02*
X12744000Y-8658000D01*
X12744000Y-8628000D02*
X12714000Y-8658000D01*
X12791000Y-8954000D02*
X12821000Y-8984000D01*
X12821000Y-8954000D02*
X12791000Y-8984000D01*
X12821250Y-10218750D02*
X12851250Y-10248750D01*
X12851250Y-10218750D02*
X12821250Y-10248750D01*
X12825000Y-7245000D02*
X12855000Y-7275000D01*
X12855000Y-7245000D02*
X12825000Y-7275000D01*
X12825000Y-7325000D02*
X12855000Y-7355000D01*
X12855000Y-7325000D02*
X12825000Y-7355000D01*
X12825000Y-7405000D02*
X12855000Y-7435000D01*
X12855000Y-7405000D02*
X12825000Y-7435000D01*
X12825000Y-7485000D02*
X12855000Y-7515000D01*
X12855000Y-7485000D02*
X12825000Y-7515000D01*
X12825000Y-7565000D02*
X12855000Y-7595000D01*
X12855000Y-7565000D02*
X12825000Y-7595000D01*
X12825000Y-8025000D02*
X12855000Y-8055000D01*
X12855000Y-8025000D02*
X12825000Y-8055000D01*
X12855000Y-7725000D02*
X12885000Y-7755000D01*
X12885000Y-7725000D02*
X12855000Y-7755000D01*
X12874000Y-8654000D02*
X12904000Y-8684000D01*
X12904000Y-8654000D02*
X12874000Y-8684000D01*
X12935000Y-7725000D02*
X12965000Y-7755000D01*
X12965000Y-7725000D02*
X12935000Y-7755000D01*
X12948250Y-10412500D02*
X12978250Y-10442500D01*
X12978250Y-10412500D02*
X12948250Y-10442500D01*
X12948250Y-10755500D02*
X12978250Y-10785500D01*
X12978250Y-10755500D02*
X12948250Y-10785500D01*
X12965000Y-8025000D02*
X12995000Y-8055000D01*
X12995000Y-8025000D02*
X12965000Y-8055000D01*
X13075250Y-6232500D02*
X13105250Y-6262500D01*
X13105250Y-6232500D02*
X13075250Y-6262500D01*
X13075250Y-6575500D02*
X13105250Y-6605500D01*
X13105250Y-6575500D02*
X13075250Y-6605500D01*
X13075250Y-10412500D02*
X13105250Y-10442500D01*
X13105250Y-10412500D02*
X13075250Y-10442500D01*
X13075250Y-10755500D02*
X13105250Y-10785500D01*
X13105250Y-10755500D02*
X13075250Y-10785500D01*
X13105000Y-7485000D02*
X13135000Y-7515000D01*
X13135000Y-7485000D02*
X13105000Y-7515000D01*
X13105000Y-8515000D02*
X13135000Y-8545000D01*
X13135000Y-8515000D02*
X13105000Y-8545000D01*
X13108000Y-9003000D02*
X13138000Y-9033000D01*
X13138000Y-9003000D02*
X13108000Y-9033000D01*
X13202250Y-6232500D02*
X13232250Y-6262500D01*
X13232250Y-6232500D02*
X13202250Y-6262500D01*
X13202250Y-6575500D02*
X13232250Y-6605500D01*
X13232250Y-6575500D02*
X13202250Y-6605500D01*
X13205000Y-8775000D02*
X13235000Y-8805000D01*
X13235000Y-8775000D02*
X13205000Y-8805000D01*
X13213000Y-9280000D02*
X13243000Y-9310000D01*
X13243000Y-9280000D02*
X13213000Y-9310000D01*
X13215000Y-7275000D02*
X13245000Y-7305000D01*
X13245000Y-7275000D02*
X13215000Y-7305000D01*
X13225000Y-8285000D02*
X13255000Y-8315000D01*
X13255000Y-8285000D02*
X13225000Y-8315000D01*
X13234000Y-7788000D02*
X13264000Y-7818000D01*
X13264000Y-7788000D02*
X13234000Y-7818000D01*
X13295000Y-7625000D02*
X13325000Y-7655000D01*
X13325000Y-7625000D02*
X13295000Y-7655000D01*
X13329250Y-6232500D02*
X13359250Y-6262500D01*
X13359250Y-6232500D02*
X13329250Y-6262500D01*
X13329250Y-10412500D02*
X13359250Y-10442500D01*
X13359250Y-10412500D02*
X13329250Y-10442500D01*
X13329250Y-10755500D02*
X13359250Y-10785500D01*
X13359250Y-10755500D02*
X13329250Y-10785500D01*
X13335000Y-8105000D02*
X13365000Y-8135000D01*
X13365000Y-8105000D02*
X13335000Y-8135000D01*
X13345000Y-8565000D02*
X13375000Y-8595000D01*
X13375000Y-8565000D02*
X13345000Y-8595000D01*
X13348870Y-6575500D02*
X13378870Y-6605500D01*
X13378870Y-6575500D02*
X13348870Y-6605500D01*
X13355000Y-9075000D02*
X13385000Y-9105000D01*
X13385000Y-9075000D02*
X13355000Y-9105000D01*
X13395000Y-8865000D02*
X13425000Y-8895000D01*
X13425000Y-8865000D02*
X13395000Y-8895000D01*
X13405000Y-7375000D02*
X13435000Y-7405000D01*
X13435000Y-7375000D02*
X13405000Y-7405000D01*
X13425000Y-7915000D02*
X13455000Y-7945000D01*
X13455000Y-7915000D02*
X13425000Y-7945000D01*
X13428000Y-9837000D02*
X13458000Y-9867000D01*
X13458000Y-9837000D02*
X13428000Y-9867000D01*
X13455000Y-9950000D02*
X13485000Y-9980000D01*
X13485000Y-9950000D02*
X13455000Y-9980000D01*
X13456250Y-6232500D02*
X13486250Y-6262500D01*
X13486250Y-6232500D02*
X13456250Y-6262500D01*
X13456250Y-6575500D02*
X13486250Y-6605500D01*
X13486250Y-6575500D02*
X13456250Y-6605500D01*
X13456250Y-10412500D02*
X13486250Y-10442500D01*
X13486250Y-10412500D02*
X13456250Y-10442500D01*
X13456250Y-10755500D02*
X13486250Y-10785500D01*
X13486250Y-10755500D02*
X13456250Y-10785500D01*
X13460000Y-9577000D02*
X13490000Y-9607000D01*
X13490000Y-9577000D02*
X13460000Y-9607000D01*
X13479304Y-8344783D02*
X13509304Y-8374783D01*
X13509304Y-8344783D02*
X13479304Y-8374783D01*
X13495000Y-9165000D02*
X13525000Y-9195000D01*
X13525000Y-9165000D02*
X13495000Y-9195000D01*
X13536550Y-10016000D02*
X13566550Y-10046000D01*
X13566550Y-10016000D02*
X13536550Y-10046000D01*
X13575499Y-8743650D02*
X13605499Y-8773650D01*
X13605499Y-8743650D02*
X13575499Y-8773650D01*
X13583250Y-10412500D02*
X13613250Y-10442500D01*
X13613250Y-10412500D02*
X13583250Y-10442500D01*
X13583250Y-10755500D02*
X13613250Y-10785500D01*
X13613250Y-10755500D02*
X13583250Y-10785500D01*
X13587451Y-8331860D02*
X13617451Y-8361860D01*
X13617451Y-8331860D02*
X13587451Y-8361860D01*
X13595000Y-8425000D02*
X13625000Y-8455000D01*
X13625000Y-8425000D02*
X13595000Y-8455000D01*
X13601810Y-8508025D02*
X13631810Y-8538025D01*
X13631810Y-8508025D02*
X13601810Y-8538025D01*
X13636269Y-7525540D02*
X13666269Y-7555540D01*
X13666269Y-7525540D02*
X13636269Y-7555540D01*
X13641000Y-9635300D02*
X13671000Y-9665300D01*
X13671000Y-9635300D02*
X13641000Y-9665300D01*
X13645000Y-8985000D02*
X13675000Y-9015000D01*
X13675000Y-8985000D02*
X13645000Y-9015000D01*
X13655000Y-7874000D02*
X13685000Y-7904000D01*
X13685000Y-7874000D02*
X13655000Y-7904000D01*
X13705000Y-8365000D02*
X13735000Y-8395000D01*
X13735000Y-8365000D02*
X13705000Y-8395000D01*
X13710250Y-6232500D02*
X13740250Y-6262500D01*
X13740250Y-6232500D02*
X13710250Y-6262500D01*
X13710250Y-6575500D02*
X13740250Y-6605500D01*
X13740250Y-6575500D02*
X13710250Y-6605500D01*
X13710250Y-10412500D02*
X13740250Y-10442500D01*
X13740250Y-10412500D02*
X13710250Y-10442500D01*
X13710250Y-10755500D02*
X13740250Y-10785500D01*
X13740250Y-10755500D02*
X13710250Y-10785500D01*
X13715000Y-8265000D02*
X13745000Y-8295000D01*
X13745000Y-8265000D02*
X13715000Y-8295000D01*
X13725000Y-9355000D02*
X13755000Y-9385000D01*
X13755000Y-9355000D02*
X13725000Y-9385000D01*
X13728000Y-8795000D02*
X13758000Y-8825000D01*
X13758000Y-8795000D02*
X13728000Y-8825000D01*
X13745000Y-7285000D02*
X13775000Y-7315000D01*
X13775000Y-7285000D02*
X13745000Y-7315000D01*
X13751000Y-9635300D02*
X13781000Y-9665300D01*
X13781000Y-9635300D02*
X13751000Y-9665300D01*
X13753000Y-10166000D02*
X13783000Y-10196000D01*
X13783000Y-10166000D02*
X13753000Y-10196000D01*
X13760487Y-7927456D02*
X13790487Y-7957456D01*
X13790487Y-7927456D02*
X13760487Y-7957456D01*
X13794290Y-8356291D02*
X13824290Y-8386291D01*
X13824290Y-8356291D02*
X13794290Y-8386291D01*
X13801009Y-8611949D02*
X13831009Y-8641949D01*
X13831009Y-8611949D02*
X13801009Y-8641949D01*
X13805000Y-9075000D02*
X13835000Y-9105000D01*
X13835000Y-9075000D02*
X13805000Y-9105000D01*
X13837250Y-6232500D02*
X13867250Y-6262500D01*
X13867250Y-6232500D02*
X13837250Y-6262500D01*
X13837250Y-6575500D02*
X13867250Y-6605500D01*
X13867250Y-6575500D02*
X13837250Y-6605500D01*
X13837950Y-9360000D02*
X13867950Y-9390000D01*
X13867950Y-9360000D02*
X13837950Y-9390000D01*
X13845000Y-8215000D02*
X13875000Y-8245000D01*
X13875000Y-8215000D02*
X13845000Y-8245000D01*
X13856323Y-7764392D02*
X13886323Y-7794392D01*
X13886323Y-7764392D02*
X13856323Y-7794392D01*
X13877000Y-9474000D02*
X13907000Y-9504000D01*
X13907000Y-9474000D02*
X13877000Y-9504000D01*
X13903810Y-10080528D02*
X13933810Y-10110528D01*
X13933810Y-10080528D02*
X13903810Y-10110528D01*
X13915000Y-7415000D02*
X13945000Y-7445000D01*
X13945000Y-7415000D02*
X13915000Y-7445000D01*
X13953743Y-7884828D02*
X13983743Y-7914828D01*
X13983743Y-7884828D02*
X13953743Y-7914828D01*
X13958538Y-8063447D02*
X13988538Y-8093447D01*
X13988538Y-8063447D02*
X13958538Y-8093447D01*
X13964250Y-6232500D02*
X13994250Y-6262500D01*
X13994250Y-6232500D02*
X13964250Y-6262500D01*
X13964250Y-10412500D02*
X13994250Y-10442500D01*
X13994250Y-10412500D02*
X13964250Y-10442500D01*
X13964250Y-10755500D02*
X13994250Y-10785500D01*
X13994250Y-10755500D02*
X13964250Y-10785500D01*
X13966374Y-8928095D02*
X13996374Y-8958095D01*
X13996374Y-8928095D02*
X13966374Y-8958095D01*
X13983868Y-6572594D02*
X14013868Y-6602594D01*
X14013868Y-6572594D02*
X13983868Y-6602594D01*
X13998500Y-8665500D02*
X14028500Y-8695500D01*
X14028500Y-8665500D02*
X13998500Y-8695500D01*
X13999500Y-8323500D02*
X14029500Y-8353500D01*
X14029500Y-8323500D02*
X13999500Y-8353500D01*
X14015000Y-9185000D02*
X14045000Y-9215000D01*
X14045000Y-9185000D02*
X14015000Y-9215000D01*
X14021000Y-8177000D02*
X14051000Y-8207000D01*
X14051000Y-8177000D02*
X14021000Y-8207000D01*
X14026000Y-7143000D02*
X14056000Y-7173000D01*
X14056000Y-7143000D02*
X14026000Y-7173000D01*
X14060463Y-7762500D02*
X14090463Y-7792500D01*
X14090463Y-7762500D02*
X14060463Y-7792500D01*
X14064350Y-10412500D02*
X14094350Y-10442500D01*
X14094350Y-10412500D02*
X14064350Y-10442500D01*
X14091250Y-6232500D02*
X14121250Y-6262500D01*
X14121250Y-6232500D02*
X14091250Y-6262500D01*
X14091250Y-6575500D02*
X14121250Y-6605500D01*
X14121250Y-6575500D02*
X14091250Y-6605500D01*
X14091250Y-10755500D02*
X14121250Y-10785500D01*
X14121250Y-10755500D02*
X14091250Y-10785500D01*
X14120000Y-9510000D02*
X14150000Y-9540000D01*
X14150000Y-9510000D02*
X14120000Y-9540000D01*
X14131214Y-10007179D02*
X14161214Y-10037179D01*
X14161214Y-10007179D02*
X14131214Y-10037179D01*
X14141000Y-7907000D02*
X14171000Y-7937000D01*
X14171000Y-7907000D02*
X14141000Y-7937000D01*
X14148000Y-8510000D02*
X14178000Y-8540000D01*
X14178000Y-8510000D02*
X14148000Y-8540000D01*
X14155000Y-9015000D02*
X14185000Y-9045000D01*
X14185000Y-9015000D02*
X14155000Y-9045000D01*
X14156705Y-7458789D02*
X14186705Y-7488789D01*
X14186705Y-7458789D02*
X14156705Y-7488789D01*
X14179856Y-8344254D02*
X14209856Y-8374254D01*
X14209856Y-8344254D02*
X14179856Y-8374254D01*
X14187783Y-10063748D02*
X14217783Y-10093748D01*
X14217783Y-10063748D02*
X14187783Y-10093748D01*
X14210000Y-9279000D02*
X14240000Y-9309000D01*
X14240000Y-9279000D02*
X14210000Y-9309000D01*
X14218250Y-10412500D02*
X14248250Y-10442500D01*
X14248250Y-10412500D02*
X14218250Y-10442500D01*
X14218250Y-10755500D02*
X14248250Y-10785500D01*
X14248250Y-10755500D02*
X14218250Y-10785500D01*
X14227320Y-8193207D02*
X14257320Y-8223207D01*
X14257320Y-8193207D02*
X14227320Y-8223207D01*
X14235000Y-7305000D02*
X14265000Y-7335000D01*
X14265000Y-7305000D02*
X14235000Y-7335000D01*
X14260457Y-8762511D02*
X14290457Y-8792511D01*
X14290457Y-8762511D02*
X14260457Y-8792511D01*
X14260460Y-7762506D02*
X14290460Y-7792506D01*
X14290460Y-7762506D02*
X14260460Y-7792506D01*
X14283459Y-7551541D02*
X14313459Y-7581541D01*
X14313459Y-7551541D02*
X14283459Y-7581541D01*
X14295540Y-8262507D02*
X14325540Y-8292507D01*
X14325540Y-8262507D02*
X14295540Y-8292507D01*
X14295541Y-8062508D02*
X14325541Y-8092508D01*
X14325541Y-8062508D02*
X14295541Y-8092508D01*
X14306000Y-8923000D02*
X14336000Y-8953000D01*
X14336000Y-8923000D02*
X14306000Y-8953000D01*
X14306000Y-9013000D02*
X14336000Y-9043000D01*
X14336000Y-9013000D02*
X14306000Y-9043000D01*
X14339000Y-7900000D02*
X14369000Y-7930000D01*
X14369000Y-7900000D02*
X14339000Y-7930000D01*
X14345250Y-6232500D02*
X14375250Y-6262500D01*
X14375250Y-6232500D02*
X14345250Y-6262500D01*
X14345250Y-6575500D02*
X14375250Y-6605500D01*
X14375250Y-6575500D02*
X14345250Y-6605500D01*
X14345250Y-10412500D02*
X14375250Y-10442500D01*
X14375250Y-10412500D02*
X14345250Y-10442500D01*
X14345250Y-10755500D02*
X14375250Y-10785500D01*
X14375250Y-10755500D02*
X14345250Y-10785500D01*
X14354000Y-8582000D02*
X14384000Y-8612000D01*
X14384000Y-8582000D02*
X14354000Y-8612000D01*
X14395542Y-8162509D02*
X14425542Y-8192509D01*
X14425542Y-8162509D02*
X14395542Y-8192509D01*
X14401183Y-7430394D02*
X14431183Y-7460394D01*
X14431183Y-7430394D02*
X14401183Y-7460394D01*
X14406000Y-8882000D02*
X14436000Y-8912000D01*
X14436000Y-8882000D02*
X14406000Y-8912000D01*
X14408555Y-7822665D02*
X14438555Y-7852665D01*
X14438555Y-7822665D02*
X14408555Y-7852665D01*
X14428000Y-9342000D02*
X14458000Y-9372000D01*
X14458000Y-9342000D02*
X14428000Y-9372000D01*
X14456000Y-9703000D02*
X14486000Y-9733000D01*
X14486000Y-9703000D02*
X14456000Y-9733000D01*
X14457000Y-9595000D02*
X14487000Y-9625000D01*
X14487000Y-9595000D02*
X14457000Y-9625000D01*
X14457000Y-9840000D02*
X14487000Y-9870000D01*
X14487000Y-9840000D02*
X14457000Y-9870000D01*
X14466000Y-9030000D02*
X14496000Y-9060000D01*
X14496000Y-9030000D02*
X14466000Y-9060000D01*
X14472250Y-6232500D02*
X14502250Y-6262500D01*
X14502250Y-6232500D02*
X14472250Y-6262500D01*
X14472250Y-6575500D02*
X14502250Y-6605500D01*
X14502250Y-6575500D02*
X14472250Y-6605500D01*
X14474794Y-8443006D02*
X14504794Y-8473006D01*
X14504794Y-8443006D02*
X14474794Y-8473006D01*
X14478000Y-9144000D02*
X14508000Y-9174000D01*
X14508000Y-9144000D02*
X14478000Y-9174000D01*
X14491000Y-8264000D02*
X14521000Y-8294000D01*
X14521000Y-8264000D02*
X14491000Y-8294000D01*
X14493550Y-9225000D02*
X14523550Y-9255000D01*
X14523550Y-9225000D02*
X14493550Y-9255000D01*
X14502000Y-7073000D02*
X14532000Y-7103000D01*
X14532000Y-7073000D02*
X14502000Y-7103000D01*
X14512000Y-8716000D02*
X14542000Y-8746000D01*
X14542000Y-8716000D02*
X14512000Y-8746000D01*
X14515000Y-7685000D02*
X14545000Y-7715000D01*
X14545000Y-7685000D02*
X14515000Y-7715000D01*
X14516000Y-8111000D02*
X14546000Y-8141000D01*
X14546000Y-8111000D02*
X14516000Y-8141000D01*
X14524350Y-9341000D02*
X14554350Y-9371000D01*
X14554350Y-9341000D02*
X14524350Y-9371000D01*
X14533844Y-7888524D02*
X14563844Y-7918524D01*
X14563844Y-7888524D02*
X14533844Y-7918524D01*
X14556515Y-9031126D02*
X14586515Y-9061126D01*
X14586515Y-9031126D02*
X14556515Y-9061126D01*
X14564458Y-7465751D02*
X14594458Y-7495751D01*
X14594458Y-7465751D02*
X14564458Y-7495751D01*
X14593580Y-8334104D02*
X14623580Y-8364104D01*
X14623580Y-8334104D02*
X14593580Y-8364104D01*
X14599250Y-6232500D02*
X14629250Y-6262500D01*
X14629250Y-6232500D02*
X14599250Y-6262500D01*
X14599250Y-10412500D02*
X14629250Y-10442500D01*
X14629250Y-10412500D02*
X14599250Y-10442500D01*
X14599250Y-10755500D02*
X14629250Y-10785500D01*
X14629250Y-10755500D02*
X14599250Y-10785500D01*
X14624000Y-6571000D02*
X14654000Y-6601000D01*
X14654000Y-6571000D02*
X14624000Y-6601000D01*
X14628000Y-7795000D02*
X14658000Y-7825000D01*
X14658000Y-7795000D02*
X14628000Y-7825000D01*
X14645000Y-8515000D02*
X14675000Y-8545000D01*
X14675000Y-8515000D02*
X14645000Y-8545000D01*
X14645000Y-9005000D02*
X14675000Y-9035000D01*
X14675000Y-9005000D02*
X14645000Y-9035000D01*
X14651000Y-7473000D02*
X14681000Y-7503000D01*
X14681000Y-7473000D02*
X14651000Y-7503000D01*
X14685000Y-10175000D02*
X14715000Y-10205000D01*
X14715000Y-10175000D02*
X14685000Y-10205000D01*
X14691000Y-8926000D02*
X14721000Y-8956000D01*
X14721000Y-8926000D02*
X14691000Y-8956000D01*
X14695542Y-8327491D02*
X14725542Y-8357491D01*
X14725542Y-8327491D02*
X14695542Y-8357491D01*
X14706000Y-7271000D02*
X14736000Y-7301000D01*
X14736000Y-7271000D02*
X14706000Y-7301000D01*
X14725000Y-9636000D02*
X14755000Y-9666000D01*
X14755000Y-9636000D02*
X14725000Y-9666000D01*
X14725000Y-9822000D02*
X14755000Y-9852000D01*
X14755000Y-9822000D02*
X14725000Y-9852000D01*
X14725000Y-9992000D02*
X14755000Y-10022000D01*
X14755000Y-9992000D02*
X14725000Y-10022000D01*
X14726000Y-9466000D02*
X14756000Y-9496000D01*
X14756000Y-9466000D02*
X14726000Y-9496000D01*
X14726250Y-6232500D02*
X14756250Y-6262500D01*
X14756250Y-6232500D02*
X14726250Y-6262500D01*
X14726250Y-6575500D02*
X14756250Y-6605500D01*
X14756250Y-6575500D02*
X14726250Y-6605500D01*
X14726250Y-10412500D02*
X14756250Y-10442500D01*
X14756250Y-10412500D02*
X14726250Y-10442500D01*
X14726250Y-10755500D02*
X14756250Y-10785500D01*
X14756250Y-10755500D02*
X14726250Y-10785500D01*
X14755000Y-7369000D02*
X14785000Y-7399000D01*
X14785000Y-7369000D02*
X14755000Y-7399000D01*
X14755000Y-8815000D02*
X14785000Y-8845000D01*
X14785000Y-8815000D02*
X14755000Y-8845000D01*
X14787819Y-9237742D02*
X14817819Y-9267742D01*
X14817819Y-9237742D02*
X14787819Y-9267742D01*
X14789000Y-8931000D02*
X14819000Y-8961000D01*
X14819000Y-8931000D02*
X14789000Y-8961000D01*
X14789589Y-8261837D02*
X14819589Y-8291837D01*
X14819589Y-8261837D02*
X14789589Y-8291837D01*
X14801000Y-9120000D02*
X14831000Y-9150000D01*
X14831000Y-9120000D02*
X14801000Y-9150000D01*
X14849000Y-8573000D02*
X14879000Y-8603000D01*
X14879000Y-8573000D02*
X14849000Y-8603000D01*
X14853250Y-10755500D02*
X14883250Y-10785500D01*
X14883250Y-10755500D02*
X14853250Y-10785500D01*
X14854000Y-7426000D02*
X14884000Y-7456000D01*
X14884000Y-7426000D02*
X14854000Y-7456000D01*
X14863000Y-9022000D02*
X14893000Y-9052000D01*
X14893000Y-9022000D02*
X14863000Y-9052000D01*
X14928000Y-8895000D02*
X14958000Y-8925000D01*
X14958000Y-8895000D02*
X14928000Y-8925000D01*
X14960000Y-9028000D02*
X14990000Y-9058000D01*
X14990000Y-9028000D02*
X14960000Y-9058000D01*
X14971000Y-9236000D02*
X15001000Y-9266000D01*
X15001000Y-9236000D02*
X14971000Y-9266000D01*
X14980250Y-6232500D02*
X15010250Y-6262500D01*
X15010250Y-6232500D02*
X14980250Y-6262500D01*
X14980250Y-6575500D02*
X15010250Y-6605500D01*
X15010250Y-6575500D02*
X14980250Y-6605500D01*
X14980250Y-10755500D02*
X15010250Y-10785500D01*
X15010250Y-10755500D02*
X14980250Y-10785500D01*
X14986000Y-9153000D02*
X15016000Y-9183000D01*
X15016000Y-9153000D02*
X14986000Y-9183000D01*
X14995511Y-7227458D02*
X15025511Y-7257458D01*
X15025511Y-7227458D02*
X14995511Y-7257458D01*
X15005000Y-8725000D02*
X15035000Y-8755000D01*
X15035000Y-8725000D02*
X15005000Y-8755000D01*
X15069000Y-8354000D02*
X15099000Y-8384000D01*
X15099000Y-8354000D02*
X15069000Y-8384000D01*
X15070000Y-9138000D02*
X15100000Y-9168000D01*
X15100000Y-9138000D02*
X15070000Y-9168000D01*
X15094290Y-8956292D02*
X15124290Y-8986292D01*
X15124290Y-8956292D02*
X15094290Y-8986292D01*
X15107250Y-6232500D02*
X15137250Y-6262500D01*
X15137250Y-6232500D02*
X15107250Y-6262500D01*
X15107250Y-6575500D02*
X15137250Y-6605500D01*
X15137250Y-6575500D02*
X15107250Y-6605500D01*
X15136000Y-8467000D02*
X15166000Y-8497000D01*
X15166000Y-8467000D02*
X15136000Y-8497000D01*
X15170853Y-8354661D02*
X15200853Y-8384661D01*
X15200853Y-8354661D02*
X15170853Y-8384661D01*
X15210000Y-6800000D02*
X15240000Y-6830000D01*
X15240000Y-6800000D02*
X15210000Y-6830000D01*
X15335000Y-8788700D02*
X15365000Y-8818700D01*
X15365000Y-8788700D02*
X15335000Y-8818700D01*
X15352000Y-7308000D02*
X15382000Y-7338000D01*
X15382000Y-7308000D02*
X15352000Y-7338000D01*
X15375000Y-8905000D02*
X15405000Y-8935000D01*
X15405000Y-8905000D02*
X15375000Y-8935000D01*
X15375000Y-8985000D02*
X15405000Y-9015000D01*
X15405000Y-8985000D02*
X15375000Y-9015000D01*
X15396000Y-9274000D02*
X15426000Y-9304000D01*
X15426000Y-9274000D02*
X15396000Y-9304000D01*
X15476000Y-8209000D02*
X15506000Y-8239000D01*
X15506000Y-8209000D02*
X15476000Y-8239000D01*
X15480000Y-8315000D02*
X15510000Y-8345000D01*
X15510000Y-8315000D02*
X15480000Y-8345000D01*
X15725000Y-8165000D02*
X15755000Y-8195000D01*
X15755000Y-8165000D02*
X15725000Y-8195000D01*
X15785000Y-9095000D02*
X15815000Y-9125000D01*
X15815000Y-9095000D02*
X15785000Y-9125000D01*
X16007000Y-9606000D02*
X16037000Y-9636000D01*
X16037000Y-9606000D02*
X16007000Y-9636000D01*
X16013000Y-9919000D02*
X16043000Y-9949000D01*
X16043000Y-9919000D02*
X16013000Y-9949000D01*
X16021000Y-10205000D02*
X16051000Y-10235000D01*
X16051000Y-10205000D02*
X16021000Y-10235000D01*
X16357000Y-7225000D02*
X16387000Y-7255000D01*
X16387000Y-7225000D02*
X16357000Y-7255000D01*
X16417500Y-7385750D02*
X16447500Y-7415750D01*
X16447500Y-7385750D02*
X16417500Y-7415750D01*
X16417500Y-7512750D02*
X16447500Y-7542750D01*
X16447500Y-7512750D02*
X16417500Y-7542750D01*
X16417500Y-7766750D02*
X16447500Y-7796750D01*
X16447500Y-7766750D02*
X16417500Y-7796750D01*
X16417500Y-7893750D02*
X16447500Y-7923750D01*
X16447500Y-7893750D02*
X16417500Y-7923750D01*
X16417500Y-8147750D02*
X16447500Y-8177750D01*
X16447500Y-8147750D02*
X16417500Y-8177750D01*
X16417500Y-8655750D02*
X16447500Y-8685750D01*
X16447500Y-8655750D02*
X16417500Y-8685750D01*
X16417500Y-8782750D02*
X16447500Y-8812750D01*
X16447500Y-8782750D02*
X16417500Y-8812750D01*
X16417500Y-9163750D02*
X16447500Y-9193750D01*
X16447500Y-9163750D02*
X16417500Y-9193750D01*
X16417500Y-9290750D02*
X16447500Y-9320750D01*
X16447500Y-9290750D02*
X16417500Y-9320750D01*
X16417500Y-9417750D02*
X16447500Y-9447750D01*
X16447500Y-9417750D02*
X16417500Y-9447750D01*
X16420406Y-8040368D02*
X16450406Y-8070368D01*
X16450406Y-8040368D02*
X16420406Y-8070368D01*
X16435000Y-9045000D02*
X16465000Y-9075000D01*
X16465000Y-9045000D02*
X16435000Y-9075000D01*
X16760500Y-7258750D02*
X16790500Y-7288750D01*
X16790500Y-7258750D02*
X16760500Y-7288750D01*
X16760500Y-7385750D02*
X16790500Y-7415750D01*
X16790500Y-7385750D02*
X16760500Y-7415750D01*
X16760500Y-7512750D02*
X16790500Y-7542750D01*
X16790500Y-7512750D02*
X16760500Y-7542750D01*
X16760500Y-7766750D02*
X16790500Y-7796750D01*
X16790500Y-7766750D02*
X16760500Y-7796750D01*
X16760500Y-7893750D02*
X16790500Y-7923750D01*
X16790500Y-7893750D02*
X16760500Y-7923750D01*
X16760500Y-8020750D02*
X16790500Y-8050750D01*
X16790500Y-8020750D02*
X16760500Y-8050750D01*
X16760500Y-8147750D02*
X16790500Y-8177750D01*
X16790500Y-8147750D02*
X16760500Y-8177750D01*
X16760500Y-8401750D02*
X16790500Y-8431750D01*
X16790500Y-8401750D02*
X16760500Y-8431750D01*
X16760500Y-8528750D02*
X16790500Y-8558750D01*
X16790500Y-8528750D02*
X16760500Y-8558750D01*
X16760500Y-8655750D02*
X16790500Y-8685750D01*
X16790500Y-8655750D02*
X16760500Y-8685750D01*
X16760500Y-8782750D02*
X16790500Y-8812750D01*
X16790500Y-8782750D02*
X16760500Y-8812750D01*
X16766000Y-9034000D02*
X16796000Y-9064000D01*
X16796000Y-9034000D02*
X16766000Y-9064000D01*
D10*
X12770000Y-9113500D02*
G75*
G03*
X12770000Y-9113500I-50000J0D01*
G01*
X12770000Y-9367500D02*
G75*
G03*
X12770000Y-9367500I-50000J0D01*
G01*
D13*
X11514000Y-6349000D02*
X11514000Y-6669000D01*
X11354000Y-6509000D02*
X11674000Y-6509000D01*
X11514000Y-10349000D02*
X11514000Y-10669000D01*
X11354000Y-10509000D02*
X11674000Y-10509000D01*
X16514000Y-6349000D02*
X16514000Y-6669000D01*
X16354000Y-6509000D02*
X16674000Y-6509000D01*
X16514000Y-10349000D02*
X16514000Y-10669000D01*
X16354000Y-10509000D02*
X16674000Y-10509000D01*
D11*
X11269777Y-11325484D02*
X11269777Y-11125484D01*
X11269777Y-11125484D02*
X11317396Y-11125484D01*
X11317396Y-11125484D02*
X11345967Y-11135008D01*
X11345967Y-11135008D02*
X11365015Y-11154055D01*
X11365015Y-11154055D02*
X11374539Y-11173103D01*
X11374539Y-11173103D02*
X11384062Y-11211198D01*
X11384062Y-11211198D02*
X11384062Y-11239769D01*
X11384062Y-11239769D02*
X11374539Y-11277865D01*
X11374539Y-11277865D02*
X11365015Y-11296912D01*
X11365015Y-11296912D02*
X11345967Y-11315960D01*
X11345967Y-11315960D02*
X11317396Y-11325484D01*
X11317396Y-11325484D02*
X11269777Y-11325484D01*
X11469777Y-11325484D02*
X11469777Y-11192150D01*
X11469777Y-11230246D02*
X11479301Y-11211198D01*
X11479301Y-11211198D02*
X11488824Y-11201674D01*
X11488824Y-11201674D02*
X11507872Y-11192150D01*
X11507872Y-11192150D02*
X11526920Y-11192150D01*
X11593586Y-11325484D02*
X11593586Y-11192150D01*
X11593586Y-11125484D02*
X11584062Y-11135008D01*
X11584062Y-11135008D02*
X11593586Y-11144531D01*
X11593586Y-11144531D02*
X11603110Y-11135008D01*
X11603110Y-11135008D02*
X11593586Y-11125484D01*
X11593586Y-11125484D02*
X11593586Y-11144531D01*
X11717396Y-11325484D02*
X11698348Y-11315960D01*
X11698348Y-11315960D02*
X11688824Y-11296912D01*
X11688824Y-11296912D02*
X11688824Y-11125484D01*
X11822158Y-11325484D02*
X11803110Y-11315960D01*
X11803110Y-11315960D02*
X11793586Y-11296912D01*
X11793586Y-11296912D02*
X11793586Y-11125484D01*
X12050729Y-11325484D02*
X12050729Y-11125484D01*
X12050729Y-11125484D02*
X12117396Y-11268341D01*
X12117396Y-11268341D02*
X12184062Y-11125484D01*
X12184062Y-11125484D02*
X12184062Y-11325484D01*
X12365015Y-11325484D02*
X12365015Y-11220722D01*
X12365015Y-11220722D02*
X12355491Y-11201674D01*
X12355491Y-11201674D02*
X12336443Y-11192150D01*
X12336443Y-11192150D02*
X12298348Y-11192150D01*
X12298348Y-11192150D02*
X12279301Y-11201674D01*
X12365015Y-11315960D02*
X12345967Y-11325484D01*
X12345967Y-11325484D02*
X12298348Y-11325484D01*
X12298348Y-11325484D02*
X12279301Y-11315960D01*
X12279301Y-11315960D02*
X12269777Y-11296912D01*
X12269777Y-11296912D02*
X12269777Y-11277865D01*
X12269777Y-11277865D02*
X12279301Y-11258817D01*
X12279301Y-11258817D02*
X12298348Y-11249293D01*
X12298348Y-11249293D02*
X12345967Y-11249293D01*
X12345967Y-11249293D02*
X12365015Y-11239769D01*
X12460253Y-11192150D02*
X12460253Y-11392150D01*
X12460253Y-11201674D02*
X12479301Y-11192150D01*
X12479301Y-11192150D02*
X12517396Y-11192150D01*
X12517396Y-11192150D02*
X12536443Y-11201674D01*
X12536443Y-11201674D02*
X12545967Y-11211198D01*
X12545967Y-11211198D02*
X12555491Y-11230246D01*
X12555491Y-11230246D02*
X12555491Y-11287388D01*
X12555491Y-11287388D02*
X12545967Y-11306436D01*
X12545967Y-11306436D02*
X12536443Y-11315960D01*
X12536443Y-11315960D02*
X12517396Y-11325484D01*
X12517396Y-11325484D02*
X12479301Y-11325484D01*
X12479301Y-11325484D02*
X12460253Y-11315960D01*
X12641205Y-11306436D02*
X12650729Y-11315960D01*
X12650729Y-11315960D02*
X12641205Y-11325484D01*
X12641205Y-11325484D02*
X12631682Y-11315960D01*
X12631682Y-11315960D02*
X12641205Y-11306436D01*
X12641205Y-11306436D02*
X12641205Y-11325484D01*
X12641205Y-11201674D02*
X12650729Y-11211198D01*
X12650729Y-11211198D02*
X12641205Y-11220722D01*
X12641205Y-11220722D02*
X12631682Y-11211198D01*
X12631682Y-11211198D02*
X12641205Y-11201674D01*
X12641205Y-11201674D02*
X12641205Y-11220722D01*
D12*
X10979000Y-11639000D02*
X11009000Y-11669000D01*
X11009000Y-11639000D02*
X10979000Y-11669000D01*
D11*
X11307872Y-11545484D02*
X11326920Y-11545484D01*
X11326920Y-11545484D02*
X11345967Y-11555008D01*
X11345967Y-11555008D02*
X11355491Y-11564531D01*
X11355491Y-11564531D02*
X11365015Y-11583579D01*
X11365015Y-11583579D02*
X11374539Y-11621674D01*
X11374539Y-11621674D02*
X11374539Y-11669293D01*
X11374539Y-11669293D02*
X11365015Y-11707388D01*
X11365015Y-11707388D02*
X11355491Y-11726436D01*
X11355491Y-11726436D02*
X11345967Y-11735960D01*
X11345967Y-11735960D02*
X11326920Y-11745484D01*
X11326920Y-11745484D02*
X11307872Y-11745484D01*
X11307872Y-11745484D02*
X11288824Y-11735960D01*
X11288824Y-11735960D02*
X11279301Y-11726436D01*
X11279301Y-11726436D02*
X11269777Y-11707388D01*
X11269777Y-11707388D02*
X11260253Y-11669293D01*
X11260253Y-11669293D02*
X11260253Y-11621674D01*
X11260253Y-11621674D02*
X11269777Y-11583579D01*
X11269777Y-11583579D02*
X11279301Y-11564531D01*
X11279301Y-11564531D02*
X11288824Y-11555008D01*
X11288824Y-11555008D02*
X11307872Y-11545484D01*
X11460253Y-11726436D02*
X11469777Y-11735960D01*
X11469777Y-11735960D02*
X11460253Y-11745484D01*
X11460253Y-11745484D02*
X11450729Y-11735960D01*
X11450729Y-11735960D02*
X11460253Y-11726436D01*
X11460253Y-11726436D02*
X11460253Y-11745484D01*
X11536443Y-11545484D02*
X11660253Y-11545484D01*
X11660253Y-11545484D02*
X11593586Y-11621674D01*
X11593586Y-11621674D02*
X11622158Y-11621674D01*
X11622158Y-11621674D02*
X11641205Y-11631198D01*
X11641205Y-11631198D02*
X11650729Y-11640722D01*
X11650729Y-11640722D02*
X11660253Y-11659769D01*
X11660253Y-11659769D02*
X11660253Y-11707388D01*
X11660253Y-11707388D02*
X11650729Y-11726436D01*
X11650729Y-11726436D02*
X11641205Y-11735960D01*
X11641205Y-11735960D02*
X11622158Y-11745484D01*
X11622158Y-11745484D02*
X11565015Y-11745484D01*
X11565015Y-11745484D02*
X11545967Y-11735960D01*
X11545967Y-11735960D02*
X11536443Y-11726436D01*
X11784062Y-11545484D02*
X11803110Y-11545484D01*
X11803110Y-11545484D02*
X11822158Y-11555008D01*
X11822158Y-11555008D02*
X11831682Y-11564531D01*
X11831682Y-11564531D02*
X11841205Y-11583579D01*
X11841205Y-11583579D02*
X11850729Y-11621674D01*
X11850729Y-11621674D02*
X11850729Y-11669293D01*
X11850729Y-11669293D02*
X11841205Y-11707388D01*
X11841205Y-11707388D02*
X11831682Y-11726436D01*
X11831682Y-11726436D02*
X11822158Y-11735960D01*
X11822158Y-11735960D02*
X11803110Y-11745484D01*
X11803110Y-11745484D02*
X11784062Y-11745484D01*
X11784062Y-11745484D02*
X11765015Y-11735960D01*
X11765015Y-11735960D02*
X11755491Y-11726436D01*
X11755491Y-11726436D02*
X11745967Y-11707388D01*
X11745967Y-11707388D02*
X11736443Y-11669293D01*
X11736443Y-11669293D02*
X11736443Y-11621674D01*
X11736443Y-11621674D02*
X11745967Y-11583579D01*
X11745967Y-11583579D02*
X11755491Y-11564531D01*
X11755491Y-11564531D02*
X11765015Y-11555008D01*
X11765015Y-11555008D02*
X11784062Y-11545484D01*
X11974539Y-11545484D02*
X11993586Y-11545484D01*
X11993586Y-11545484D02*
X12012634Y-11555008D01*
X12012634Y-11555008D02*
X12022158Y-11564531D01*
X12022158Y-11564531D02*
X12031682Y-11583579D01*
X12031682Y-11583579D02*
X12041205Y-11621674D01*
X12041205Y-11621674D02*
X12041205Y-11669293D01*
X12041205Y-11669293D02*
X12031682Y-11707388D01*
X12031682Y-11707388D02*
X12022158Y-11726436D01*
X12022158Y-11726436D02*
X12012634Y-11735960D01*
X12012634Y-11735960D02*
X11993586Y-11745484D01*
X11993586Y-11745484D02*
X11974539Y-11745484D01*
X11974539Y-11745484D02*
X11955491Y-11735960D01*
X11955491Y-11735960D02*
X11945967Y-11726436D01*
X11945967Y-11726436D02*
X11936443Y-11707388D01*
X11936443Y-11707388D02*
X11926920Y-11669293D01*
X11926920Y-11669293D02*
X11926920Y-11621674D01*
X11926920Y-11621674D02*
X11936443Y-11583579D01*
X11936443Y-11583579D02*
X11945967Y-11564531D01*
X11945967Y-11564531D02*
X11955491Y-11555008D01*
X11955491Y-11555008D02*
X11974539Y-11545484D01*
X12126920Y-11745484D02*
X12126920Y-11612150D01*
X12126920Y-11631198D02*
X12136443Y-11621674D01*
X12136443Y-11621674D02*
X12155491Y-11612150D01*
X12155491Y-11612150D02*
X12184063Y-11612150D01*
X12184063Y-11612150D02*
X12203110Y-11621674D01*
X12203110Y-11621674D02*
X12212634Y-11640722D01*
X12212634Y-11640722D02*
X12212634Y-11745484D01*
X12212634Y-11640722D02*
X12222158Y-11621674D01*
X12222158Y-11621674D02*
X12241205Y-11612150D01*
X12241205Y-11612150D02*
X12269777Y-11612150D01*
X12269777Y-11612150D02*
X12288824Y-11621674D01*
X12288824Y-11621674D02*
X12298348Y-11640722D01*
X12298348Y-11640722D02*
X12298348Y-11745484D01*
X12393586Y-11745484D02*
X12393586Y-11612150D01*
X12393586Y-11631198D02*
X12403110Y-11621674D01*
X12403110Y-11621674D02*
X12422158Y-11612150D01*
X12422158Y-11612150D02*
X12450729Y-11612150D01*
X12450729Y-11612150D02*
X12469777Y-11621674D01*
X12469777Y-11621674D02*
X12479301Y-11640722D01*
X12479301Y-11640722D02*
X12479301Y-11745484D01*
X12479301Y-11640722D02*
X12488824Y-11621674D01*
X12488824Y-11621674D02*
X12507872Y-11612150D01*
X12507872Y-11612150D02*
X12536443Y-11612150D01*
X12536443Y-11612150D02*
X12555491Y-11621674D01*
X12555491Y-11621674D02*
X12565015Y-11640722D01*
X12565015Y-11640722D02*
X12565015Y-11745484D01*
X12955491Y-11535960D02*
X12784063Y-11793103D01*
X13212634Y-11545484D02*
X13231682Y-11545484D01*
X13231682Y-11545484D02*
X13250729Y-11555008D01*
X13250729Y-11555008D02*
X13260253Y-11564531D01*
X13260253Y-11564531D02*
X13269777Y-11583579D01*
X13269777Y-11583579D02*
X13279301Y-11621674D01*
X13279301Y-11621674D02*
X13279301Y-11669293D01*
X13279301Y-11669293D02*
X13269777Y-11707388D01*
X13269777Y-11707388D02*
X13260253Y-11726436D01*
X13260253Y-11726436D02*
X13250729Y-11735960D01*
X13250729Y-11735960D02*
X13231682Y-11745484D01*
X13231682Y-11745484D02*
X13212634Y-11745484D01*
X13212634Y-11745484D02*
X13193586Y-11735960D01*
X13193586Y-11735960D02*
X13184063Y-11726436D01*
X13184063Y-11726436D02*
X13174539Y-11707388D01*
X13174539Y-11707388D02*
X13165015Y-11669293D01*
X13165015Y-11669293D02*
X13165015Y-11621674D01*
X13165015Y-11621674D02*
X13174539Y-11583579D01*
X13174539Y-11583579D02*
X13184063Y-11564531D01*
X13184063Y-11564531D02*
X13193586Y-11555008D01*
X13193586Y-11555008D02*
X13212634Y-11545484D01*
X13365015Y-11726436D02*
X13374539Y-11735960D01*
X13374539Y-11735960D02*
X13365015Y-11745484D01*
X13365015Y-11745484D02*
X13355491Y-11735960D01*
X13355491Y-11735960D02*
X13365015Y-11726436D01*
X13365015Y-11726436D02*
X13365015Y-11745484D01*
X13498348Y-11545484D02*
X13517396Y-11545484D01*
X13517396Y-11545484D02*
X13536444Y-11555008D01*
X13536444Y-11555008D02*
X13545967Y-11564531D01*
X13545967Y-11564531D02*
X13555491Y-11583579D01*
X13555491Y-11583579D02*
X13565015Y-11621674D01*
X13565015Y-11621674D02*
X13565015Y-11669293D01*
X13565015Y-11669293D02*
X13555491Y-11707388D01*
X13555491Y-11707388D02*
X13545967Y-11726436D01*
X13545967Y-11726436D02*
X13536444Y-11735960D01*
X13536444Y-11735960D02*
X13517396Y-11745484D01*
X13517396Y-11745484D02*
X13498348Y-11745484D01*
X13498348Y-11745484D02*
X13479301Y-11735960D01*
X13479301Y-11735960D02*
X13469777Y-11726436D01*
X13469777Y-11726436D02*
X13460253Y-11707388D01*
X13460253Y-11707388D02*
X13450729Y-11669293D01*
X13450729Y-11669293D02*
X13450729Y-11621674D01*
X13450729Y-11621674D02*
X13460253Y-11583579D01*
X13460253Y-11583579D02*
X13469777Y-11564531D01*
X13469777Y-11564531D02*
X13479301Y-11555008D01*
X13479301Y-11555008D02*
X13498348Y-11545484D01*
X13755491Y-11745484D02*
X13641206Y-11745484D01*
X13698348Y-11745484D02*
X13698348Y-11545484D01*
X13698348Y-11545484D02*
X13679301Y-11574055D01*
X13679301Y-11574055D02*
X13660253Y-11593103D01*
X13660253Y-11593103D02*
X13641206Y-11602627D01*
X13945967Y-11745484D02*
X13831682Y-11745484D01*
X13888825Y-11745484D02*
X13888825Y-11545484D01*
X13888825Y-11545484D02*
X13869777Y-11574055D01*
X13869777Y-11574055D02*
X13850729Y-11593103D01*
X13850729Y-11593103D02*
X13831682Y-11602627D01*
X14060253Y-11631198D02*
X14041206Y-11621674D01*
X14041206Y-11621674D02*
X14031682Y-11612150D01*
X14031682Y-11612150D02*
X14022158Y-11593103D01*
X14022158Y-11593103D02*
X14022158Y-11583579D01*
X14022158Y-11583579D02*
X14031682Y-11564531D01*
X14031682Y-11564531D02*
X14041206Y-11555008D01*
X14041206Y-11555008D02*
X14060253Y-11545484D01*
X14060253Y-11545484D02*
X14098348Y-11545484D01*
X14098348Y-11545484D02*
X14117396Y-11555008D01*
X14117396Y-11555008D02*
X14126920Y-11564531D01*
X14126920Y-11564531D02*
X14136444Y-11583579D01*
X14136444Y-11583579D02*
X14136444Y-11593103D01*
X14136444Y-11593103D02*
X14126920Y-11612150D01*
X14126920Y-11612150D02*
X14117396Y-11621674D01*
X14117396Y-11621674D02*
X14098348Y-11631198D01*
X14098348Y-11631198D02*
X14060253Y-11631198D01*
X14060253Y-11631198D02*
X14041206Y-11640722D01*
X14041206Y-11640722D02*
X14031682Y-11650246D01*
X14031682Y-11650246D02*
X14022158Y-11669293D01*
X14022158Y-11669293D02*
X14022158Y-11707388D01*
X14022158Y-11707388D02*
X14031682Y-11726436D01*
X14031682Y-11726436D02*
X14041206Y-11735960D01*
X14041206Y-11735960D02*
X14060253Y-11745484D01*
X14060253Y-11745484D02*
X14098348Y-11745484D01*
X14098348Y-11745484D02*
X14117396Y-11735960D01*
X14117396Y-11735960D02*
X14126920Y-11726436D01*
X14126920Y-11726436D02*
X14136444Y-11707388D01*
X14136444Y-11707388D02*
X14136444Y-11669293D01*
X14136444Y-11669293D02*
X14126920Y-11650246D01*
X14126920Y-11650246D02*
X14117396Y-11640722D01*
X14117396Y-11640722D02*
X14098348Y-11631198D01*
X14212634Y-11545484D02*
X14212634Y-11583579D01*
X14288825Y-11545484D02*
X14288825Y-11583579D01*
X14584063Y-11821674D02*
X14574539Y-11812150D01*
X14574539Y-11812150D02*
X14555491Y-11783579D01*
X14555491Y-11783579D02*
X14545968Y-11764531D01*
X14545968Y-11764531D02*
X14536444Y-11735960D01*
X14536444Y-11735960D02*
X14526920Y-11688341D01*
X14526920Y-11688341D02*
X14526920Y-11650246D01*
X14526920Y-11650246D02*
X14536444Y-11602627D01*
X14536444Y-11602627D02*
X14545968Y-11574055D01*
X14545968Y-11574055D02*
X14555491Y-11555008D01*
X14555491Y-11555008D02*
X14574539Y-11526436D01*
X14574539Y-11526436D02*
X14584063Y-11516912D01*
X14650729Y-11564531D02*
X14660253Y-11555008D01*
X14660253Y-11555008D02*
X14679301Y-11545484D01*
X14679301Y-11545484D02*
X14726920Y-11545484D01*
X14726920Y-11545484D02*
X14745968Y-11555008D01*
X14745968Y-11555008D02*
X14755491Y-11564531D01*
X14755491Y-11564531D02*
X14765015Y-11583579D01*
X14765015Y-11583579D02*
X14765015Y-11602627D01*
X14765015Y-11602627D02*
X14755491Y-11631198D01*
X14755491Y-11631198D02*
X14641206Y-11745484D01*
X14641206Y-11745484D02*
X14765015Y-11745484D01*
X14945968Y-11545484D02*
X14850729Y-11545484D01*
X14850729Y-11545484D02*
X14841206Y-11640722D01*
X14841206Y-11640722D02*
X14850729Y-11631198D01*
X14850729Y-11631198D02*
X14869777Y-11621674D01*
X14869777Y-11621674D02*
X14917396Y-11621674D01*
X14917396Y-11621674D02*
X14936444Y-11631198D01*
X14936444Y-11631198D02*
X14945968Y-11640722D01*
X14945968Y-11640722D02*
X14955491Y-11659769D01*
X14955491Y-11659769D02*
X14955491Y-11707388D01*
X14955491Y-11707388D02*
X14945968Y-11726436D01*
X14945968Y-11726436D02*
X14936444Y-11735960D01*
X14936444Y-11735960D02*
X14917396Y-11745484D01*
X14917396Y-11745484D02*
X14869777Y-11745484D01*
X14869777Y-11745484D02*
X14850729Y-11735960D01*
X14850729Y-11735960D02*
X14841206Y-11726436D01*
X15079301Y-11545484D02*
X15098349Y-11545484D01*
X15098349Y-11545484D02*
X15117396Y-11555008D01*
X15117396Y-11555008D02*
X15126920Y-11564531D01*
X15126920Y-11564531D02*
X15136444Y-11583579D01*
X15136444Y-11583579D02*
X15145968Y-11621674D01*
X15145968Y-11621674D02*
X15145968Y-11669293D01*
X15145968Y-11669293D02*
X15136444Y-11707388D01*
X15136444Y-11707388D02*
X15126920Y-11726436D01*
X15126920Y-11726436D02*
X15117396Y-11735960D01*
X15117396Y-11735960D02*
X15098349Y-11745484D01*
X15098349Y-11745484D02*
X15079301Y-11745484D01*
X15079301Y-11745484D02*
X15060253Y-11735960D01*
X15060253Y-11735960D02*
X15050729Y-11726436D01*
X15050729Y-11726436D02*
X15041206Y-11707388D01*
X15041206Y-11707388D02*
X15031682Y-11669293D01*
X15031682Y-11669293D02*
X15031682Y-11621674D01*
X15031682Y-11621674D02*
X15041206Y-11583579D01*
X15041206Y-11583579D02*
X15050729Y-11564531D01*
X15050729Y-11564531D02*
X15060253Y-11555008D01*
X15060253Y-11555008D02*
X15079301Y-11545484D01*
X15384063Y-11745484D02*
X15384063Y-11545484D01*
X15469777Y-11745484D02*
X15469777Y-11640722D01*
X15469777Y-11640722D02*
X15460253Y-11621674D01*
X15460253Y-11621674D02*
X15441206Y-11612150D01*
X15441206Y-11612150D02*
X15412634Y-11612150D01*
X15412634Y-11612150D02*
X15393587Y-11621674D01*
X15393587Y-11621674D02*
X15384063Y-11631198D01*
X15593587Y-11745484D02*
X15574539Y-11735960D01*
X15574539Y-11735960D02*
X15565015Y-11726436D01*
X15565015Y-11726436D02*
X15555491Y-11707388D01*
X15555491Y-11707388D02*
X15555491Y-11650246D01*
X15555491Y-11650246D02*
X15565015Y-11631198D01*
X15565015Y-11631198D02*
X15574539Y-11621674D01*
X15574539Y-11621674D02*
X15593587Y-11612150D01*
X15593587Y-11612150D02*
X15622158Y-11612150D01*
X15622158Y-11612150D02*
X15641206Y-11621674D01*
X15641206Y-11621674D02*
X15650730Y-11631198D01*
X15650730Y-11631198D02*
X15660253Y-11650246D01*
X15660253Y-11650246D02*
X15660253Y-11707388D01*
X15660253Y-11707388D02*
X15650730Y-11726436D01*
X15650730Y-11726436D02*
X15641206Y-11735960D01*
X15641206Y-11735960D02*
X15622158Y-11745484D01*
X15622158Y-11745484D02*
X15593587Y-11745484D01*
X15774539Y-11745484D02*
X15755491Y-11735960D01*
X15755491Y-11735960D02*
X15745968Y-11716912D01*
X15745968Y-11716912D02*
X15745968Y-11545484D01*
X15926920Y-11735960D02*
X15907872Y-11745484D01*
X15907872Y-11745484D02*
X15869777Y-11745484D01*
X15869777Y-11745484D02*
X15850730Y-11735960D01*
X15850730Y-11735960D02*
X15841206Y-11716912D01*
X15841206Y-11716912D02*
X15841206Y-11640722D01*
X15841206Y-11640722D02*
X15850730Y-11621674D01*
X15850730Y-11621674D02*
X15869777Y-11612150D01*
X15869777Y-11612150D02*
X15907872Y-11612150D01*
X15907872Y-11612150D02*
X15926920Y-11621674D01*
X15926920Y-11621674D02*
X15936444Y-11640722D01*
X15936444Y-11640722D02*
X15936444Y-11659769D01*
X15936444Y-11659769D02*
X15841206Y-11678817D01*
X16012634Y-11735960D02*
X16031682Y-11745484D01*
X16031682Y-11745484D02*
X16069777Y-11745484D01*
X16069777Y-11745484D02*
X16088825Y-11735960D01*
X16088825Y-11735960D02*
X16098349Y-11716912D01*
X16098349Y-11716912D02*
X16098349Y-11707388D01*
X16098349Y-11707388D02*
X16088825Y-11688341D01*
X16088825Y-11688341D02*
X16069777Y-11678817D01*
X16069777Y-11678817D02*
X16041206Y-11678817D01*
X16041206Y-11678817D02*
X16022158Y-11669293D01*
X16022158Y-11669293D02*
X16012634Y-11650246D01*
X16012634Y-11650246D02*
X16012634Y-11640722D01*
X16012634Y-11640722D02*
X16022158Y-11621674D01*
X16022158Y-11621674D02*
X16041206Y-11612150D01*
X16041206Y-11612150D02*
X16069777Y-11612150D01*
X16069777Y-11612150D02*
X16088825Y-11621674D01*
X16165015Y-11821674D02*
X16174539Y-11812150D01*
X16174539Y-11812150D02*
X16193587Y-11783579D01*
X16193587Y-11783579D02*
X16203111Y-11764531D01*
X16203111Y-11764531D02*
X16212634Y-11735960D01*
X16212634Y-11735960D02*
X16222158Y-11688341D01*
X16222158Y-11688341D02*
X16222158Y-11650246D01*
X16222158Y-11650246D02*
X16212634Y-11602627D01*
X16212634Y-11602627D02*
X16203111Y-11574055D01*
X16203111Y-11574055D02*
X16193587Y-11555008D01*
X16193587Y-11555008D02*
X16174539Y-11526436D01*
X16174539Y-11526436D02*
X16165015Y-11516912D01*
D10*
X11009000Y-11918000D02*
G75*
G03*
X11009000Y-11918000I-50000J0D01*
G01*
D11*
X11374539Y-12009484D02*
X11260253Y-12009484D01*
X11317396Y-12009484D02*
X11317396Y-11809484D01*
X11317396Y-11809484D02*
X11298348Y-11838055D01*
X11298348Y-11838055D02*
X11279301Y-11857103D01*
X11279301Y-11857103D02*
X11260253Y-11866627D01*
X11460253Y-11990436D02*
X11469777Y-11999960D01*
X11469777Y-11999960D02*
X11460253Y-12009484D01*
X11460253Y-12009484D02*
X11450729Y-11999960D01*
X11450729Y-11999960D02*
X11460253Y-11990436D01*
X11460253Y-11990436D02*
X11460253Y-12009484D01*
X11593586Y-11809484D02*
X11612634Y-11809484D01*
X11612634Y-11809484D02*
X11631682Y-11819008D01*
X11631682Y-11819008D02*
X11641205Y-11828531D01*
X11641205Y-11828531D02*
X11650729Y-11847579D01*
X11650729Y-11847579D02*
X11660253Y-11885674D01*
X11660253Y-11885674D02*
X11660253Y-11933293D01*
X11660253Y-11933293D02*
X11650729Y-11971388D01*
X11650729Y-11971388D02*
X11641205Y-11990436D01*
X11641205Y-11990436D02*
X11631682Y-11999960D01*
X11631682Y-11999960D02*
X11612634Y-12009484D01*
X11612634Y-12009484D02*
X11593586Y-12009484D01*
X11593586Y-12009484D02*
X11574539Y-11999960D01*
X11574539Y-11999960D02*
X11565015Y-11990436D01*
X11565015Y-11990436D02*
X11555491Y-11971388D01*
X11555491Y-11971388D02*
X11545967Y-11933293D01*
X11545967Y-11933293D02*
X11545967Y-11885674D01*
X11545967Y-11885674D02*
X11555491Y-11847579D01*
X11555491Y-11847579D02*
X11565015Y-11828531D01*
X11565015Y-11828531D02*
X11574539Y-11819008D01*
X11574539Y-11819008D02*
X11593586Y-11809484D01*
X11784062Y-11809484D02*
X11803110Y-11809484D01*
X11803110Y-11809484D02*
X11822158Y-11819008D01*
X11822158Y-11819008D02*
X11831682Y-11828531D01*
X11831682Y-11828531D02*
X11841205Y-11847579D01*
X11841205Y-11847579D02*
X11850729Y-11885674D01*
X11850729Y-11885674D02*
X11850729Y-11933293D01*
X11850729Y-11933293D02*
X11841205Y-11971388D01*
X11841205Y-11971388D02*
X11831682Y-11990436D01*
X11831682Y-11990436D02*
X11822158Y-11999960D01*
X11822158Y-11999960D02*
X11803110Y-12009484D01*
X11803110Y-12009484D02*
X11784062Y-12009484D01*
X11784062Y-12009484D02*
X11765015Y-11999960D01*
X11765015Y-11999960D02*
X11755491Y-11990436D01*
X11755491Y-11990436D02*
X11745967Y-11971388D01*
X11745967Y-11971388D02*
X11736443Y-11933293D01*
X11736443Y-11933293D02*
X11736443Y-11885674D01*
X11736443Y-11885674D02*
X11745967Y-11847579D01*
X11745967Y-11847579D02*
X11755491Y-11828531D01*
X11755491Y-11828531D02*
X11765015Y-11819008D01*
X11765015Y-11819008D02*
X11784062Y-11809484D01*
X11974539Y-11809484D02*
X11993586Y-11809484D01*
X11993586Y-11809484D02*
X12012634Y-11819008D01*
X12012634Y-11819008D02*
X12022158Y-11828531D01*
X12022158Y-11828531D02*
X12031682Y-11847579D01*
X12031682Y-11847579D02*
X12041205Y-11885674D01*
X12041205Y-11885674D02*
X12041205Y-11933293D01*
X12041205Y-11933293D02*
X12031682Y-11971388D01*
X12031682Y-11971388D02*
X12022158Y-11990436D01*
X12022158Y-11990436D02*
X12012634Y-11999960D01*
X12012634Y-11999960D02*
X11993586Y-12009484D01*
X11993586Y-12009484D02*
X11974539Y-12009484D01*
X11974539Y-12009484D02*
X11955491Y-11999960D01*
X11955491Y-11999960D02*
X11945967Y-11990436D01*
X11945967Y-11990436D02*
X11936443Y-11971388D01*
X11936443Y-11971388D02*
X11926920Y-11933293D01*
X11926920Y-11933293D02*
X11926920Y-11885674D01*
X11926920Y-11885674D02*
X11936443Y-11847579D01*
X11936443Y-11847579D02*
X11945967Y-11828531D01*
X11945967Y-11828531D02*
X11955491Y-11819008D01*
X11955491Y-11819008D02*
X11974539Y-11809484D01*
X12126920Y-12009484D02*
X12126920Y-11876150D01*
X12126920Y-11895198D02*
X12136443Y-11885674D01*
X12136443Y-11885674D02*
X12155491Y-11876150D01*
X12155491Y-11876150D02*
X12184063Y-11876150D01*
X12184063Y-11876150D02*
X12203110Y-11885674D01*
X12203110Y-11885674D02*
X12212634Y-11904722D01*
X12212634Y-11904722D02*
X12212634Y-12009484D01*
X12212634Y-11904722D02*
X12222158Y-11885674D01*
X12222158Y-11885674D02*
X12241205Y-11876150D01*
X12241205Y-11876150D02*
X12269777Y-11876150D01*
X12269777Y-11876150D02*
X12288824Y-11885674D01*
X12288824Y-11885674D02*
X12298348Y-11904722D01*
X12298348Y-11904722D02*
X12298348Y-12009484D01*
X12393586Y-12009484D02*
X12393586Y-11876150D01*
X12393586Y-11895198D02*
X12403110Y-11885674D01*
X12403110Y-11885674D02*
X12422158Y-11876150D01*
X12422158Y-11876150D02*
X12450729Y-11876150D01*
X12450729Y-11876150D02*
X12469777Y-11885674D01*
X12469777Y-11885674D02*
X12479301Y-11904722D01*
X12479301Y-11904722D02*
X12479301Y-12009484D01*
X12479301Y-11904722D02*
X12488824Y-11885674D01*
X12488824Y-11885674D02*
X12507872Y-11876150D01*
X12507872Y-11876150D02*
X12536443Y-11876150D01*
X12536443Y-11876150D02*
X12555491Y-11885674D01*
X12555491Y-11885674D02*
X12565015Y-11904722D01*
X12565015Y-11904722D02*
X12565015Y-12009484D01*
X12955491Y-11799960D02*
X12784063Y-12057103D01*
X13212634Y-11809484D02*
X13231682Y-11809484D01*
X13231682Y-11809484D02*
X13250729Y-11819008D01*
X13250729Y-11819008D02*
X13260253Y-11828531D01*
X13260253Y-11828531D02*
X13269777Y-11847579D01*
X13269777Y-11847579D02*
X13279301Y-11885674D01*
X13279301Y-11885674D02*
X13279301Y-11933293D01*
X13279301Y-11933293D02*
X13269777Y-11971388D01*
X13269777Y-11971388D02*
X13260253Y-11990436D01*
X13260253Y-11990436D02*
X13250729Y-11999960D01*
X13250729Y-11999960D02*
X13231682Y-12009484D01*
X13231682Y-12009484D02*
X13212634Y-12009484D01*
X13212634Y-12009484D02*
X13193586Y-11999960D01*
X13193586Y-11999960D02*
X13184063Y-11990436D01*
X13184063Y-11990436D02*
X13174539Y-11971388D01*
X13174539Y-11971388D02*
X13165015Y-11933293D01*
X13165015Y-11933293D02*
X13165015Y-11885674D01*
X13165015Y-11885674D02*
X13174539Y-11847579D01*
X13174539Y-11847579D02*
X13184063Y-11828531D01*
X13184063Y-11828531D02*
X13193586Y-11819008D01*
X13193586Y-11819008D02*
X13212634Y-11809484D01*
X13365015Y-11990436D02*
X13374539Y-11999960D01*
X13374539Y-11999960D02*
X13365015Y-12009484D01*
X13365015Y-12009484D02*
X13355491Y-11999960D01*
X13355491Y-11999960D02*
X13365015Y-11990436D01*
X13365015Y-11990436D02*
X13365015Y-12009484D01*
X13498348Y-11809484D02*
X13517396Y-11809484D01*
X13517396Y-11809484D02*
X13536444Y-11819008D01*
X13536444Y-11819008D02*
X13545967Y-11828531D01*
X13545967Y-11828531D02*
X13555491Y-11847579D01*
X13555491Y-11847579D02*
X13565015Y-11885674D01*
X13565015Y-11885674D02*
X13565015Y-11933293D01*
X13565015Y-11933293D02*
X13555491Y-11971388D01*
X13555491Y-11971388D02*
X13545967Y-11990436D01*
X13545967Y-11990436D02*
X13536444Y-11999960D01*
X13536444Y-11999960D02*
X13517396Y-12009484D01*
X13517396Y-12009484D02*
X13498348Y-12009484D01*
X13498348Y-12009484D02*
X13479301Y-11999960D01*
X13479301Y-11999960D02*
X13469777Y-11990436D01*
X13469777Y-11990436D02*
X13460253Y-11971388D01*
X13460253Y-11971388D02*
X13450729Y-11933293D01*
X13450729Y-11933293D02*
X13450729Y-11885674D01*
X13450729Y-11885674D02*
X13460253Y-11847579D01*
X13460253Y-11847579D02*
X13469777Y-11828531D01*
X13469777Y-11828531D02*
X13479301Y-11819008D01*
X13479301Y-11819008D02*
X13498348Y-11809484D01*
X13631682Y-11809484D02*
X13755491Y-11809484D01*
X13755491Y-11809484D02*
X13688825Y-11885674D01*
X13688825Y-11885674D02*
X13717396Y-11885674D01*
X13717396Y-11885674D02*
X13736444Y-11895198D01*
X13736444Y-11895198D02*
X13745967Y-11904722D01*
X13745967Y-11904722D02*
X13755491Y-11923769D01*
X13755491Y-11923769D02*
X13755491Y-11971388D01*
X13755491Y-11971388D02*
X13745967Y-11990436D01*
X13745967Y-11990436D02*
X13736444Y-11999960D01*
X13736444Y-11999960D02*
X13717396Y-12009484D01*
X13717396Y-12009484D02*
X13660253Y-12009484D01*
X13660253Y-12009484D02*
X13641206Y-11999960D01*
X13641206Y-11999960D02*
X13631682Y-11990436D01*
X13850729Y-12009484D02*
X13888825Y-12009484D01*
X13888825Y-12009484D02*
X13907872Y-11999960D01*
X13907872Y-11999960D02*
X13917396Y-11990436D01*
X13917396Y-11990436D02*
X13936444Y-11961865D01*
X13936444Y-11961865D02*
X13945967Y-11923769D01*
X13945967Y-11923769D02*
X13945967Y-11847579D01*
X13945967Y-11847579D02*
X13936444Y-11828531D01*
X13936444Y-11828531D02*
X13926920Y-11819008D01*
X13926920Y-11819008D02*
X13907872Y-11809484D01*
X13907872Y-11809484D02*
X13869777Y-11809484D01*
X13869777Y-11809484D02*
X13850729Y-11819008D01*
X13850729Y-11819008D02*
X13841206Y-11828531D01*
X13841206Y-11828531D02*
X13831682Y-11847579D01*
X13831682Y-11847579D02*
X13831682Y-11895198D01*
X13831682Y-11895198D02*
X13841206Y-11914246D01*
X13841206Y-11914246D02*
X13850729Y-11923769D01*
X13850729Y-11923769D02*
X13869777Y-11933293D01*
X13869777Y-11933293D02*
X13907872Y-11933293D01*
X13907872Y-11933293D02*
X13926920Y-11923769D01*
X13926920Y-11923769D02*
X13936444Y-11914246D01*
X13936444Y-11914246D02*
X13945967Y-11895198D01*
X14117396Y-11876150D02*
X14117396Y-12009484D01*
X14069777Y-11799960D02*
X14022158Y-11942817D01*
X14022158Y-11942817D02*
X14145967Y-11942817D01*
X14212634Y-11809484D02*
X14212634Y-11847579D01*
X14288825Y-11809484D02*
X14288825Y-11847579D01*
X14584063Y-12085674D02*
X14574539Y-12076150D01*
X14574539Y-12076150D02*
X14555491Y-12047579D01*
X14555491Y-12047579D02*
X14545968Y-12028531D01*
X14545968Y-12028531D02*
X14536444Y-11999960D01*
X14536444Y-11999960D02*
X14526920Y-11952341D01*
X14526920Y-11952341D02*
X14526920Y-11914246D01*
X14526920Y-11914246D02*
X14536444Y-11866627D01*
X14536444Y-11866627D02*
X14545968Y-11838055D01*
X14545968Y-11838055D02*
X14555491Y-11819008D01*
X14555491Y-11819008D02*
X14574539Y-11790436D01*
X14574539Y-11790436D02*
X14584063Y-11780912D01*
X14650729Y-11828531D02*
X14660253Y-11819008D01*
X14660253Y-11819008D02*
X14679301Y-11809484D01*
X14679301Y-11809484D02*
X14726920Y-11809484D01*
X14726920Y-11809484D02*
X14745968Y-11819008D01*
X14745968Y-11819008D02*
X14755491Y-11828531D01*
X14755491Y-11828531D02*
X14765015Y-11847579D01*
X14765015Y-11847579D02*
X14765015Y-11866627D01*
X14765015Y-11866627D02*
X14755491Y-11895198D01*
X14755491Y-11895198D02*
X14641206Y-12009484D01*
X14641206Y-12009484D02*
X14765015Y-12009484D01*
X15003110Y-12009484D02*
X15003110Y-11809484D01*
X15088825Y-12009484D02*
X15088825Y-11904722D01*
X15088825Y-11904722D02*
X15079301Y-11885674D01*
X15079301Y-11885674D02*
X15060253Y-11876150D01*
X15060253Y-11876150D02*
X15031682Y-11876150D01*
X15031682Y-11876150D02*
X15012634Y-11885674D01*
X15012634Y-11885674D02*
X15003110Y-11895198D01*
X15212634Y-12009484D02*
X15193587Y-11999960D01*
X15193587Y-11999960D02*
X15184063Y-11990436D01*
X15184063Y-11990436D02*
X15174539Y-11971388D01*
X15174539Y-11971388D02*
X15174539Y-11914246D01*
X15174539Y-11914246D02*
X15184063Y-11895198D01*
X15184063Y-11895198D02*
X15193587Y-11885674D01*
X15193587Y-11885674D02*
X15212634Y-11876150D01*
X15212634Y-11876150D02*
X15241206Y-11876150D01*
X15241206Y-11876150D02*
X15260253Y-11885674D01*
X15260253Y-11885674D02*
X15269777Y-11895198D01*
X15269777Y-11895198D02*
X15279301Y-11914246D01*
X15279301Y-11914246D02*
X15279301Y-11971388D01*
X15279301Y-11971388D02*
X15269777Y-11990436D01*
X15269777Y-11990436D02*
X15260253Y-11999960D01*
X15260253Y-11999960D02*
X15241206Y-12009484D01*
X15241206Y-12009484D02*
X15212634Y-12009484D01*
X15393587Y-12009484D02*
X15374539Y-11999960D01*
X15374539Y-11999960D02*
X15365015Y-11980912D01*
X15365015Y-11980912D02*
X15365015Y-11809484D01*
X15545968Y-11999960D02*
X15526920Y-12009484D01*
X15526920Y-12009484D02*
X15488825Y-12009484D01*
X15488825Y-12009484D02*
X15469777Y-11999960D01*
X15469777Y-11999960D02*
X15460253Y-11980912D01*
X15460253Y-11980912D02*
X15460253Y-11904722D01*
X15460253Y-11904722D02*
X15469777Y-11885674D01*
X15469777Y-11885674D02*
X15488825Y-11876150D01*
X15488825Y-11876150D02*
X15526920Y-11876150D01*
X15526920Y-11876150D02*
X15545968Y-11885674D01*
X15545968Y-11885674D02*
X15555491Y-11904722D01*
X15555491Y-11904722D02*
X15555491Y-11923769D01*
X15555491Y-11923769D02*
X15460253Y-11942817D01*
X15631682Y-11999960D02*
X15650730Y-12009484D01*
X15650730Y-12009484D02*
X15688825Y-12009484D01*
X15688825Y-12009484D02*
X15707872Y-11999960D01*
X15707872Y-11999960D02*
X15717396Y-11980912D01*
X15717396Y-11980912D02*
X15717396Y-11971388D01*
X15717396Y-11971388D02*
X15707872Y-11952341D01*
X15707872Y-11952341D02*
X15688825Y-11942817D01*
X15688825Y-11942817D02*
X15660253Y-11942817D01*
X15660253Y-11942817D02*
X15641206Y-11933293D01*
X15641206Y-11933293D02*
X15631682Y-11914246D01*
X15631682Y-11914246D02*
X15631682Y-11904722D01*
X15631682Y-11904722D02*
X15641206Y-11885674D01*
X15641206Y-11885674D02*
X15660253Y-11876150D01*
X15660253Y-11876150D02*
X15688825Y-11876150D01*
X15688825Y-11876150D02*
X15707872Y-11885674D01*
X15784063Y-12085674D02*
X15793587Y-12076150D01*
X15793587Y-12076150D02*
X15812634Y-12047579D01*
X15812634Y-12047579D02*
X15822158Y-12028531D01*
X15822158Y-12028531D02*
X15831682Y-11999960D01*
X15831682Y-11999960D02*
X15841206Y-11952341D01*
X15841206Y-11952341D02*
X15841206Y-11914246D01*
X15841206Y-11914246D02*
X15831682Y-11866627D01*
X15831682Y-11866627D02*
X15822158Y-11838055D01*
X15822158Y-11838055D02*
X15812634Y-11819008D01*
X15812634Y-11819008D02*
X15793587Y-11790436D01*
X15793587Y-11790436D02*
X15784063Y-11780912D01*
X10909000Y-12082000D02*
X10909000Y-12282000D01*
X10809000Y-12182000D02*
X11009000Y-12182000D01*
X11250729Y-12073484D02*
X11374539Y-12073484D01*
X11374539Y-12073484D02*
X11307872Y-12149674D01*
X11307872Y-12149674D02*
X11336443Y-12149674D01*
X11336443Y-12149674D02*
X11355491Y-12159198D01*
X11355491Y-12159198D02*
X11365015Y-12168722D01*
X11365015Y-12168722D02*
X11374539Y-12187769D01*
X11374539Y-12187769D02*
X11374539Y-12235388D01*
X11374539Y-12235388D02*
X11365015Y-12254436D01*
X11365015Y-12254436D02*
X11355491Y-12263960D01*
X11355491Y-12263960D02*
X11336443Y-12273484D01*
X11336443Y-12273484D02*
X11279301Y-12273484D01*
X11279301Y-12273484D02*
X11260253Y-12263960D01*
X11260253Y-12263960D02*
X11250729Y-12254436D01*
X11460253Y-12254436D02*
X11469777Y-12263960D01*
X11469777Y-12263960D02*
X11460253Y-12273484D01*
X11460253Y-12273484D02*
X11450729Y-12263960D01*
X11450729Y-12263960D02*
X11460253Y-12254436D01*
X11460253Y-12254436D02*
X11460253Y-12273484D01*
X11545967Y-12092531D02*
X11555491Y-12083008D01*
X11555491Y-12083008D02*
X11574539Y-12073484D01*
X11574539Y-12073484D02*
X11622158Y-12073484D01*
X11622158Y-12073484D02*
X11641205Y-12083008D01*
X11641205Y-12083008D02*
X11650729Y-12092531D01*
X11650729Y-12092531D02*
X11660253Y-12111579D01*
X11660253Y-12111579D02*
X11660253Y-12130627D01*
X11660253Y-12130627D02*
X11650729Y-12159198D01*
X11650729Y-12159198D02*
X11536443Y-12273484D01*
X11536443Y-12273484D02*
X11660253Y-12273484D01*
X11784062Y-12073484D02*
X11803110Y-12073484D01*
X11803110Y-12073484D02*
X11822158Y-12083008D01*
X11822158Y-12083008D02*
X11831682Y-12092531D01*
X11831682Y-12092531D02*
X11841205Y-12111579D01*
X11841205Y-12111579D02*
X11850729Y-12149674D01*
X11850729Y-12149674D02*
X11850729Y-12197293D01*
X11850729Y-12197293D02*
X11841205Y-12235388D01*
X11841205Y-12235388D02*
X11831682Y-12254436D01*
X11831682Y-12254436D02*
X11822158Y-12263960D01*
X11822158Y-12263960D02*
X11803110Y-12273484D01*
X11803110Y-12273484D02*
X11784062Y-12273484D01*
X11784062Y-12273484D02*
X11765015Y-12263960D01*
X11765015Y-12263960D02*
X11755491Y-12254436D01*
X11755491Y-12254436D02*
X11745967Y-12235388D01*
X11745967Y-12235388D02*
X11736443Y-12197293D01*
X11736443Y-12197293D02*
X11736443Y-12149674D01*
X11736443Y-12149674D02*
X11745967Y-12111579D01*
X11745967Y-12111579D02*
X11755491Y-12092531D01*
X11755491Y-12092531D02*
X11765015Y-12083008D01*
X11765015Y-12083008D02*
X11784062Y-12073484D01*
X11974539Y-12073484D02*
X11993586Y-12073484D01*
X11993586Y-12073484D02*
X12012634Y-12083008D01*
X12012634Y-12083008D02*
X12022158Y-12092531D01*
X12022158Y-12092531D02*
X12031682Y-12111579D01*
X12031682Y-12111579D02*
X12041205Y-12149674D01*
X12041205Y-12149674D02*
X12041205Y-12197293D01*
X12041205Y-12197293D02*
X12031682Y-12235388D01*
X12031682Y-12235388D02*
X12022158Y-12254436D01*
X12022158Y-12254436D02*
X12012634Y-12263960D01*
X12012634Y-12263960D02*
X11993586Y-12273484D01*
X11993586Y-12273484D02*
X11974539Y-12273484D01*
X11974539Y-12273484D02*
X11955491Y-12263960D01*
X11955491Y-12263960D02*
X11945967Y-12254436D01*
X11945967Y-12254436D02*
X11936443Y-12235388D01*
X11936443Y-12235388D02*
X11926920Y-12197293D01*
X11926920Y-12197293D02*
X11926920Y-12149674D01*
X11926920Y-12149674D02*
X11936443Y-12111579D01*
X11936443Y-12111579D02*
X11945967Y-12092531D01*
X11945967Y-12092531D02*
X11955491Y-12083008D01*
X11955491Y-12083008D02*
X11974539Y-12073484D01*
X12126920Y-12273484D02*
X12126920Y-12140150D01*
X12126920Y-12159198D02*
X12136443Y-12149674D01*
X12136443Y-12149674D02*
X12155491Y-12140150D01*
X12155491Y-12140150D02*
X12184063Y-12140150D01*
X12184063Y-12140150D02*
X12203110Y-12149674D01*
X12203110Y-12149674D02*
X12212634Y-12168722D01*
X12212634Y-12168722D02*
X12212634Y-12273484D01*
X12212634Y-12168722D02*
X12222158Y-12149674D01*
X12222158Y-12149674D02*
X12241205Y-12140150D01*
X12241205Y-12140150D02*
X12269777Y-12140150D01*
X12269777Y-12140150D02*
X12288824Y-12149674D01*
X12288824Y-12149674D02*
X12298348Y-12168722D01*
X12298348Y-12168722D02*
X12298348Y-12273484D01*
X12393586Y-12273484D02*
X12393586Y-12140150D01*
X12393586Y-12159198D02*
X12403110Y-12149674D01*
X12403110Y-12149674D02*
X12422158Y-12140150D01*
X12422158Y-12140150D02*
X12450729Y-12140150D01*
X12450729Y-12140150D02*
X12469777Y-12149674D01*
X12469777Y-12149674D02*
X12479301Y-12168722D01*
X12479301Y-12168722D02*
X12479301Y-12273484D01*
X12479301Y-12168722D02*
X12488824Y-12149674D01*
X12488824Y-12149674D02*
X12507872Y-12140150D01*
X12507872Y-12140150D02*
X12536443Y-12140150D01*
X12536443Y-12140150D02*
X12555491Y-12149674D01*
X12555491Y-12149674D02*
X12565015Y-12168722D01*
X12565015Y-12168722D02*
X12565015Y-12273484D01*
X12955491Y-12063960D02*
X12784063Y-12321103D01*
X13212634Y-12073484D02*
X13231682Y-12073484D01*
X13231682Y-12073484D02*
X13250729Y-12083008D01*
X13250729Y-12083008D02*
X13260253Y-12092531D01*
X13260253Y-12092531D02*
X13269777Y-12111579D01*
X13269777Y-12111579D02*
X13279301Y-12149674D01*
X13279301Y-12149674D02*
X13279301Y-12197293D01*
X13279301Y-12197293D02*
X13269777Y-12235388D01*
X13269777Y-12235388D02*
X13260253Y-12254436D01*
X13260253Y-12254436D02*
X13250729Y-12263960D01*
X13250729Y-12263960D02*
X13231682Y-12273484D01*
X13231682Y-12273484D02*
X13212634Y-12273484D01*
X13212634Y-12273484D02*
X13193586Y-12263960D01*
X13193586Y-12263960D02*
X13184063Y-12254436D01*
X13184063Y-12254436D02*
X13174539Y-12235388D01*
X13174539Y-12235388D02*
X13165015Y-12197293D01*
X13165015Y-12197293D02*
X13165015Y-12149674D01*
X13165015Y-12149674D02*
X13174539Y-12111579D01*
X13174539Y-12111579D02*
X13184063Y-12092531D01*
X13184063Y-12092531D02*
X13193586Y-12083008D01*
X13193586Y-12083008D02*
X13212634Y-12073484D01*
X13365015Y-12254436D02*
X13374539Y-12263960D01*
X13374539Y-12263960D02*
X13365015Y-12273484D01*
X13365015Y-12273484D02*
X13355491Y-12263960D01*
X13355491Y-12263960D02*
X13365015Y-12254436D01*
X13365015Y-12254436D02*
X13365015Y-12273484D01*
X13565015Y-12273484D02*
X13450729Y-12273484D01*
X13507872Y-12273484D02*
X13507872Y-12073484D01*
X13507872Y-12073484D02*
X13488825Y-12102055D01*
X13488825Y-12102055D02*
X13469777Y-12121103D01*
X13469777Y-12121103D02*
X13450729Y-12130627D01*
X13641206Y-12092531D02*
X13650729Y-12083008D01*
X13650729Y-12083008D02*
X13669777Y-12073484D01*
X13669777Y-12073484D02*
X13717396Y-12073484D01*
X13717396Y-12073484D02*
X13736444Y-12083008D01*
X13736444Y-12083008D02*
X13745967Y-12092531D01*
X13745967Y-12092531D02*
X13755491Y-12111579D01*
X13755491Y-12111579D02*
X13755491Y-12130627D01*
X13755491Y-12130627D02*
X13745967Y-12159198D01*
X13745967Y-12159198D02*
X13631682Y-12273484D01*
X13631682Y-12273484D02*
X13755491Y-12273484D01*
X13926920Y-12073484D02*
X13888825Y-12073484D01*
X13888825Y-12073484D02*
X13869777Y-12083008D01*
X13869777Y-12083008D02*
X13860253Y-12092531D01*
X13860253Y-12092531D02*
X13841206Y-12121103D01*
X13841206Y-12121103D02*
X13831682Y-12159198D01*
X13831682Y-12159198D02*
X13831682Y-12235388D01*
X13831682Y-12235388D02*
X13841206Y-12254436D01*
X13841206Y-12254436D02*
X13850729Y-12263960D01*
X13850729Y-12263960D02*
X13869777Y-12273484D01*
X13869777Y-12273484D02*
X13907872Y-12273484D01*
X13907872Y-12273484D02*
X13926920Y-12263960D01*
X13926920Y-12263960D02*
X13936444Y-12254436D01*
X13936444Y-12254436D02*
X13945967Y-12235388D01*
X13945967Y-12235388D02*
X13945967Y-12187769D01*
X13945967Y-12187769D02*
X13936444Y-12168722D01*
X13936444Y-12168722D02*
X13926920Y-12159198D01*
X13926920Y-12159198D02*
X13907872Y-12149674D01*
X13907872Y-12149674D02*
X13869777Y-12149674D01*
X13869777Y-12149674D02*
X13850729Y-12159198D01*
X13850729Y-12159198D02*
X13841206Y-12168722D01*
X13841206Y-12168722D02*
X13831682Y-12187769D01*
X14069777Y-12073484D02*
X14088825Y-12073484D01*
X14088825Y-12073484D02*
X14107872Y-12083008D01*
X14107872Y-12083008D02*
X14117396Y-12092531D01*
X14117396Y-12092531D02*
X14126920Y-12111579D01*
X14126920Y-12111579D02*
X14136444Y-12149674D01*
X14136444Y-12149674D02*
X14136444Y-12197293D01*
X14136444Y-12197293D02*
X14126920Y-12235388D01*
X14126920Y-12235388D02*
X14117396Y-12254436D01*
X14117396Y-12254436D02*
X14107872Y-12263960D01*
X14107872Y-12263960D02*
X14088825Y-12273484D01*
X14088825Y-12273484D02*
X14069777Y-12273484D01*
X14069777Y-12273484D02*
X14050729Y-12263960D01*
X14050729Y-12263960D02*
X14041206Y-12254436D01*
X14041206Y-12254436D02*
X14031682Y-12235388D01*
X14031682Y-12235388D02*
X14022158Y-12197293D01*
X14022158Y-12197293D02*
X14022158Y-12149674D01*
X14022158Y-12149674D02*
X14031682Y-12111579D01*
X14031682Y-12111579D02*
X14041206Y-12092531D01*
X14041206Y-12092531D02*
X14050729Y-12083008D01*
X14050729Y-12083008D02*
X14069777Y-12073484D01*
X14212634Y-12073484D02*
X14212634Y-12111579D01*
X14288825Y-12073484D02*
X14288825Y-12111579D01*
X14584063Y-12349674D02*
X14574539Y-12340150D01*
X14574539Y-12340150D02*
X14555491Y-12311579D01*
X14555491Y-12311579D02*
X14545968Y-12292531D01*
X14545968Y-12292531D02*
X14536444Y-12263960D01*
X14536444Y-12263960D02*
X14526920Y-12216341D01*
X14526920Y-12216341D02*
X14526920Y-12178246D01*
X14526920Y-12178246D02*
X14536444Y-12130627D01*
X14536444Y-12130627D02*
X14545968Y-12102055D01*
X14545968Y-12102055D02*
X14555491Y-12083008D01*
X14555491Y-12083008D02*
X14574539Y-12054436D01*
X14574539Y-12054436D02*
X14584063Y-12044912D01*
X14745968Y-12140150D02*
X14745968Y-12273484D01*
X14698348Y-12063960D02*
X14650729Y-12206817D01*
X14650729Y-12206817D02*
X14774539Y-12206817D01*
X15003110Y-12273484D02*
X15003110Y-12073484D01*
X15088825Y-12273484D02*
X15088825Y-12168722D01*
X15088825Y-12168722D02*
X15079301Y-12149674D01*
X15079301Y-12149674D02*
X15060253Y-12140150D01*
X15060253Y-12140150D02*
X15031682Y-12140150D01*
X15031682Y-12140150D02*
X15012634Y-12149674D01*
X15012634Y-12149674D02*
X15003110Y-12159198D01*
X15212634Y-12273484D02*
X15193587Y-12263960D01*
X15193587Y-12263960D02*
X15184063Y-12254436D01*
X15184063Y-12254436D02*
X15174539Y-12235388D01*
X15174539Y-12235388D02*
X15174539Y-12178246D01*
X15174539Y-12178246D02*
X15184063Y-12159198D01*
X15184063Y-12159198D02*
X15193587Y-12149674D01*
X15193587Y-12149674D02*
X15212634Y-12140150D01*
X15212634Y-12140150D02*
X15241206Y-12140150D01*
X15241206Y-12140150D02*
X15260253Y-12149674D01*
X15260253Y-12149674D02*
X15269777Y-12159198D01*
X15269777Y-12159198D02*
X15279301Y-12178246D01*
X15279301Y-12178246D02*
X15279301Y-12235388D01*
X15279301Y-12235388D02*
X15269777Y-12254436D01*
X15269777Y-12254436D02*
X15260253Y-12263960D01*
X15260253Y-12263960D02*
X15241206Y-12273484D01*
X15241206Y-12273484D02*
X15212634Y-12273484D01*
X15393587Y-12273484D02*
X15374539Y-12263960D01*
X15374539Y-12263960D02*
X15365015Y-12244912D01*
X15365015Y-12244912D02*
X15365015Y-12073484D01*
X15545968Y-12263960D02*
X15526920Y-12273484D01*
X15526920Y-12273484D02*
X15488825Y-12273484D01*
X15488825Y-12273484D02*
X15469777Y-12263960D01*
X15469777Y-12263960D02*
X15460253Y-12244912D01*
X15460253Y-12244912D02*
X15460253Y-12168722D01*
X15460253Y-12168722D02*
X15469777Y-12149674D01*
X15469777Y-12149674D02*
X15488825Y-12140150D01*
X15488825Y-12140150D02*
X15526920Y-12140150D01*
X15526920Y-12140150D02*
X15545968Y-12149674D01*
X15545968Y-12149674D02*
X15555491Y-12168722D01*
X15555491Y-12168722D02*
X15555491Y-12187769D01*
X15555491Y-12187769D02*
X15460253Y-12206817D01*
X15631682Y-12263960D02*
X15650730Y-12273484D01*
X15650730Y-12273484D02*
X15688825Y-12273484D01*
X15688825Y-12273484D02*
X15707872Y-12263960D01*
X15707872Y-12263960D02*
X15717396Y-12244912D01*
X15717396Y-12244912D02*
X15717396Y-12235388D01*
X15717396Y-12235388D02*
X15707872Y-12216341D01*
X15707872Y-12216341D02*
X15688825Y-12206817D01*
X15688825Y-12206817D02*
X15660253Y-12206817D01*
X15660253Y-12206817D02*
X15641206Y-12197293D01*
X15641206Y-12197293D02*
X15631682Y-12178246D01*
X15631682Y-12178246D02*
X15631682Y-12168722D01*
X15631682Y-12168722D02*
X15641206Y-12149674D01*
X15641206Y-12149674D02*
X15660253Y-12140150D01*
X15660253Y-12140150D02*
X15688825Y-12140150D01*
X15688825Y-12140150D02*
X15707872Y-12149674D01*
X15784063Y-12349674D02*
X15793587Y-12340150D01*
X15793587Y-12340150D02*
X15812634Y-12311579D01*
X15812634Y-12311579D02*
X15822158Y-12292531D01*
X15822158Y-12292531D02*
X15831682Y-12263960D01*
X15831682Y-12263960D02*
X15841206Y-12216341D01*
X15841206Y-12216341D02*
X15841206Y-12178246D01*
X15841206Y-12178246D02*
X15831682Y-12130627D01*
X15831682Y-12130627D02*
X15822158Y-12102055D01*
X15822158Y-12102055D02*
X15812634Y-12083008D01*
X15812634Y-12083008D02*
X15793587Y-12054436D01*
X15793587Y-12054436D02*
X15784063Y-12044912D01*
M02*
