%TF.GenerationSoftware,KiCad,Pcbnew,7.0.7-7.0.7~ubuntu22.04.1*%
%TF.CreationDate,2023-09-20T21:24:29+02:00*%
%TF.ProjectId,som_fpga,736f6d5f-6670-4676-912e-6b696361645f,rev?*%
%TF.SameCoordinates,Original*%
%TF.FileFunction,Drillmap*%
%TF.FilePolarity,Positive*%
%FSLAX45Y45*%
G04 Gerber Fmt 4.5, Leading zero omitted, Abs format (unit mm)*
G04 Created by KiCad (PCBNEW 7.0.7-7.0.7~ubuntu22.04.1) date 2023-09-20 21:24:29*
%MOMM*%
%LPD*%
G01*
G04 APERTURE LIST*
%ADD10C,0.100000*%
%ADD11C,0.200000*%
%ADD12C,0.142000*%
G04 APERTURE END LIST*
D10*
X11414000Y-6009000D02*
G75*
G03*
X11014000Y-6409000I0J-400000D01*
G01*
X11014000Y-10609000D02*
G75*
G03*
X11414000Y-11009000I400000J0D01*
G01*
X16614000Y-11009000D02*
G75*
G03*
X17014000Y-10609000I0J400000D01*
G01*
X16614000Y-11009000D02*
X11414000Y-11009000D01*
X17014000Y-6409000D02*
X17014000Y-10609000D01*
X11014000Y-6409000D02*
X11014000Y-10609000D01*
X11414000Y-6009000D02*
X16614000Y-6009000D01*
X17014000Y-6409000D02*
G75*
G03*
X16614000Y-6009000I-400000J0D01*
G01*
D11*
D12*
X12606250Y-6348000D02*
X12748250Y-6490000D01*
X12748250Y-6348000D02*
X12606250Y-6490000D01*
X12606250Y-10528000D02*
X12748250Y-10670000D01*
X12748250Y-10528000D02*
X12606250Y-10670000D01*
X15337250Y-6348000D02*
X15479250Y-6490000D01*
X15479250Y-6348000D02*
X15337250Y-6490000D01*
X15337250Y-10528000D02*
X15479250Y-10670000D01*
X15479250Y-10528000D02*
X15337250Y-10670000D01*
X16533000Y-7043750D02*
X16675000Y-7185750D01*
X16675000Y-7043750D02*
X16533000Y-7185750D01*
X16533000Y-9774750D02*
X16675000Y-9916750D01*
X16675000Y-9774750D02*
X16533000Y-9916750D01*
D11*
X11269777Y-11325484D02*
X11269777Y-11125484D01*
X11269777Y-11125484D02*
X11317396Y-11125484D01*
X11317396Y-11125484D02*
X11345967Y-11135008D01*
X11345967Y-11135008D02*
X11365015Y-11154055D01*
X11365015Y-11154055D02*
X11374539Y-11173103D01*
X11374539Y-11173103D02*
X11384062Y-11211198D01*
X11384062Y-11211198D02*
X11384062Y-11239769D01*
X11384062Y-11239769D02*
X11374539Y-11277865D01*
X11374539Y-11277865D02*
X11365015Y-11296912D01*
X11365015Y-11296912D02*
X11345967Y-11315960D01*
X11345967Y-11315960D02*
X11317396Y-11325484D01*
X11317396Y-11325484D02*
X11269777Y-11325484D01*
X11469777Y-11325484D02*
X11469777Y-11192150D01*
X11469777Y-11230246D02*
X11479301Y-11211198D01*
X11479301Y-11211198D02*
X11488824Y-11201674D01*
X11488824Y-11201674D02*
X11507872Y-11192150D01*
X11507872Y-11192150D02*
X11526920Y-11192150D01*
X11593586Y-11325484D02*
X11593586Y-11192150D01*
X11593586Y-11125484D02*
X11584062Y-11135008D01*
X11584062Y-11135008D02*
X11593586Y-11144531D01*
X11593586Y-11144531D02*
X11603110Y-11135008D01*
X11603110Y-11135008D02*
X11593586Y-11125484D01*
X11593586Y-11125484D02*
X11593586Y-11144531D01*
X11717396Y-11325484D02*
X11698348Y-11315960D01*
X11698348Y-11315960D02*
X11688824Y-11296912D01*
X11688824Y-11296912D02*
X11688824Y-11125484D01*
X11822158Y-11325484D02*
X11803110Y-11315960D01*
X11803110Y-11315960D02*
X11793586Y-11296912D01*
X11793586Y-11296912D02*
X11793586Y-11125484D01*
X12050729Y-11325484D02*
X12050729Y-11125484D01*
X12050729Y-11125484D02*
X12117396Y-11268341D01*
X12117396Y-11268341D02*
X12184062Y-11125484D01*
X12184062Y-11125484D02*
X12184062Y-11325484D01*
X12365015Y-11325484D02*
X12365015Y-11220722D01*
X12365015Y-11220722D02*
X12355491Y-11201674D01*
X12355491Y-11201674D02*
X12336443Y-11192150D01*
X12336443Y-11192150D02*
X12298348Y-11192150D01*
X12298348Y-11192150D02*
X12279301Y-11201674D01*
X12365015Y-11315960D02*
X12345967Y-11325484D01*
X12345967Y-11325484D02*
X12298348Y-11325484D01*
X12298348Y-11325484D02*
X12279301Y-11315960D01*
X12279301Y-11315960D02*
X12269777Y-11296912D01*
X12269777Y-11296912D02*
X12269777Y-11277865D01*
X12269777Y-11277865D02*
X12279301Y-11258817D01*
X12279301Y-11258817D02*
X12298348Y-11249293D01*
X12298348Y-11249293D02*
X12345967Y-11249293D01*
X12345967Y-11249293D02*
X12365015Y-11239769D01*
X12460253Y-11192150D02*
X12460253Y-11392150D01*
X12460253Y-11201674D02*
X12479301Y-11192150D01*
X12479301Y-11192150D02*
X12517396Y-11192150D01*
X12517396Y-11192150D02*
X12536443Y-11201674D01*
X12536443Y-11201674D02*
X12545967Y-11211198D01*
X12545967Y-11211198D02*
X12555491Y-11230246D01*
X12555491Y-11230246D02*
X12555491Y-11287388D01*
X12555491Y-11287388D02*
X12545967Y-11306436D01*
X12545967Y-11306436D02*
X12536443Y-11315960D01*
X12536443Y-11315960D02*
X12517396Y-11325484D01*
X12517396Y-11325484D02*
X12479301Y-11325484D01*
X12479301Y-11325484D02*
X12460253Y-11315960D01*
X12641205Y-11306436D02*
X12650729Y-11315960D01*
X12650729Y-11315960D02*
X12641205Y-11325484D01*
X12641205Y-11325484D02*
X12631682Y-11315960D01*
X12631682Y-11315960D02*
X12641205Y-11306436D01*
X12641205Y-11306436D02*
X12641205Y-11325484D01*
X12641205Y-11201674D02*
X12650729Y-11211198D01*
X12650729Y-11211198D02*
X12641205Y-11220722D01*
X12641205Y-11220722D02*
X12631682Y-11211198D01*
X12631682Y-11211198D02*
X12641205Y-11201674D01*
X12641205Y-11201674D02*
X12641205Y-11220722D01*
D12*
X10867000Y-11583000D02*
X11009000Y-11725000D01*
X11009000Y-11583000D02*
X10867000Y-11725000D01*
D11*
X11374539Y-11745484D02*
X11260253Y-11745484D01*
X11317396Y-11745484D02*
X11317396Y-11545484D01*
X11317396Y-11545484D02*
X11298348Y-11574055D01*
X11298348Y-11574055D02*
X11279301Y-11593103D01*
X11279301Y-11593103D02*
X11260253Y-11602627D01*
X11460253Y-11726436D02*
X11469777Y-11735960D01*
X11469777Y-11735960D02*
X11460253Y-11745484D01*
X11460253Y-11745484D02*
X11450729Y-11735960D01*
X11450729Y-11735960D02*
X11460253Y-11726436D01*
X11460253Y-11726436D02*
X11460253Y-11745484D01*
X11641205Y-11612150D02*
X11641205Y-11745484D01*
X11593586Y-11535960D02*
X11545967Y-11678817D01*
X11545967Y-11678817D02*
X11669777Y-11678817D01*
X11736443Y-11564531D02*
X11745967Y-11555008D01*
X11745967Y-11555008D02*
X11765015Y-11545484D01*
X11765015Y-11545484D02*
X11812634Y-11545484D01*
X11812634Y-11545484D02*
X11831682Y-11555008D01*
X11831682Y-11555008D02*
X11841205Y-11564531D01*
X11841205Y-11564531D02*
X11850729Y-11583579D01*
X11850729Y-11583579D02*
X11850729Y-11602627D01*
X11850729Y-11602627D02*
X11841205Y-11631198D01*
X11841205Y-11631198D02*
X11726920Y-11745484D01*
X11726920Y-11745484D02*
X11850729Y-11745484D01*
X11974539Y-11545484D02*
X11993586Y-11545484D01*
X11993586Y-11545484D02*
X12012634Y-11555008D01*
X12012634Y-11555008D02*
X12022158Y-11564531D01*
X12022158Y-11564531D02*
X12031682Y-11583579D01*
X12031682Y-11583579D02*
X12041205Y-11621674D01*
X12041205Y-11621674D02*
X12041205Y-11669293D01*
X12041205Y-11669293D02*
X12031682Y-11707388D01*
X12031682Y-11707388D02*
X12022158Y-11726436D01*
X12022158Y-11726436D02*
X12012634Y-11735960D01*
X12012634Y-11735960D02*
X11993586Y-11745484D01*
X11993586Y-11745484D02*
X11974539Y-11745484D01*
X11974539Y-11745484D02*
X11955491Y-11735960D01*
X11955491Y-11735960D02*
X11945967Y-11726436D01*
X11945967Y-11726436D02*
X11936443Y-11707388D01*
X11936443Y-11707388D02*
X11926920Y-11669293D01*
X11926920Y-11669293D02*
X11926920Y-11621674D01*
X11926920Y-11621674D02*
X11936443Y-11583579D01*
X11936443Y-11583579D02*
X11945967Y-11564531D01*
X11945967Y-11564531D02*
X11955491Y-11555008D01*
X11955491Y-11555008D02*
X11974539Y-11545484D01*
X12126920Y-11745484D02*
X12126920Y-11612150D01*
X12126920Y-11631198D02*
X12136443Y-11621674D01*
X12136443Y-11621674D02*
X12155491Y-11612150D01*
X12155491Y-11612150D02*
X12184063Y-11612150D01*
X12184063Y-11612150D02*
X12203110Y-11621674D01*
X12203110Y-11621674D02*
X12212634Y-11640722D01*
X12212634Y-11640722D02*
X12212634Y-11745484D01*
X12212634Y-11640722D02*
X12222158Y-11621674D01*
X12222158Y-11621674D02*
X12241205Y-11612150D01*
X12241205Y-11612150D02*
X12269777Y-11612150D01*
X12269777Y-11612150D02*
X12288824Y-11621674D01*
X12288824Y-11621674D02*
X12298348Y-11640722D01*
X12298348Y-11640722D02*
X12298348Y-11745484D01*
X12393586Y-11745484D02*
X12393586Y-11612150D01*
X12393586Y-11631198D02*
X12403110Y-11621674D01*
X12403110Y-11621674D02*
X12422158Y-11612150D01*
X12422158Y-11612150D02*
X12450729Y-11612150D01*
X12450729Y-11612150D02*
X12469777Y-11621674D01*
X12469777Y-11621674D02*
X12479301Y-11640722D01*
X12479301Y-11640722D02*
X12479301Y-11745484D01*
X12479301Y-11640722D02*
X12488824Y-11621674D01*
X12488824Y-11621674D02*
X12507872Y-11612150D01*
X12507872Y-11612150D02*
X12536443Y-11612150D01*
X12536443Y-11612150D02*
X12555491Y-11621674D01*
X12555491Y-11621674D02*
X12565015Y-11640722D01*
X12565015Y-11640722D02*
X12565015Y-11745484D01*
X12955491Y-11535960D02*
X12784063Y-11793103D01*
X13212634Y-11545484D02*
X13231682Y-11545484D01*
X13231682Y-11545484D02*
X13250729Y-11555008D01*
X13250729Y-11555008D02*
X13260253Y-11564531D01*
X13260253Y-11564531D02*
X13269777Y-11583579D01*
X13269777Y-11583579D02*
X13279301Y-11621674D01*
X13279301Y-11621674D02*
X13279301Y-11669293D01*
X13279301Y-11669293D02*
X13269777Y-11707388D01*
X13269777Y-11707388D02*
X13260253Y-11726436D01*
X13260253Y-11726436D02*
X13250729Y-11735960D01*
X13250729Y-11735960D02*
X13231682Y-11745484D01*
X13231682Y-11745484D02*
X13212634Y-11745484D01*
X13212634Y-11745484D02*
X13193586Y-11735960D01*
X13193586Y-11735960D02*
X13184063Y-11726436D01*
X13184063Y-11726436D02*
X13174539Y-11707388D01*
X13174539Y-11707388D02*
X13165015Y-11669293D01*
X13165015Y-11669293D02*
X13165015Y-11621674D01*
X13165015Y-11621674D02*
X13174539Y-11583579D01*
X13174539Y-11583579D02*
X13184063Y-11564531D01*
X13184063Y-11564531D02*
X13193586Y-11555008D01*
X13193586Y-11555008D02*
X13212634Y-11545484D01*
X13365015Y-11726436D02*
X13374539Y-11735960D01*
X13374539Y-11735960D02*
X13365015Y-11745484D01*
X13365015Y-11745484D02*
X13355491Y-11735960D01*
X13355491Y-11735960D02*
X13365015Y-11726436D01*
X13365015Y-11726436D02*
X13365015Y-11745484D01*
X13498348Y-11545484D02*
X13517396Y-11545484D01*
X13517396Y-11545484D02*
X13536444Y-11555008D01*
X13536444Y-11555008D02*
X13545967Y-11564531D01*
X13545967Y-11564531D02*
X13555491Y-11583579D01*
X13555491Y-11583579D02*
X13565015Y-11621674D01*
X13565015Y-11621674D02*
X13565015Y-11669293D01*
X13565015Y-11669293D02*
X13555491Y-11707388D01*
X13555491Y-11707388D02*
X13545967Y-11726436D01*
X13545967Y-11726436D02*
X13536444Y-11735960D01*
X13536444Y-11735960D02*
X13517396Y-11745484D01*
X13517396Y-11745484D02*
X13498348Y-11745484D01*
X13498348Y-11745484D02*
X13479301Y-11735960D01*
X13479301Y-11735960D02*
X13469777Y-11726436D01*
X13469777Y-11726436D02*
X13460253Y-11707388D01*
X13460253Y-11707388D02*
X13450729Y-11669293D01*
X13450729Y-11669293D02*
X13450729Y-11621674D01*
X13450729Y-11621674D02*
X13460253Y-11583579D01*
X13460253Y-11583579D02*
X13469777Y-11564531D01*
X13469777Y-11564531D02*
X13479301Y-11555008D01*
X13479301Y-11555008D02*
X13498348Y-11545484D01*
X13745967Y-11545484D02*
X13650729Y-11545484D01*
X13650729Y-11545484D02*
X13641206Y-11640722D01*
X13641206Y-11640722D02*
X13650729Y-11631198D01*
X13650729Y-11631198D02*
X13669777Y-11621674D01*
X13669777Y-11621674D02*
X13717396Y-11621674D01*
X13717396Y-11621674D02*
X13736444Y-11631198D01*
X13736444Y-11631198D02*
X13745967Y-11640722D01*
X13745967Y-11640722D02*
X13755491Y-11659769D01*
X13755491Y-11659769D02*
X13755491Y-11707388D01*
X13755491Y-11707388D02*
X13745967Y-11726436D01*
X13745967Y-11726436D02*
X13736444Y-11735960D01*
X13736444Y-11735960D02*
X13717396Y-11745484D01*
X13717396Y-11745484D02*
X13669777Y-11745484D01*
X13669777Y-11745484D02*
X13650729Y-11735960D01*
X13650729Y-11735960D02*
X13641206Y-11726436D01*
X13936444Y-11545484D02*
X13841206Y-11545484D01*
X13841206Y-11545484D02*
X13831682Y-11640722D01*
X13831682Y-11640722D02*
X13841206Y-11631198D01*
X13841206Y-11631198D02*
X13860253Y-11621674D01*
X13860253Y-11621674D02*
X13907872Y-11621674D01*
X13907872Y-11621674D02*
X13926920Y-11631198D01*
X13926920Y-11631198D02*
X13936444Y-11640722D01*
X13936444Y-11640722D02*
X13945967Y-11659769D01*
X13945967Y-11659769D02*
X13945967Y-11707388D01*
X13945967Y-11707388D02*
X13936444Y-11726436D01*
X13936444Y-11726436D02*
X13926920Y-11735960D01*
X13926920Y-11735960D02*
X13907872Y-11745484D01*
X13907872Y-11745484D02*
X13860253Y-11745484D01*
X13860253Y-11745484D02*
X13841206Y-11735960D01*
X13841206Y-11735960D02*
X13831682Y-11726436D01*
X14041206Y-11745484D02*
X14079301Y-11745484D01*
X14079301Y-11745484D02*
X14098348Y-11735960D01*
X14098348Y-11735960D02*
X14107872Y-11726436D01*
X14107872Y-11726436D02*
X14126920Y-11697865D01*
X14126920Y-11697865D02*
X14136444Y-11659769D01*
X14136444Y-11659769D02*
X14136444Y-11583579D01*
X14136444Y-11583579D02*
X14126920Y-11564531D01*
X14126920Y-11564531D02*
X14117396Y-11555008D01*
X14117396Y-11555008D02*
X14098348Y-11545484D01*
X14098348Y-11545484D02*
X14060253Y-11545484D01*
X14060253Y-11545484D02*
X14041206Y-11555008D01*
X14041206Y-11555008D02*
X14031682Y-11564531D01*
X14031682Y-11564531D02*
X14022158Y-11583579D01*
X14022158Y-11583579D02*
X14022158Y-11631198D01*
X14022158Y-11631198D02*
X14031682Y-11650246D01*
X14031682Y-11650246D02*
X14041206Y-11659769D01*
X14041206Y-11659769D02*
X14060253Y-11669293D01*
X14060253Y-11669293D02*
X14098348Y-11669293D01*
X14098348Y-11669293D02*
X14117396Y-11659769D01*
X14117396Y-11659769D02*
X14126920Y-11650246D01*
X14126920Y-11650246D02*
X14136444Y-11631198D01*
X14212634Y-11545484D02*
X14212634Y-11583579D01*
X14288825Y-11545484D02*
X14288825Y-11583579D01*
X14584063Y-11821674D02*
X14574539Y-11812150D01*
X14574539Y-11812150D02*
X14555491Y-11783579D01*
X14555491Y-11783579D02*
X14545968Y-11764531D01*
X14545968Y-11764531D02*
X14536444Y-11735960D01*
X14536444Y-11735960D02*
X14526920Y-11688341D01*
X14526920Y-11688341D02*
X14526920Y-11650246D01*
X14526920Y-11650246D02*
X14536444Y-11602627D01*
X14536444Y-11602627D02*
X14545968Y-11574055D01*
X14545968Y-11574055D02*
X14555491Y-11555008D01*
X14555491Y-11555008D02*
X14574539Y-11526436D01*
X14574539Y-11526436D02*
X14584063Y-11516912D01*
X14745968Y-11545484D02*
X14707872Y-11545484D01*
X14707872Y-11545484D02*
X14688825Y-11555008D01*
X14688825Y-11555008D02*
X14679301Y-11564531D01*
X14679301Y-11564531D02*
X14660253Y-11593103D01*
X14660253Y-11593103D02*
X14650729Y-11631198D01*
X14650729Y-11631198D02*
X14650729Y-11707388D01*
X14650729Y-11707388D02*
X14660253Y-11726436D01*
X14660253Y-11726436D02*
X14669777Y-11735960D01*
X14669777Y-11735960D02*
X14688825Y-11745484D01*
X14688825Y-11745484D02*
X14726920Y-11745484D01*
X14726920Y-11745484D02*
X14745968Y-11735960D01*
X14745968Y-11735960D02*
X14755491Y-11726436D01*
X14755491Y-11726436D02*
X14765015Y-11707388D01*
X14765015Y-11707388D02*
X14765015Y-11659769D01*
X14765015Y-11659769D02*
X14755491Y-11640722D01*
X14755491Y-11640722D02*
X14745968Y-11631198D01*
X14745968Y-11631198D02*
X14726920Y-11621674D01*
X14726920Y-11621674D02*
X14688825Y-11621674D01*
X14688825Y-11621674D02*
X14669777Y-11631198D01*
X14669777Y-11631198D02*
X14660253Y-11640722D01*
X14660253Y-11640722D02*
X14650729Y-11659769D01*
X15003110Y-11745484D02*
X15003110Y-11545484D01*
X15088825Y-11745484D02*
X15088825Y-11640722D01*
X15088825Y-11640722D02*
X15079301Y-11621674D01*
X15079301Y-11621674D02*
X15060253Y-11612150D01*
X15060253Y-11612150D02*
X15031682Y-11612150D01*
X15031682Y-11612150D02*
X15012634Y-11621674D01*
X15012634Y-11621674D02*
X15003110Y-11631198D01*
X15212634Y-11745484D02*
X15193587Y-11735960D01*
X15193587Y-11735960D02*
X15184063Y-11726436D01*
X15184063Y-11726436D02*
X15174539Y-11707388D01*
X15174539Y-11707388D02*
X15174539Y-11650246D01*
X15174539Y-11650246D02*
X15184063Y-11631198D01*
X15184063Y-11631198D02*
X15193587Y-11621674D01*
X15193587Y-11621674D02*
X15212634Y-11612150D01*
X15212634Y-11612150D02*
X15241206Y-11612150D01*
X15241206Y-11612150D02*
X15260253Y-11621674D01*
X15260253Y-11621674D02*
X15269777Y-11631198D01*
X15269777Y-11631198D02*
X15279301Y-11650246D01*
X15279301Y-11650246D02*
X15279301Y-11707388D01*
X15279301Y-11707388D02*
X15269777Y-11726436D01*
X15269777Y-11726436D02*
X15260253Y-11735960D01*
X15260253Y-11735960D02*
X15241206Y-11745484D01*
X15241206Y-11745484D02*
X15212634Y-11745484D01*
X15393587Y-11745484D02*
X15374539Y-11735960D01*
X15374539Y-11735960D02*
X15365015Y-11716912D01*
X15365015Y-11716912D02*
X15365015Y-11545484D01*
X15545968Y-11735960D02*
X15526920Y-11745484D01*
X15526920Y-11745484D02*
X15488825Y-11745484D01*
X15488825Y-11745484D02*
X15469777Y-11735960D01*
X15469777Y-11735960D02*
X15460253Y-11716912D01*
X15460253Y-11716912D02*
X15460253Y-11640722D01*
X15460253Y-11640722D02*
X15469777Y-11621674D01*
X15469777Y-11621674D02*
X15488825Y-11612150D01*
X15488825Y-11612150D02*
X15526920Y-11612150D01*
X15526920Y-11612150D02*
X15545968Y-11621674D01*
X15545968Y-11621674D02*
X15555491Y-11640722D01*
X15555491Y-11640722D02*
X15555491Y-11659769D01*
X15555491Y-11659769D02*
X15460253Y-11678817D01*
X15631682Y-11735960D02*
X15650730Y-11745484D01*
X15650730Y-11745484D02*
X15688825Y-11745484D01*
X15688825Y-11745484D02*
X15707872Y-11735960D01*
X15707872Y-11735960D02*
X15717396Y-11716912D01*
X15717396Y-11716912D02*
X15717396Y-11707388D01*
X15717396Y-11707388D02*
X15707872Y-11688341D01*
X15707872Y-11688341D02*
X15688825Y-11678817D01*
X15688825Y-11678817D02*
X15660253Y-11678817D01*
X15660253Y-11678817D02*
X15641206Y-11669293D01*
X15641206Y-11669293D02*
X15631682Y-11650246D01*
X15631682Y-11650246D02*
X15631682Y-11640722D01*
X15631682Y-11640722D02*
X15641206Y-11621674D01*
X15641206Y-11621674D02*
X15660253Y-11612150D01*
X15660253Y-11612150D02*
X15688825Y-11612150D01*
X15688825Y-11612150D02*
X15707872Y-11621674D01*
X15784063Y-11821674D02*
X15793587Y-11812150D01*
X15793587Y-11812150D02*
X15812634Y-11783579D01*
X15812634Y-11783579D02*
X15822158Y-11764531D01*
X15822158Y-11764531D02*
X15831682Y-11735960D01*
X15831682Y-11735960D02*
X15841206Y-11688341D01*
X15841206Y-11688341D02*
X15841206Y-11650246D01*
X15841206Y-11650246D02*
X15831682Y-11602627D01*
X15831682Y-11602627D02*
X15822158Y-11574055D01*
X15822158Y-11574055D02*
X15812634Y-11555008D01*
X15812634Y-11555008D02*
X15793587Y-11526436D01*
X15793587Y-11526436D02*
X15784063Y-11516912D01*
X16145968Y-11821674D02*
X16136444Y-11812150D01*
X16136444Y-11812150D02*
X16117396Y-11783579D01*
X16117396Y-11783579D02*
X16107872Y-11764531D01*
X16107872Y-11764531D02*
X16098349Y-11735960D01*
X16098349Y-11735960D02*
X16088825Y-11688341D01*
X16088825Y-11688341D02*
X16088825Y-11650246D01*
X16088825Y-11650246D02*
X16098349Y-11602627D01*
X16098349Y-11602627D02*
X16107872Y-11574055D01*
X16107872Y-11574055D02*
X16117396Y-11555008D01*
X16117396Y-11555008D02*
X16136444Y-11526436D01*
X16136444Y-11526436D02*
X16145968Y-11516912D01*
X16222158Y-11612150D02*
X16222158Y-11745484D01*
X16222158Y-11631198D02*
X16231682Y-11621674D01*
X16231682Y-11621674D02*
X16250730Y-11612150D01*
X16250730Y-11612150D02*
X16279301Y-11612150D01*
X16279301Y-11612150D02*
X16298349Y-11621674D01*
X16298349Y-11621674D02*
X16307872Y-11640722D01*
X16307872Y-11640722D02*
X16307872Y-11745484D01*
X16431682Y-11745484D02*
X16412634Y-11735960D01*
X16412634Y-11735960D02*
X16403111Y-11726436D01*
X16403111Y-11726436D02*
X16393587Y-11707388D01*
X16393587Y-11707388D02*
X16393587Y-11650246D01*
X16393587Y-11650246D02*
X16403111Y-11631198D01*
X16403111Y-11631198D02*
X16412634Y-11621674D01*
X16412634Y-11621674D02*
X16431682Y-11612150D01*
X16431682Y-11612150D02*
X16460253Y-11612150D01*
X16460253Y-11612150D02*
X16479301Y-11621674D01*
X16479301Y-11621674D02*
X16488825Y-11631198D01*
X16488825Y-11631198D02*
X16498349Y-11650246D01*
X16498349Y-11650246D02*
X16498349Y-11707388D01*
X16498349Y-11707388D02*
X16488825Y-11726436D01*
X16488825Y-11726436D02*
X16479301Y-11735960D01*
X16479301Y-11735960D02*
X16460253Y-11745484D01*
X16460253Y-11745484D02*
X16431682Y-11745484D01*
X16555492Y-11612150D02*
X16631682Y-11612150D01*
X16584063Y-11545484D02*
X16584063Y-11716912D01*
X16584063Y-11716912D02*
X16593587Y-11735960D01*
X16593587Y-11735960D02*
X16612634Y-11745484D01*
X16612634Y-11745484D02*
X16631682Y-11745484D01*
X16850730Y-11612150D02*
X16850730Y-11812150D01*
X16850730Y-11621674D02*
X16869777Y-11612150D01*
X16869777Y-11612150D02*
X16907873Y-11612150D01*
X16907873Y-11612150D02*
X16926920Y-11621674D01*
X16926920Y-11621674D02*
X16936444Y-11631198D01*
X16936444Y-11631198D02*
X16945968Y-11650246D01*
X16945968Y-11650246D02*
X16945968Y-11707388D01*
X16945968Y-11707388D02*
X16936444Y-11726436D01*
X16936444Y-11726436D02*
X16926920Y-11735960D01*
X16926920Y-11735960D02*
X16907873Y-11745484D01*
X16907873Y-11745484D02*
X16869777Y-11745484D01*
X16869777Y-11745484D02*
X16850730Y-11735960D01*
X17060254Y-11745484D02*
X17041206Y-11735960D01*
X17041206Y-11735960D02*
X17031682Y-11716912D01*
X17031682Y-11716912D02*
X17031682Y-11545484D01*
X17222158Y-11745484D02*
X17222158Y-11640722D01*
X17222158Y-11640722D02*
X17212635Y-11621674D01*
X17212635Y-11621674D02*
X17193587Y-11612150D01*
X17193587Y-11612150D02*
X17155492Y-11612150D01*
X17155492Y-11612150D02*
X17136444Y-11621674D01*
X17222158Y-11735960D02*
X17203111Y-11745484D01*
X17203111Y-11745484D02*
X17155492Y-11745484D01*
X17155492Y-11745484D02*
X17136444Y-11735960D01*
X17136444Y-11735960D02*
X17126920Y-11716912D01*
X17126920Y-11716912D02*
X17126920Y-11697865D01*
X17126920Y-11697865D02*
X17136444Y-11678817D01*
X17136444Y-11678817D02*
X17155492Y-11669293D01*
X17155492Y-11669293D02*
X17203111Y-11669293D01*
X17203111Y-11669293D02*
X17222158Y-11659769D01*
X17288825Y-11612150D02*
X17365015Y-11612150D01*
X17317396Y-11545484D02*
X17317396Y-11716912D01*
X17317396Y-11716912D02*
X17326920Y-11735960D01*
X17326920Y-11735960D02*
X17345968Y-11745484D01*
X17345968Y-11745484D02*
X17365015Y-11745484D01*
X17507873Y-11735960D02*
X17488825Y-11745484D01*
X17488825Y-11745484D02*
X17450730Y-11745484D01*
X17450730Y-11745484D02*
X17431682Y-11735960D01*
X17431682Y-11735960D02*
X17422158Y-11716912D01*
X17422158Y-11716912D02*
X17422158Y-11640722D01*
X17422158Y-11640722D02*
X17431682Y-11621674D01*
X17431682Y-11621674D02*
X17450730Y-11612150D01*
X17450730Y-11612150D02*
X17488825Y-11612150D01*
X17488825Y-11612150D02*
X17507873Y-11621674D01*
X17507873Y-11621674D02*
X17517396Y-11640722D01*
X17517396Y-11640722D02*
X17517396Y-11659769D01*
X17517396Y-11659769D02*
X17422158Y-11678817D01*
X17688825Y-11745484D02*
X17688825Y-11545484D01*
X17688825Y-11735960D02*
X17669777Y-11745484D01*
X17669777Y-11745484D02*
X17631682Y-11745484D01*
X17631682Y-11745484D02*
X17612635Y-11735960D01*
X17612635Y-11735960D02*
X17603111Y-11726436D01*
X17603111Y-11726436D02*
X17593587Y-11707388D01*
X17593587Y-11707388D02*
X17593587Y-11650246D01*
X17593587Y-11650246D02*
X17603111Y-11631198D01*
X17603111Y-11631198D02*
X17612635Y-11621674D01*
X17612635Y-11621674D02*
X17631682Y-11612150D01*
X17631682Y-11612150D02*
X17669777Y-11612150D01*
X17669777Y-11612150D02*
X17688825Y-11621674D01*
X17765016Y-11821674D02*
X17774539Y-11812150D01*
X17774539Y-11812150D02*
X17793587Y-11783579D01*
X17793587Y-11783579D02*
X17803111Y-11764531D01*
X17803111Y-11764531D02*
X17812635Y-11735960D01*
X17812635Y-11735960D02*
X17822158Y-11688341D01*
X17822158Y-11688341D02*
X17822158Y-11650246D01*
X17822158Y-11650246D02*
X17812635Y-11602627D01*
X17812635Y-11602627D02*
X17803111Y-11574055D01*
X17803111Y-11574055D02*
X17793587Y-11555008D01*
X17793587Y-11555008D02*
X17774539Y-11526436D01*
X17774539Y-11526436D02*
X17765016Y-11516912D01*
M02*
