M48
; DRILL file {KiCad 7.0.10} date Sat Oct 11 07:58:48 2025
; FORMAT={-:-/ absolute / metric / decimal}
; #@! TF.CreationDate,2025-10-11T07:58:48+03:00
; #@! TF.GenerationSoftware,Kicad,Pcbnew,7.0.10
; #@! TF.FileFunction,Plated,1,4,PTH
FMAT,2
METRIC
; #@! TA.AperFunction,Plated,PTH,ViaDrill
T1C0.300
; #@! TA.AperFunction,Plated,PTH,ComponentDrill
T2C1.000
; #@! TA.AperFunction,Plated,PTH,ComponentDrill
T3C3.200
%
G90
G05
T1
X114.2Y-99.3
X117.514Y-71.719
X118.594Y-85.154
X118.814Y-77.019
X118.819Y-92.379
X121.214Y-72.319
X121.8Y-78.6
X122.7Y-78.6
X123.294Y-81.054
X123.6Y-78.6
X124.014Y-72.319
X124.2Y-79.7
X124.78Y-79.03
X124.8Y-87.0
X126.0Y-87.0
X127.0Y-66.65
X127.29Y-86.43
X128.06Y-89.69
X128.362Y-102.337
X128.4Y-72.6
X128.4Y-73.4
X128.4Y-74.2
X128.4Y-75.0
X128.4Y-75.8
X128.4Y-80.4
X128.7Y-77.4
X128.89Y-86.69
X129.5Y-77.4
X129.632Y-104.275
X129.632Y-107.705
X129.8Y-80.4
X130.903Y-62.475
X130.903Y-65.905
X130.903Y-104.275
X130.903Y-107.705
X131.2Y-75.0
X131.2Y-85.3
X131.23Y-90.18
X132.172Y-62.475
X132.172Y-65.905
X132.2Y-87.9
X132.28Y-92.95
X132.3Y-72.9
X132.4Y-83.0
X132.49Y-78.03
X133.1Y-76.4
X133.442Y-62.475
X133.442Y-104.275
X133.442Y-107.705
X133.5Y-81.2
X133.6Y-85.8
X133.639Y-65.905
X133.7Y-90.9
X134.1Y-88.8
X134.2Y-73.9
X134.4Y-79.3
X134.43Y-98.52
X134.7Y-99.65
X134.713Y-62.475
X134.713Y-65.905
X134.713Y-104.275
X134.713Y-107.705
X134.75Y-95.92
X134.943Y-83.598
X135.1Y-91.8
X135.515Y-100.31
X135.905Y-87.586
X135.982Y-104.275
X135.982Y-107.705
X136.025Y-83.469
X136.1Y-84.4
X136.168Y-85.23
X136.513Y-75.405
X136.56Y-96.503
X136.6Y-90.0
X136.7Y-78.89
X137.2Y-83.8
X137.252Y-62.475
X137.252Y-65.905
X137.252Y-104.275
X137.252Y-107.705
X137.3Y-82.8
X137.4Y-93.7
X137.43Y-88.1
X137.6Y-73.0
X137.66Y-96.503
X137.68Y-101.81
X137.755Y-79.425
X138.093Y-83.713
X138.16Y-86.269
X138.2Y-90.9
X138.522Y-62.475
X138.522Y-65.905
X138.529Y-93.75
X138.6Y-82.3
X138.713Y-77.794
X138.92Y-94.89
X139.188Y-100.955
X139.3Y-74.3
X139.687Y-78.998
X139.735Y-80.784
X139.792Y-62.475
X139.792Y-104.275
X139.792Y-107.705
X139.814Y-89.431
X139.989Y-65.876
X140.135Y-86.805
X140.145Y-83.385
X140.3Y-92.0
X140.36Y-81.92
X140.41Y-71.58
X140.755Y-77.775
X140.793Y-104.275
X141.062Y-62.475
X141.062Y-65.905
X141.062Y-107.705
X141.35Y-95.25
X141.462Y-100.222
X141.56Y-79.22
X141.63Y-85.25
X141.7Y-90.3
X141.717Y-74.738
X141.949Y-83.593
X142.028Y-100.787
X142.25Y-92.94
X142.332Y-104.275
X142.332Y-107.705
X142.423Y-82.082
X142.5Y-73.2
X142.755Y-87.775
X142.755Y-77.775
X142.985Y-75.665
X143.105Y-82.775
X143.105Y-80.775
X143.21Y-89.38
X143.21Y-90.28
X143.54Y-79.15
X143.602Y-62.475
X143.602Y-65.905
X143.602Y-104.275
X143.602Y-107.705
X143.69Y-85.97
X144.105Y-81.775
X144.162Y-74.454
X144.21Y-88.97
X144.236Y-78.377
X144.43Y-93.57
X144.71Y-97.18
X144.72Y-96.1
X144.72Y-98.55
X144.81Y-90.45
X144.873Y-62.475
X144.873Y-65.905
X144.898Y-84.58
X144.93Y-91.59
X145.06Y-82.79
X145.085Y-92.4
X145.17Y-70.88
X145.27Y-87.31
X145.3Y-77.0
X145.31Y-81.26
X145.393Y-93.56
X145.488Y-79.035
X145.715Y-90.461
X145.795Y-74.808
X146.086Y-83.491
X146.142Y-62.475
X146.142Y-104.275
X146.142Y-107.705
X146.39Y-65.86
X146.43Y-78.1
X146.6Y-85.3
X146.6Y-90.2
X146.66Y-74.88
X147.0Y-101.9
X147.06Y-89.41
X147.105Y-83.425
X147.21Y-72.86
X147.4Y-96.51
X147.4Y-98.37
X147.4Y-100.07
X147.41Y-94.81
X147.412Y-62.475
X147.412Y-65.905
X147.412Y-104.275
X147.412Y-107.705
X147.7Y-73.84
X147.7Y-88.3
X148.028Y-92.527
X148.04Y-89.46
X148.046Y-82.768
X148.16Y-91.35
X148.64Y-85.88
X148.683Y-107.705
X148.69Y-74.41
X148.78Y-90.37
X149.43Y-89.1
X149.75Y-90.43
X149.86Y-92.51
X149.952Y-62.475
X149.952Y-65.905
X149.952Y-107.705
X150.01Y-91.68
X150.105Y-72.425
X150.2Y-87.4
X150.84Y-83.69
X150.85Y-91.53
X151.093Y-89.713
X151.222Y-62.475
X151.222Y-65.905
X151.51Y-84.82
X151.859Y-83.697
X152.25Y-68.15
X153.5Y-88.037
X153.67Y-73.23
X153.9Y-89.2
X153.9Y-90.0
X154.11Y-92.89
X154.91Y-82.24
X154.95Y-83.3
X157.4Y-81.8
X158.0Y-91.1
X160.22Y-96.21
X160.28Y-99.34
X160.36Y-102.2
X163.72Y-72.4
X164.325Y-74.007
X164.325Y-75.278
X164.325Y-77.817
X164.325Y-79.087
X164.325Y-81.627
X164.325Y-86.707
X164.325Y-87.977
X164.325Y-91.787
X164.325Y-93.057
X164.325Y-94.328
X164.354Y-80.554
X164.5Y-90.6
X167.755Y-72.737
X167.755Y-74.007
X167.755Y-75.278
X167.755Y-77.817
X167.755Y-79.087
X167.755Y-80.358
X167.755Y-81.627
X167.755Y-84.167
X167.755Y-85.438
X167.755Y-86.707
X167.755Y-87.977
X167.81Y-90.49
T2
X127.2Y-91.135
X127.2Y-93.675
T3
X115.14Y-65.09
X115.14Y-105.09
X165.14Y-65.09
X165.14Y-105.09
M30
