%TF.GenerationSoftware,KiCad,Pcbnew,7.0.10*%
%TF.CreationDate,2025-10-11T07:55:29+03:00*%
%TF.ProjectId,som_fpga,736f6d5f-6670-4676-912e-6b696361645f,rev?*%
%TF.SameCoordinates,Original*%
%TF.FileFunction,Legend,Top*%
%TF.FilePolarity,Positive*%
%FSLAX46Y46*%
G04 Gerber Fmt 4.6, Leading zero omitted, Abs format (unit mm)*
G04 Created by KiCad (PCBNEW 7.0.10) date 2025-10-11 07:55:29*
%MOMM*%
%LPD*%
G01*
G04 APERTURE LIST*
%ADD10C,0.150000*%
%ADD11C,0.100000*%
%ADD12C,0.300000*%
%ADD13C,0.120000*%
%ADD14C,0.127000*%
G04 APERTURE END LIST*
D10*
X133686779Y-64116009D02*
X134020112Y-64116009D01*
X134162969Y-64639819D02*
X133686779Y-64639819D01*
X133686779Y-64639819D02*
X133686779Y-63639819D01*
X133686779Y-63639819D02*
X134162969Y-63639819D01*
X134591541Y-64639819D02*
X134591541Y-63639819D01*
X134591541Y-63639819D02*
X135162969Y-64639819D01*
X135162969Y-64639819D02*
X135162969Y-63639819D01*
X136162969Y-63687438D02*
X136067731Y-63639819D01*
X136067731Y-63639819D02*
X135924874Y-63639819D01*
X135924874Y-63639819D02*
X135782017Y-63687438D01*
X135782017Y-63687438D02*
X135686779Y-63782676D01*
X135686779Y-63782676D02*
X135639160Y-63877914D01*
X135639160Y-63877914D02*
X135591541Y-64068390D01*
X135591541Y-64068390D02*
X135591541Y-64211247D01*
X135591541Y-64211247D02*
X135639160Y-64401723D01*
X135639160Y-64401723D02*
X135686779Y-64496961D01*
X135686779Y-64496961D02*
X135782017Y-64592200D01*
X135782017Y-64592200D02*
X135924874Y-64639819D01*
X135924874Y-64639819D02*
X136020112Y-64639819D01*
X136020112Y-64639819D02*
X136162969Y-64592200D01*
X136162969Y-64592200D02*
X136210588Y-64544580D01*
X136210588Y-64544580D02*
X136210588Y-64211247D01*
X136210588Y-64211247D02*
X136020112Y-64211247D01*
X137353445Y-63592200D02*
X136496303Y-64877914D01*
X137686779Y-64116009D02*
X138020112Y-64116009D01*
X138162969Y-64639819D02*
X137686779Y-64639819D01*
X137686779Y-64639819D02*
X137686779Y-63639819D01*
X137686779Y-63639819D02*
X138162969Y-63639819D01*
X138543922Y-64592200D02*
X138686779Y-64639819D01*
X138686779Y-64639819D02*
X138924874Y-64639819D01*
X138924874Y-64639819D02*
X139020112Y-64592200D01*
X139020112Y-64592200D02*
X139067731Y-64544580D01*
X139067731Y-64544580D02*
X139115350Y-64449342D01*
X139115350Y-64449342D02*
X139115350Y-64354104D01*
X139115350Y-64354104D02*
X139067731Y-64258866D01*
X139067731Y-64258866D02*
X139020112Y-64211247D01*
X139020112Y-64211247D02*
X138924874Y-64163628D01*
X138924874Y-64163628D02*
X138734398Y-64116009D01*
X138734398Y-64116009D02*
X138639160Y-64068390D01*
X138639160Y-64068390D02*
X138591541Y-64020771D01*
X138591541Y-64020771D02*
X138543922Y-63925533D01*
X138543922Y-63925533D02*
X138543922Y-63830295D01*
X138543922Y-63830295D02*
X138591541Y-63735057D01*
X138591541Y-63735057D02*
X138639160Y-63687438D01*
X138639160Y-63687438D02*
X138734398Y-63639819D01*
X138734398Y-63639819D02*
X138972493Y-63639819D01*
X138972493Y-63639819D02*
X139115350Y-63687438D01*
X140020112Y-64639819D02*
X139543922Y-64639819D01*
X139543922Y-64639819D02*
X139543922Y-63639819D01*
X140305827Y-64354104D02*
X140782017Y-64354104D01*
X140210589Y-64639819D02*
X140543922Y-63639819D01*
X140543922Y-63639819D02*
X140877255Y-64639819D01*
X141210589Y-64639819D02*
X141210589Y-63639819D01*
X141210589Y-63639819D02*
X141543922Y-64354104D01*
X141543922Y-64354104D02*
X141877255Y-63639819D01*
X141877255Y-63639819D02*
X141877255Y-64639819D01*
X143448684Y-64116009D02*
X143115351Y-64116009D01*
X143115351Y-64639819D02*
X143115351Y-63639819D01*
X143115351Y-63639819D02*
X143591541Y-63639819D01*
X143924875Y-64354104D02*
X144401065Y-64354104D01*
X143829637Y-64639819D02*
X144162970Y-63639819D01*
X144162970Y-63639819D02*
X144496303Y-64639819D01*
X145020113Y-64163628D02*
X145020113Y-64639819D01*
X144686780Y-63639819D02*
X145020113Y-64163628D01*
X145020113Y-64163628D02*
X145353446Y-63639819D01*
X145639161Y-64354104D02*
X146115351Y-64354104D01*
X145543923Y-64639819D02*
X145877256Y-63639819D01*
X145877256Y-63639819D02*
X146210589Y-64639819D01*
X146543923Y-64639819D02*
X146543923Y-63639819D01*
X146543923Y-63639819D02*
X146782018Y-63639819D01*
X146782018Y-63639819D02*
X146924875Y-63687438D01*
X146924875Y-63687438D02*
X147020113Y-63782676D01*
X147020113Y-63782676D02*
X147067732Y-63877914D01*
X147067732Y-63877914D02*
X147115351Y-64068390D01*
X147115351Y-64068390D02*
X147115351Y-64211247D01*
X147115351Y-64211247D02*
X147067732Y-64401723D01*
X147067732Y-64401723D02*
X147020113Y-64496961D01*
X147020113Y-64496961D02*
X146924875Y-64592200D01*
X146924875Y-64592200D02*
X146782018Y-64639819D01*
X146782018Y-64639819D02*
X146543923Y-64639819D01*
G36*
X155453408Y-77297942D02*
G01*
X155508472Y-77353006D01*
X155537442Y-77410945D01*
X155571303Y-77546387D01*
X155571303Y-77642202D01*
X155537442Y-77777643D01*
X155508472Y-77835582D01*
X155453407Y-77890648D01*
X155367466Y-77919295D01*
X155264160Y-77919295D01*
X155264160Y-77269295D01*
X155367466Y-77269295D01*
X155453408Y-77297942D01*
G37*
G36*
X156325685Y-77294029D02*
G01*
X156378580Y-77346923D01*
X156409398Y-77470194D01*
X156409398Y-77718394D01*
X156378580Y-77841665D01*
X156325685Y-77894561D01*
X156276217Y-77919295D01*
X156159246Y-77919295D01*
X156109777Y-77894560D01*
X156056882Y-77841665D01*
X156026064Y-77718392D01*
X156026064Y-77470196D01*
X156056882Y-77346923D01*
X156109776Y-77294029D01*
X156159246Y-77269295D01*
X156276217Y-77269295D01*
X156325685Y-77294029D01*
G37*
G36*
X158234449Y-78183581D02*
G01*
X154999874Y-78183581D01*
X154999874Y-77994295D01*
X155114160Y-77994295D01*
X155120823Y-78012603D01*
X155124208Y-78031795D01*
X155129392Y-78036145D01*
X155131707Y-78042504D01*
X155148580Y-78052246D01*
X155163508Y-78064772D01*
X155173250Y-78066489D01*
X155176136Y-78068156D01*
X155179418Y-78067577D01*
X155189160Y-78069295D01*
X155379636Y-78069295D01*
X155381174Y-78068734D01*
X155403353Y-78065446D01*
X155517639Y-78027351D01*
X155521150Y-78024563D01*
X155525619Y-78024173D01*
X155546955Y-78009233D01*
X155623146Y-77933041D01*
X155623837Y-77931558D01*
X155637194Y-77913550D01*
X155675289Y-77837360D01*
X155675694Y-77833833D01*
X155680968Y-77822010D01*
X155704564Y-77727628D01*
X155876064Y-77727628D01*
X155877249Y-77730885D01*
X155878303Y-77745819D01*
X155916399Y-77898200D01*
X155920541Y-77904332D01*
X155921186Y-77911705D01*
X155936127Y-77933042D01*
X156012317Y-78009233D01*
X156013799Y-78009924D01*
X156031809Y-78023282D01*
X156108000Y-78061377D01*
X156112453Y-78061889D01*
X156115889Y-78064772D01*
X156141541Y-78069295D01*
X156293922Y-78069295D01*
X156298135Y-78067761D01*
X156302496Y-78068803D01*
X156327463Y-78061377D01*
X156403653Y-78023282D01*
X156404778Y-78022092D01*
X156423145Y-78009233D01*
X156438083Y-77994295D01*
X156752255Y-77994295D01*
X156769802Y-78042504D01*
X156814231Y-78068156D01*
X156864755Y-78059247D01*
X156897732Y-78019947D01*
X156902255Y-77994295D01*
X156902255Y-77476711D01*
X157219280Y-78031505D01*
X157224572Y-78035986D01*
X157226945Y-78042504D01*
X157243684Y-78052168D01*
X157258433Y-78064657D01*
X157265367Y-78064687D01*
X157271374Y-78068156D01*
X157290407Y-78064799D01*
X157309735Y-78064886D01*
X157315068Y-78060451D01*
X157321898Y-78059247D01*
X157334322Y-78044440D01*
X157349182Y-78032084D01*
X157350416Y-78025260D01*
X157354875Y-78019947D01*
X157359398Y-77994295D01*
X157590350Y-77994295D01*
X157597013Y-78012603D01*
X157600398Y-78031795D01*
X157605582Y-78036145D01*
X157607897Y-78042504D01*
X157624770Y-78052246D01*
X157639698Y-78064772D01*
X157649440Y-78066489D01*
X157652326Y-78068156D01*
X157655608Y-78067577D01*
X157665350Y-78069295D01*
X158046302Y-78069295D01*
X158094511Y-78051748D01*
X158120163Y-78007319D01*
X158111254Y-77956795D01*
X158071954Y-77923818D01*
X158046302Y-77919295D01*
X157740350Y-77919295D01*
X157740350Y-77650247D01*
X157932016Y-77650247D01*
X157980225Y-77632700D01*
X158005877Y-77588271D01*
X157996968Y-77537747D01*
X157957668Y-77504770D01*
X157932016Y-77500247D01*
X157740350Y-77500247D01*
X157740350Y-77269295D01*
X158046302Y-77269295D01*
X158094511Y-77251748D01*
X158120163Y-77207319D01*
X158111254Y-77156795D01*
X158071954Y-77123818D01*
X158046302Y-77119295D01*
X157665350Y-77119295D01*
X157647041Y-77125958D01*
X157627850Y-77129343D01*
X157623499Y-77134527D01*
X157617141Y-77136842D01*
X157607398Y-77153715D01*
X157594873Y-77168643D01*
X157593155Y-77178385D01*
X157591489Y-77181271D01*
X157592067Y-77184553D01*
X157590350Y-77194295D01*
X157590350Y-77994295D01*
X157359398Y-77994295D01*
X157359398Y-77194295D01*
X157341851Y-77146086D01*
X157297422Y-77120434D01*
X157246898Y-77129343D01*
X157213921Y-77168643D01*
X157209398Y-77194295D01*
X157209398Y-77711878D01*
X156892373Y-77157085D01*
X156887080Y-77152603D01*
X156884708Y-77146086D01*
X156867968Y-77136421D01*
X156853220Y-77123933D01*
X156846285Y-77123902D01*
X156840279Y-77120434D01*
X156821245Y-77123790D01*
X156801918Y-77123704D01*
X156796584Y-77128138D01*
X156789755Y-77129343D01*
X156777330Y-77144149D01*
X156762471Y-77156506D01*
X156761236Y-77163329D01*
X156756778Y-77168643D01*
X156752255Y-77194295D01*
X156752255Y-77994295D01*
X156438083Y-77994295D01*
X156499336Y-77933042D01*
X156502463Y-77926334D01*
X156508454Y-77921988D01*
X156519064Y-77898199D01*
X156557159Y-77745818D01*
X156556798Y-77742369D01*
X156559398Y-77727628D01*
X156559398Y-77460961D01*
X156558212Y-77457703D01*
X156557159Y-77442771D01*
X156519064Y-77290390D01*
X156514922Y-77284257D01*
X156514277Y-77276884D01*
X156499336Y-77255547D01*
X156423145Y-77179357D01*
X156421663Y-77178666D01*
X156403653Y-77165308D01*
X156327463Y-77127213D01*
X156323009Y-77126700D01*
X156319574Y-77123818D01*
X156293922Y-77119295D01*
X156141541Y-77119295D01*
X156137328Y-77120828D01*
X156132967Y-77119786D01*
X156108000Y-77127213D01*
X156031809Y-77165308D01*
X156030685Y-77166494D01*
X156012317Y-77179357D01*
X155936127Y-77255547D01*
X155932999Y-77262253D01*
X155927009Y-77266600D01*
X155916399Y-77290389D01*
X155878303Y-77442770D01*
X155878663Y-77446218D01*
X155876064Y-77460961D01*
X155876064Y-77727628D01*
X155704564Y-77727628D01*
X155719064Y-77669628D01*
X155718703Y-77666179D01*
X155721303Y-77651438D01*
X155721303Y-77537152D01*
X155720117Y-77533894D01*
X155719064Y-77518962D01*
X155680968Y-77366580D01*
X155678979Y-77363636D01*
X155675289Y-77351230D01*
X155637194Y-77275039D01*
X155636007Y-77273915D01*
X155623145Y-77255547D01*
X155546955Y-77179357D01*
X155542891Y-77177462D01*
X155540544Y-77173641D01*
X155517639Y-77161239D01*
X155403353Y-77123144D01*
X155401718Y-77123188D01*
X155379636Y-77119295D01*
X155189160Y-77119295D01*
X155170851Y-77125958D01*
X155151660Y-77129343D01*
X155147309Y-77134527D01*
X155140951Y-77136842D01*
X155131208Y-77153715D01*
X155118683Y-77168643D01*
X155116965Y-77178385D01*
X155115299Y-77181271D01*
X155115877Y-77184553D01*
X155114160Y-77194295D01*
X155114160Y-77994295D01*
X154999874Y-77994295D01*
X154999874Y-77005009D01*
X158234449Y-77005009D01*
X158234449Y-78183581D01*
G37*
G36*
X114131017Y-96923581D02*
G01*
X111695616Y-96923581D01*
X111695616Y-95932246D01*
X111809902Y-95932246D01*
X111813723Y-95958012D01*
X112080390Y-96758012D01*
X112081732Y-96759703D01*
X112081791Y-96761862D01*
X112097540Y-96779623D01*
X112112281Y-96798198D01*
X112114394Y-96798630D01*
X112115828Y-96800247D01*
X112139298Y-96803727D01*
X112162542Y-96808484D01*
X112164441Y-96807455D01*
X112166577Y-96807772D01*
X112186794Y-96795351D01*
X112207656Y-96784055D01*
X112208449Y-96782047D01*
X112210290Y-96780917D01*
X112222692Y-96758012D01*
X112344883Y-96391438D01*
X112571778Y-96391438D01*
X112572963Y-96394695D01*
X112574017Y-96409629D01*
X112612113Y-96562010D01*
X112614102Y-96564955D01*
X112617792Y-96577360D01*
X112655887Y-96653550D01*
X112657073Y-96654673D01*
X112669936Y-96673042D01*
X112746126Y-96749233D01*
X112750189Y-96751127D01*
X112752537Y-96754949D01*
X112775442Y-96767351D01*
X112889728Y-96805446D01*
X112891362Y-96805401D01*
X112913445Y-96809295D01*
X112989636Y-96809295D01*
X112991174Y-96808734D01*
X113013353Y-96805446D01*
X113127638Y-96767351D01*
X113131150Y-96764563D01*
X113135617Y-96764173D01*
X113156954Y-96749233D01*
X113195050Y-96711137D01*
X113216731Y-96664640D01*
X113203454Y-96615086D01*
X113161429Y-96585659D01*
X113110321Y-96590130D01*
X113088984Y-96605071D01*
X113063407Y-96630648D01*
X112977466Y-96659295D01*
X112925615Y-96659295D01*
X112839673Y-96630648D01*
X112784608Y-96575582D01*
X112755638Y-96517642D01*
X112724087Y-96391438D01*
X113371778Y-96391438D01*
X113372963Y-96394695D01*
X113374017Y-96409629D01*
X113412113Y-96562010D01*
X113414102Y-96564955D01*
X113417792Y-96577360D01*
X113455887Y-96653550D01*
X113457073Y-96654673D01*
X113469936Y-96673042D01*
X113546126Y-96749233D01*
X113550189Y-96751127D01*
X113552537Y-96754949D01*
X113575442Y-96767351D01*
X113689728Y-96805446D01*
X113691362Y-96805401D01*
X113713445Y-96809295D01*
X113789636Y-96809295D01*
X113791174Y-96808734D01*
X113813353Y-96805446D01*
X113927638Y-96767351D01*
X113931150Y-96764563D01*
X113935617Y-96764173D01*
X113956954Y-96749233D01*
X113995050Y-96711137D01*
X114016731Y-96664640D01*
X114003454Y-96615086D01*
X113961429Y-96585659D01*
X113910321Y-96590130D01*
X113888984Y-96605071D01*
X113863407Y-96630648D01*
X113777466Y-96659295D01*
X113725615Y-96659295D01*
X113639673Y-96630648D01*
X113584608Y-96575582D01*
X113555638Y-96517642D01*
X113521778Y-96382202D01*
X113521778Y-96286387D01*
X113555638Y-96150946D01*
X113584608Y-96093006D01*
X113639672Y-96037942D01*
X113725615Y-96009295D01*
X113777466Y-96009295D01*
X113863407Y-96037942D01*
X113888985Y-96063519D01*
X113935481Y-96085199D01*
X113985036Y-96071921D01*
X114014462Y-96029895D01*
X114009990Y-95978788D01*
X113995049Y-95957451D01*
X113956953Y-95919356D01*
X113952889Y-95917461D01*
X113950543Y-95913642D01*
X113927638Y-95901239D01*
X113813353Y-95863144D01*
X113811718Y-95863188D01*
X113789636Y-95859295D01*
X113713445Y-95859295D01*
X113711906Y-95859855D01*
X113689728Y-95863144D01*
X113575442Y-95901239D01*
X113571931Y-95904025D01*
X113567463Y-95904416D01*
X113546126Y-95919357D01*
X113469936Y-95995547D01*
X113469245Y-95997028D01*
X113455887Y-96015039D01*
X113417792Y-96091230D01*
X113417386Y-96094756D01*
X113412113Y-96106580D01*
X113374017Y-96258961D01*
X113374377Y-96262409D01*
X113371778Y-96277152D01*
X113371778Y-96391438D01*
X112724087Y-96391438D01*
X112721778Y-96382202D01*
X112721778Y-96286387D01*
X112755638Y-96150946D01*
X112784608Y-96093006D01*
X112839672Y-96037942D01*
X112925615Y-96009295D01*
X112977466Y-96009295D01*
X113063407Y-96037942D01*
X113088985Y-96063519D01*
X113135481Y-96085199D01*
X113185036Y-96071921D01*
X113214462Y-96029895D01*
X113209990Y-95978788D01*
X113195049Y-95957451D01*
X113156953Y-95919356D01*
X113152889Y-95917461D01*
X113150543Y-95913642D01*
X113127638Y-95901239D01*
X113013353Y-95863144D01*
X113011718Y-95863188D01*
X112989636Y-95859295D01*
X112913445Y-95859295D01*
X112911906Y-95859855D01*
X112889728Y-95863144D01*
X112775442Y-95901239D01*
X112771931Y-95904025D01*
X112767463Y-95904416D01*
X112746126Y-95919357D01*
X112669936Y-95995547D01*
X112669245Y-95997028D01*
X112655887Y-96015039D01*
X112617792Y-96091230D01*
X112617386Y-96094756D01*
X112612113Y-96106580D01*
X112574017Y-96258961D01*
X112574377Y-96262409D01*
X112571778Y-96277152D01*
X112571778Y-96391438D01*
X112344883Y-96391438D01*
X112489358Y-95958012D01*
X112487957Y-95906728D01*
X112453920Y-95868343D01*
X112403171Y-95860817D01*
X112359459Y-95887672D01*
X112347056Y-95910578D01*
X112151540Y-96497124D01*
X111956025Y-95910578D01*
X111924134Y-95870392D01*
X111873873Y-95860106D01*
X111828759Y-95884535D01*
X111809902Y-95932246D01*
X111695616Y-95932246D01*
X111695616Y-95745009D01*
X114131017Y-95745009D01*
X114131017Y-96923581D01*
G37*
G36*
X158002337Y-100457942D02*
G01*
X158057401Y-100513006D01*
X158086371Y-100570945D01*
X158120232Y-100706387D01*
X158120232Y-100802202D01*
X158086371Y-100937643D01*
X158057401Y-100995582D01*
X158002336Y-101050648D01*
X157916395Y-101079295D01*
X157813089Y-101079295D01*
X157813089Y-100429295D01*
X157916395Y-100429295D01*
X158002337Y-100457942D01*
G37*
G36*
X159146422Y-101343581D02*
G01*
X156177374Y-101343581D01*
X156177374Y-101154295D01*
X156291660Y-101154295D01*
X156298323Y-101172603D01*
X156301708Y-101191795D01*
X156306892Y-101196145D01*
X156309207Y-101202504D01*
X156326080Y-101212246D01*
X156341008Y-101224772D01*
X156350750Y-101226489D01*
X156353636Y-101228156D01*
X156356918Y-101227577D01*
X156366660Y-101229295D01*
X156747612Y-101229295D01*
X156795821Y-101211748D01*
X156821473Y-101167319D01*
X156819176Y-101154295D01*
X156939279Y-101154295D01*
X156945942Y-101172603D01*
X156949327Y-101191795D01*
X156954511Y-101196145D01*
X156956826Y-101202504D01*
X156973699Y-101212246D01*
X156988627Y-101224772D01*
X156998369Y-101226489D01*
X157001255Y-101228156D01*
X157004537Y-101227577D01*
X157014279Y-101229295D01*
X157395231Y-101229295D01*
X157443440Y-101211748D01*
X157469092Y-101167319D01*
X157466795Y-101154295D01*
X157663089Y-101154295D01*
X157669752Y-101172603D01*
X157673137Y-101191795D01*
X157678321Y-101196145D01*
X157680636Y-101202504D01*
X157697509Y-101212246D01*
X157712437Y-101224772D01*
X157722179Y-101226489D01*
X157725065Y-101228156D01*
X157728347Y-101227577D01*
X157738089Y-101229295D01*
X157928565Y-101229295D01*
X157930103Y-101228734D01*
X157952282Y-101225446D01*
X158066568Y-101187351D01*
X158070079Y-101184563D01*
X158074548Y-101184173D01*
X158095884Y-101169233D01*
X158117358Y-101147759D01*
X158387184Y-101147759D01*
X158393025Y-101169561D01*
X158396946Y-101191795D01*
X158399573Y-101193999D01*
X158400461Y-101197313D01*
X158418952Y-101210261D01*
X158436246Y-101224772D01*
X158440830Y-101225580D01*
X158442487Y-101226740D01*
X158445775Y-101226452D01*
X158461898Y-101229295D01*
X158957136Y-101229295D01*
X159005345Y-101211748D01*
X159030997Y-101167319D01*
X159022088Y-101116795D01*
X158982788Y-101083818D01*
X158957136Y-101079295D01*
X158642964Y-101079295D01*
X158972074Y-100750185D01*
X158973968Y-100746121D01*
X158977790Y-100743774D01*
X158990192Y-100720869D01*
X159028287Y-100606583D01*
X159028242Y-100604948D01*
X159032136Y-100582866D01*
X159032136Y-100506676D01*
X159030602Y-100502463D01*
X159031645Y-100498102D01*
X159024218Y-100473135D01*
X158986123Y-100396944D01*
X158984933Y-100395818D01*
X158972074Y-100377452D01*
X158933979Y-100339357D01*
X158932497Y-100338666D01*
X158914487Y-100325308D01*
X158838296Y-100287213D01*
X158833842Y-100286700D01*
X158830407Y-100283818D01*
X158804755Y-100279295D01*
X158614279Y-100279295D01*
X158610065Y-100280828D01*
X158605705Y-100279787D01*
X158580738Y-100287213D01*
X158504548Y-100325308D01*
X158503422Y-100326496D01*
X158485057Y-100339356D01*
X158446961Y-100377451D01*
X158425279Y-100423948D01*
X158438555Y-100473502D01*
X158480581Y-100502929D01*
X158531688Y-100498459D01*
X158553025Y-100483519D01*
X158582515Y-100454029D01*
X158631984Y-100429295D01*
X158787050Y-100429295D01*
X158836519Y-100454029D01*
X158857401Y-100474911D01*
X158882136Y-100524380D01*
X158882136Y-100570696D01*
X158853488Y-100656638D01*
X158408865Y-101101262D01*
X158399327Y-101121715D01*
X158388037Y-101141271D01*
X158388633Y-101144651D01*
X158387184Y-101147759D01*
X158117358Y-101147759D01*
X158172075Y-101093041D01*
X158172766Y-101091558D01*
X158186123Y-101073550D01*
X158224218Y-100997360D01*
X158224623Y-100993833D01*
X158229897Y-100982010D01*
X158267993Y-100829628D01*
X158267632Y-100826179D01*
X158270232Y-100811438D01*
X158270232Y-100697152D01*
X158269046Y-100693894D01*
X158267993Y-100678962D01*
X158229897Y-100526580D01*
X158227908Y-100523636D01*
X158224218Y-100511230D01*
X158186123Y-100435039D01*
X158184936Y-100433915D01*
X158172074Y-100415547D01*
X158095884Y-100339357D01*
X158091820Y-100337462D01*
X158089473Y-100333641D01*
X158066568Y-100321239D01*
X157952282Y-100283144D01*
X157950647Y-100283188D01*
X157928565Y-100279295D01*
X157738089Y-100279295D01*
X157719780Y-100285958D01*
X157700589Y-100289343D01*
X157696238Y-100294527D01*
X157689880Y-100296842D01*
X157680137Y-100313715D01*
X157667612Y-100328643D01*
X157665894Y-100338385D01*
X157664228Y-100341271D01*
X157664806Y-100344553D01*
X157663089Y-100354295D01*
X157663089Y-101154295D01*
X157466795Y-101154295D01*
X157460183Y-101116795D01*
X157420883Y-101083818D01*
X157395231Y-101079295D01*
X157089279Y-101079295D01*
X157089279Y-100810247D01*
X157280945Y-100810247D01*
X157329154Y-100792700D01*
X157354806Y-100748271D01*
X157345897Y-100697747D01*
X157306597Y-100664770D01*
X157280945Y-100660247D01*
X157089279Y-100660247D01*
X157089279Y-100429295D01*
X157395231Y-100429295D01*
X157443440Y-100411748D01*
X157469092Y-100367319D01*
X157460183Y-100316795D01*
X157420883Y-100283818D01*
X157395231Y-100279295D01*
X157014279Y-100279295D01*
X156995970Y-100285958D01*
X156976779Y-100289343D01*
X156972428Y-100294527D01*
X156966070Y-100296842D01*
X156956327Y-100313715D01*
X156943802Y-100328643D01*
X156942084Y-100338385D01*
X156940418Y-100341271D01*
X156940996Y-100344553D01*
X156939279Y-100354295D01*
X156939279Y-101154295D01*
X156819176Y-101154295D01*
X156812564Y-101116795D01*
X156773264Y-101083818D01*
X156747612Y-101079295D01*
X156441660Y-101079295D01*
X156441660Y-100354295D01*
X156424113Y-100306086D01*
X156379684Y-100280434D01*
X156329160Y-100289343D01*
X156296183Y-100328643D01*
X156291660Y-100354295D01*
X156291660Y-101154295D01*
X156177374Y-101154295D01*
X156177374Y-100165009D01*
X159146422Y-100165009D01*
X159146422Y-101343581D01*
G37*
D11*
X119442455Y-62269133D02*
X119209122Y-61935800D01*
X119042455Y-62269133D02*
X119042455Y-61569133D01*
X119042455Y-61569133D02*
X119309122Y-61569133D01*
X119309122Y-61569133D02*
X119375789Y-61602466D01*
X119375789Y-61602466D02*
X119409122Y-61635800D01*
X119409122Y-61635800D02*
X119442455Y-61702466D01*
X119442455Y-61702466D02*
X119442455Y-61802466D01*
X119442455Y-61802466D02*
X119409122Y-61869133D01*
X119409122Y-61869133D02*
X119375789Y-61902466D01*
X119375789Y-61902466D02*
X119309122Y-61935800D01*
X119309122Y-61935800D02*
X119042455Y-61935800D01*
X120009122Y-62235800D02*
X119942455Y-62269133D01*
X119942455Y-62269133D02*
X119809122Y-62269133D01*
X119809122Y-62269133D02*
X119742455Y-62235800D01*
X119742455Y-62235800D02*
X119709122Y-62169133D01*
X119709122Y-62169133D02*
X119709122Y-61902466D01*
X119709122Y-61902466D02*
X119742455Y-61835800D01*
X119742455Y-61835800D02*
X119809122Y-61802466D01*
X119809122Y-61802466D02*
X119942455Y-61802466D01*
X119942455Y-61802466D02*
X120009122Y-61835800D01*
X120009122Y-61835800D02*
X120042455Y-61902466D01*
X120042455Y-61902466D02*
X120042455Y-61969133D01*
X120042455Y-61969133D02*
X119709122Y-62035800D01*
X120275789Y-61802466D02*
X120442455Y-62269133D01*
X120442455Y-62269133D02*
X120609122Y-61802466D01*
X120875788Y-62202466D02*
X120909122Y-62235800D01*
X120909122Y-62235800D02*
X120875788Y-62269133D01*
X120875788Y-62269133D02*
X120842455Y-62235800D01*
X120842455Y-62235800D02*
X120875788Y-62202466D01*
X120875788Y-62202466D02*
X120875788Y-62269133D01*
X121709121Y-62069133D02*
X122042454Y-62069133D01*
X121642454Y-62269133D02*
X121875788Y-61569133D01*
X121875788Y-61569133D02*
X122109121Y-62269133D01*
X122709121Y-62269133D02*
X122309121Y-62269133D01*
X122509121Y-62269133D02*
X122509121Y-61569133D01*
X122509121Y-61569133D02*
X122442454Y-61669133D01*
X122442454Y-61669133D02*
X122375788Y-61735800D01*
X122375788Y-61735800D02*
X122309121Y-61769133D01*
D10*
G36*
X157902337Y-97557942D02*
G01*
X157957401Y-97613006D01*
X157986371Y-97670945D01*
X158020232Y-97806387D01*
X158020232Y-97902202D01*
X157986371Y-98037643D01*
X157957401Y-98095582D01*
X157902336Y-98150648D01*
X157816395Y-98179295D01*
X157713089Y-98179295D01*
X157713089Y-97529295D01*
X157816395Y-97529295D01*
X157902337Y-97557942D01*
G37*
G36*
X159045283Y-98443581D02*
G01*
X156077374Y-98443581D01*
X156077374Y-98254295D01*
X156191660Y-98254295D01*
X156198323Y-98272603D01*
X156201708Y-98291795D01*
X156206892Y-98296145D01*
X156209207Y-98302504D01*
X156226080Y-98312246D01*
X156241008Y-98324772D01*
X156250750Y-98326489D01*
X156253636Y-98328156D01*
X156256918Y-98327577D01*
X156266660Y-98329295D01*
X156647612Y-98329295D01*
X156695821Y-98311748D01*
X156721473Y-98267319D01*
X156719176Y-98254295D01*
X156839279Y-98254295D01*
X156845942Y-98272603D01*
X156849327Y-98291795D01*
X156854511Y-98296145D01*
X156856826Y-98302504D01*
X156873699Y-98312246D01*
X156888627Y-98324772D01*
X156898369Y-98326489D01*
X156901255Y-98328156D01*
X156904537Y-98327577D01*
X156914279Y-98329295D01*
X157295231Y-98329295D01*
X157343440Y-98311748D01*
X157369092Y-98267319D01*
X157366795Y-98254295D01*
X157563089Y-98254295D01*
X157569752Y-98272603D01*
X157573137Y-98291795D01*
X157578321Y-98296145D01*
X157580636Y-98302504D01*
X157597509Y-98312246D01*
X157612437Y-98324772D01*
X157622179Y-98326489D01*
X157625065Y-98328156D01*
X157628347Y-98327577D01*
X157638089Y-98329295D01*
X157828565Y-98329295D01*
X157830103Y-98328734D01*
X157852282Y-98325446D01*
X157966568Y-98287351D01*
X157970079Y-98284563D01*
X157974548Y-98284173D01*
X157995884Y-98269233D01*
X158023846Y-98241271D01*
X158326132Y-98241271D01*
X158335041Y-98291795D01*
X158374341Y-98324772D01*
X158399993Y-98329295D01*
X158857136Y-98329295D01*
X158905345Y-98311748D01*
X158930997Y-98267319D01*
X158922088Y-98216795D01*
X158882788Y-98183818D01*
X158857136Y-98179295D01*
X158703565Y-98179295D01*
X158703565Y-97454295D01*
X158702089Y-97450241D01*
X158703110Y-97446052D01*
X158693462Y-97426538D01*
X158686018Y-97406086D01*
X158682284Y-97403930D01*
X158680373Y-97400064D01*
X158660439Y-97391317D01*
X158641589Y-97380434D01*
X158637341Y-97381182D01*
X158633392Y-97379450D01*
X158612497Y-97385563D01*
X158591065Y-97389343D01*
X158588293Y-97392645D01*
X158584154Y-97393857D01*
X158566161Y-97412692D01*
X158494088Y-97520800D01*
X158431756Y-97583131D01*
X158366452Y-97615784D01*
X158331180Y-97653038D01*
X158328105Y-97704248D01*
X158358668Y-97745454D01*
X158408567Y-97757375D01*
X158433534Y-97749948D01*
X158509725Y-97711853D01*
X158510849Y-97710665D01*
X158529217Y-97697804D01*
X158553565Y-97673455D01*
X158553565Y-98179295D01*
X158399993Y-98179295D01*
X158351784Y-98196842D01*
X158326132Y-98241271D01*
X158023846Y-98241271D01*
X158072075Y-98193041D01*
X158072766Y-98191558D01*
X158086123Y-98173550D01*
X158124218Y-98097360D01*
X158124623Y-98093833D01*
X158129897Y-98082010D01*
X158167993Y-97929628D01*
X158167632Y-97926179D01*
X158170232Y-97911438D01*
X158170232Y-97797152D01*
X158169046Y-97793894D01*
X158167993Y-97778962D01*
X158129897Y-97626580D01*
X158127908Y-97623636D01*
X158124218Y-97611230D01*
X158086123Y-97535039D01*
X158084936Y-97533915D01*
X158072074Y-97515547D01*
X157995884Y-97439357D01*
X157991820Y-97437462D01*
X157989473Y-97433641D01*
X157966568Y-97421239D01*
X157852282Y-97383144D01*
X157850647Y-97383188D01*
X157828565Y-97379295D01*
X157638089Y-97379295D01*
X157619780Y-97385958D01*
X157600589Y-97389343D01*
X157596238Y-97394527D01*
X157589880Y-97396842D01*
X157580137Y-97413715D01*
X157567612Y-97428643D01*
X157565894Y-97438385D01*
X157564228Y-97441271D01*
X157564806Y-97444553D01*
X157563089Y-97454295D01*
X157563089Y-98254295D01*
X157366795Y-98254295D01*
X157360183Y-98216795D01*
X157320883Y-98183818D01*
X157295231Y-98179295D01*
X156989279Y-98179295D01*
X156989279Y-97910247D01*
X157180945Y-97910247D01*
X157229154Y-97892700D01*
X157254806Y-97848271D01*
X157245897Y-97797747D01*
X157206597Y-97764770D01*
X157180945Y-97760247D01*
X156989279Y-97760247D01*
X156989279Y-97529295D01*
X157295231Y-97529295D01*
X157343440Y-97511748D01*
X157369092Y-97467319D01*
X157360183Y-97416795D01*
X157320883Y-97383818D01*
X157295231Y-97379295D01*
X156914279Y-97379295D01*
X156895970Y-97385958D01*
X156876779Y-97389343D01*
X156872428Y-97394527D01*
X156866070Y-97396842D01*
X156856327Y-97413715D01*
X156843802Y-97428643D01*
X156842084Y-97438385D01*
X156840418Y-97441271D01*
X156840996Y-97444553D01*
X156839279Y-97454295D01*
X156839279Y-98254295D01*
X156719176Y-98254295D01*
X156712564Y-98216795D01*
X156673264Y-98183818D01*
X156647612Y-98179295D01*
X156341660Y-98179295D01*
X156341660Y-97454295D01*
X156324113Y-97406086D01*
X156279684Y-97380434D01*
X156229160Y-97389343D01*
X156196183Y-97428643D01*
X156191660Y-97454295D01*
X156191660Y-98254295D01*
X156077374Y-98254295D01*
X156077374Y-97265009D01*
X159045283Y-97265009D01*
X159045283Y-98443581D01*
G37*
D12*
G36*
X150434637Y-107839528D02*
G01*
X150443307Y-107824983D01*
X150452328Y-107812120D01*
X150463067Y-107799480D01*
X150474264Y-107789039D01*
X150477135Y-107786772D01*
X150490585Y-107778271D01*
X150504556Y-107772552D01*
X150519050Y-107769616D01*
X150527327Y-107769187D01*
X150544170Y-107770281D01*
X150559802Y-107773566D01*
X150574223Y-107779040D01*
X150587433Y-107786703D01*
X150599433Y-107796557D01*
X150603164Y-107800327D01*
X150613125Y-107813375D01*
X150619851Y-107826550D01*
X150625146Y-107841818D01*
X150629010Y-107859179D01*
X150631071Y-107874575D01*
X150632216Y-107891311D01*
X150632473Y-107904741D01*
X150632473Y-108078032D01*
X150632015Y-108095869D01*
X150630642Y-108112378D01*
X150628352Y-108127559D01*
X150624202Y-108144668D01*
X150618620Y-108159702D01*
X150611608Y-108172661D01*
X150603164Y-108183545D01*
X150591568Y-108194128D01*
X150578761Y-108202521D01*
X150564743Y-108208725D01*
X150549515Y-108212739D01*
X150533076Y-108214564D01*
X150527327Y-108214685D01*
X150512094Y-108213926D01*
X150495755Y-108211118D01*
X150480959Y-108206242D01*
X150467705Y-108199297D01*
X150459183Y-108193070D01*
X150448594Y-108181665D01*
X150440523Y-108169042D01*
X150433379Y-108153792D01*
X150428134Y-108139077D01*
X150423533Y-108122537D01*
X150421081Y-108111737D01*
X150417192Y-108095268D01*
X150411935Y-108080482D01*
X150405311Y-108067378D01*
X150396066Y-108054464D01*
X150392138Y-108050188D01*
X150381079Y-108039832D01*
X150368966Y-108030015D01*
X150355800Y-108020736D01*
X150341580Y-108011994D01*
X150326307Y-108003791D01*
X150309981Y-107996126D01*
X150292602Y-107988999D01*
X150274169Y-107982411D01*
X150260012Y-107977827D01*
X150245842Y-107973695D01*
X150226928Y-107968887D01*
X150207992Y-107964879D01*
X150189032Y-107961674D01*
X150170050Y-107959269D01*
X150151045Y-107957667D01*
X150132017Y-107956865D01*
X150122494Y-107956765D01*
X150104838Y-107957100D01*
X150087452Y-107958105D01*
X150070337Y-107959779D01*
X150053492Y-107962123D01*
X150036917Y-107965137D01*
X150020614Y-107968821D01*
X150004580Y-107973174D01*
X149988817Y-107978197D01*
X149973325Y-107983890D01*
X149958103Y-107990253D01*
X149948105Y-107994867D01*
X149933428Y-108002430D01*
X149919073Y-108010830D01*
X149905041Y-108020067D01*
X149891330Y-108030141D01*
X149877941Y-108041052D01*
X149864874Y-108052801D01*
X149852130Y-108065387D01*
X149839707Y-108078810D01*
X149827606Y-108093070D01*
X149815827Y-108108168D01*
X149808154Y-108118698D01*
X149797285Y-108134990D01*
X149787486Y-108151855D01*
X149778755Y-108169294D01*
X149771094Y-108187305D01*
X149764501Y-108205890D01*
X149758978Y-108225048D01*
X149754524Y-108244779D01*
X149751138Y-108265083D01*
X149748822Y-108285961D01*
X149747575Y-108307411D01*
X149747337Y-108322030D01*
X149747337Y-108448426D01*
X149747769Y-108465830D01*
X149749066Y-108482870D01*
X149751227Y-108499547D01*
X149754252Y-108515860D01*
X149758142Y-108531810D01*
X149762896Y-108547396D01*
X149768515Y-108562618D01*
X149774998Y-108577478D01*
X149782345Y-108591973D01*
X149790557Y-108606106D01*
X149799633Y-108619874D01*
X149809573Y-108633280D01*
X149820378Y-108646321D01*
X149832048Y-108658999D01*
X149844581Y-108671314D01*
X149857979Y-108683265D01*
X149872190Y-108694667D01*
X149887071Y-108705333D01*
X149902621Y-108715264D01*
X149918842Y-108724458D01*
X149935731Y-108732918D01*
X149953291Y-108740641D01*
X149971521Y-108747630D01*
X149990420Y-108753882D01*
X150009989Y-108759399D01*
X150030228Y-108764180D01*
X150051136Y-108768226D01*
X150072715Y-108771536D01*
X150094963Y-108774111D01*
X150117880Y-108775950D01*
X150141468Y-108777053D01*
X150165725Y-108777421D01*
X150187457Y-108777128D01*
X150208551Y-108776249D01*
X150229008Y-108774784D01*
X150248827Y-108772733D01*
X150268009Y-108770095D01*
X150286552Y-108766872D01*
X150304459Y-108763063D01*
X150321728Y-108758668D01*
X150338359Y-108753686D01*
X150354353Y-108748119D01*
X150364661Y-108744082D01*
X150379582Y-108737198D01*
X150394807Y-108728454D01*
X150407207Y-108720119D01*
X150419800Y-108710594D01*
X150432589Y-108699878D01*
X150445572Y-108687971D01*
X150458749Y-108674873D01*
X150465411Y-108667878D01*
X150477274Y-108655938D01*
X150488132Y-108645673D01*
X150499529Y-108635813D01*
X150512174Y-108626485D01*
X150517069Y-108623548D01*
X150531752Y-108617297D01*
X150546388Y-108614101D01*
X150559200Y-108613290D01*
X150574764Y-108614436D01*
X150589580Y-108617875D01*
X150603649Y-108623607D01*
X150616972Y-108631631D01*
X150629547Y-108641948D01*
X150633572Y-108645896D01*
X150644404Y-108658398D01*
X150652995Y-108671725D01*
X150659345Y-108685876D01*
X150663454Y-108700851D01*
X150665322Y-108716650D01*
X150665446Y-108722100D01*
X150663926Y-108738930D01*
X150660338Y-108753270D01*
X150654638Y-108767896D01*
X150646828Y-108782808D01*
X150636907Y-108798006D01*
X150627450Y-108810371D01*
X150622215Y-108816622D01*
X150610084Y-108830087D01*
X150597322Y-108843004D01*
X150583929Y-108855375D01*
X150569905Y-108867197D01*
X150555250Y-108878473D01*
X150539963Y-108889201D01*
X150524046Y-108899381D01*
X150507497Y-108909014D01*
X150490318Y-108918100D01*
X150472507Y-108926639D01*
X150460282Y-108932027D01*
X150443551Y-108938859D01*
X150426605Y-108945250D01*
X150409445Y-108951201D01*
X150392070Y-108956711D01*
X150374480Y-108961780D01*
X150356675Y-108966408D01*
X150338656Y-108970595D01*
X150320423Y-108974342D01*
X150301974Y-108977648D01*
X150283311Y-108980513D01*
X150264433Y-108982937D01*
X150245341Y-108984921D01*
X150226034Y-108986463D01*
X150206512Y-108987565D01*
X150186775Y-108988226D01*
X150166824Y-108988447D01*
X150143522Y-108988161D01*
X150120508Y-108987302D01*
X150097783Y-108985871D01*
X150075348Y-108983867D01*
X150053201Y-108981291D01*
X150031344Y-108978143D01*
X150009776Y-108974422D01*
X149988497Y-108970129D01*
X149967506Y-108965263D01*
X149946805Y-108959825D01*
X149926393Y-108953814D01*
X149906271Y-108947231D01*
X149886437Y-108940075D01*
X149866892Y-108932347D01*
X149847637Y-108924047D01*
X149828670Y-108915174D01*
X149813606Y-108907582D01*
X149798823Y-108899460D01*
X149784320Y-108890809D01*
X149770098Y-108881629D01*
X149756156Y-108871919D01*
X149742494Y-108861679D01*
X149729113Y-108850910D01*
X149716013Y-108839611D01*
X149703193Y-108827783D01*
X149690654Y-108815426D01*
X149678395Y-108802538D01*
X149666417Y-108789122D01*
X149654719Y-108775176D01*
X149643301Y-108760700D01*
X149632164Y-108745695D01*
X149621308Y-108730160D01*
X149610971Y-108714270D01*
X149601301Y-108698200D01*
X149592298Y-108681950D01*
X149583962Y-108665520D01*
X149576292Y-108648909D01*
X149569290Y-108632117D01*
X149562954Y-108615146D01*
X149557286Y-108597994D01*
X149552284Y-108580662D01*
X149547949Y-108563149D01*
X149544281Y-108545457D01*
X149541280Y-108527583D01*
X149538946Y-108509530D01*
X149537279Y-108491296D01*
X149536279Y-108472882D01*
X149535945Y-108454288D01*
X149535945Y-108318733D01*
X149536244Y-108299306D01*
X149537141Y-108280041D01*
X149538637Y-108260940D01*
X149540731Y-108242003D01*
X149543423Y-108223228D01*
X149546713Y-108204616D01*
X149550601Y-108186168D01*
X149555088Y-108167882D01*
X149560172Y-108149760D01*
X149565855Y-108131801D01*
X149572136Y-108114005D01*
X149579016Y-108096373D01*
X149586493Y-108078903D01*
X149594569Y-108061597D01*
X149603243Y-108044453D01*
X149612515Y-108027473D01*
X149622363Y-108010817D01*
X149632671Y-107994644D01*
X149643440Y-107978954D01*
X149654670Y-107963749D01*
X149666361Y-107949027D01*
X149678512Y-107934789D01*
X149691125Y-107921034D01*
X149704198Y-107907764D01*
X149717732Y-107894977D01*
X149731727Y-107882674D01*
X149746182Y-107870854D01*
X149761099Y-107859518D01*
X149776476Y-107848666D01*
X149792314Y-107838298D01*
X149808613Y-107828413D01*
X149825373Y-107819012D01*
X149842472Y-107810139D01*
X149859697Y-107801839D01*
X149877047Y-107794111D01*
X149894524Y-107786955D01*
X149912127Y-107780372D01*
X149929855Y-107774361D01*
X149947710Y-107768923D01*
X149965690Y-107764057D01*
X149983797Y-107759764D01*
X150002029Y-107756043D01*
X150020387Y-107752895D01*
X150038872Y-107750319D01*
X150057482Y-107748315D01*
X150076218Y-107746884D01*
X150095080Y-107746025D01*
X150114068Y-107745739D01*
X150131204Y-107745942D01*
X150148127Y-107746551D01*
X150164838Y-107747565D01*
X150181336Y-107748985D01*
X150197621Y-107750811D01*
X150213695Y-107753042D01*
X150229555Y-107755679D01*
X150245203Y-107758722D01*
X150260639Y-107762171D01*
X150275862Y-107766025D01*
X150285893Y-107768820D01*
X150300771Y-107773364D01*
X150315457Y-107778338D01*
X150329949Y-107783745D01*
X150344248Y-107789583D01*
X150358353Y-107795852D01*
X150372266Y-107802553D01*
X150385985Y-107809685D01*
X150399511Y-107817249D01*
X150412844Y-107825244D01*
X150425984Y-107833671D01*
X150434637Y-107839528D01*
G37*
G36*
X151509979Y-107769619D02*
G01*
X151535722Y-107770915D01*
X151560766Y-107773076D01*
X151585112Y-107776102D01*
X151608760Y-107779991D01*
X151631709Y-107784746D01*
X151653960Y-107790364D01*
X151675512Y-107796847D01*
X151696367Y-107804194D01*
X151716522Y-107812406D01*
X151735980Y-107821482D01*
X151754739Y-107831423D01*
X151772799Y-107842228D01*
X151790162Y-107853897D01*
X151806825Y-107866430D01*
X151822791Y-107879829D01*
X151837963Y-107893803D01*
X151852157Y-107908159D01*
X151865372Y-107922895D01*
X151877608Y-107938012D01*
X151888865Y-107953509D01*
X151899143Y-107969387D01*
X151908443Y-107985646D01*
X151916763Y-108002286D01*
X151924105Y-108019306D01*
X151930468Y-108036707D01*
X151935851Y-108054488D01*
X151940256Y-108072651D01*
X151943682Y-108091194D01*
X151946130Y-108110117D01*
X151947598Y-108129421D01*
X151948087Y-108149106D01*
X151947717Y-108165440D01*
X151946606Y-108181607D01*
X151944755Y-108197606D01*
X151942163Y-108213438D01*
X151938830Y-108229102D01*
X151934757Y-108244599D01*
X151929943Y-108259928D01*
X151924388Y-108275090D01*
X151918093Y-108290084D01*
X151911057Y-108304911D01*
X151905956Y-108314703D01*
X151897317Y-108329249D01*
X151887340Y-108343760D01*
X151876022Y-108358237D01*
X151863366Y-108372680D01*
X151852994Y-108383490D01*
X151841869Y-108394280D01*
X151829990Y-108405051D01*
X151817358Y-108415802D01*
X151803973Y-108426535D01*
X151799344Y-108430108D01*
X151785301Y-108440504D01*
X151771201Y-108450398D01*
X151757042Y-108459790D01*
X151742826Y-108468679D01*
X151728552Y-108477066D01*
X151714220Y-108484951D01*
X151699829Y-108492333D01*
X151685381Y-108499213D01*
X151670875Y-108505591D01*
X151656311Y-108511466D01*
X151646570Y-108515104D01*
X151631569Y-108520080D01*
X151615692Y-108524567D01*
X151598939Y-108528564D01*
X151581311Y-108532071D01*
X151562807Y-108535090D01*
X151543427Y-108537618D01*
X151523171Y-108539658D01*
X151502039Y-108541208D01*
X151480031Y-108542268D01*
X151464873Y-108542703D01*
X151449325Y-108542921D01*
X151441406Y-108542948D01*
X151241371Y-108542948D01*
X151241371Y-108753974D01*
X151454595Y-108753974D01*
X151472964Y-108754432D01*
X151489972Y-108755806D01*
X151505617Y-108758095D01*
X151523257Y-108762245D01*
X151538768Y-108767827D01*
X151552151Y-108774839D01*
X151563405Y-108783283D01*
X151574486Y-108794780D01*
X151583274Y-108807566D01*
X151589770Y-108821639D01*
X151593973Y-108837001D01*
X151595884Y-108853651D01*
X151596011Y-108859487D01*
X151594865Y-108876578D01*
X151591426Y-108892408D01*
X151585694Y-108906975D01*
X151577670Y-108920280D01*
X151567353Y-108932323D01*
X151563405Y-108936057D01*
X151549645Y-108945893D01*
X151535836Y-108952535D01*
X151519899Y-108957764D01*
X151501833Y-108961580D01*
X151485848Y-108963615D01*
X151468500Y-108964745D01*
X151454595Y-108965000D01*
X150997006Y-108965000D01*
X150978636Y-108964547D01*
X150961629Y-108963191D01*
X150945984Y-108960929D01*
X150928344Y-108956831D01*
X150912832Y-108951320D01*
X150899449Y-108944395D01*
X150888196Y-108936057D01*
X150877239Y-108924435D01*
X150868549Y-108911550D01*
X150862126Y-108897404D01*
X150857971Y-108881995D01*
X150856081Y-108865324D01*
X150855956Y-108859487D01*
X150857115Y-108842408D01*
X150860592Y-108826617D01*
X150866388Y-108812114D01*
X150874503Y-108798899D01*
X150884936Y-108786972D01*
X150888928Y-108783283D01*
X150902774Y-108773322D01*
X150916576Y-108766596D01*
X150932434Y-108761301D01*
X150950350Y-108757437D01*
X150966164Y-108755376D01*
X150983294Y-108754231D01*
X150997006Y-108753974D01*
X151029979Y-108753974D01*
X151029979Y-107980212D01*
X151241371Y-107980212D01*
X151241371Y-108331922D01*
X151437009Y-108331922D01*
X151454051Y-108331707D01*
X151470646Y-108331063D01*
X151486795Y-108329990D01*
X151502497Y-108328487D01*
X151517753Y-108326555D01*
X151532562Y-108324194D01*
X151553938Y-108319847D01*
X151574310Y-108314534D01*
X151593677Y-108308255D01*
X151612040Y-108301010D01*
X151629398Y-108292799D01*
X151645751Y-108283622D01*
X151656095Y-108276967D01*
X151670565Y-108266402D01*
X151683611Y-108255449D01*
X151695234Y-108244111D01*
X151705434Y-108232385D01*
X151714211Y-108220274D01*
X151723699Y-108203524D01*
X151730657Y-108186088D01*
X151735085Y-108167964D01*
X151736983Y-108149153D01*
X151737062Y-108144344D01*
X151736037Y-108128206D01*
X151732963Y-108112584D01*
X151727840Y-108097478D01*
X151720667Y-108082886D01*
X151711445Y-108068810D01*
X151700173Y-108055248D01*
X151686853Y-108042202D01*
X151675517Y-108032756D01*
X151671482Y-108029672D01*
X151658759Y-108020833D01*
X151645044Y-108012863D01*
X151630337Y-108005763D01*
X151614639Y-107999532D01*
X151597948Y-107994171D01*
X151580266Y-107989679D01*
X151561592Y-107986057D01*
X151541927Y-107983304D01*
X151521269Y-107981420D01*
X151499620Y-107980406D01*
X151484637Y-107980212D01*
X151241371Y-107980212D01*
X151029979Y-107980212D01*
X150997006Y-107980212D01*
X150978636Y-107979760D01*
X150961629Y-107978403D01*
X150945984Y-107976142D01*
X150928344Y-107972044D01*
X150912832Y-107966532D01*
X150899449Y-107959608D01*
X150888196Y-107951270D01*
X150877239Y-107939648D01*
X150868549Y-107926763D01*
X150862126Y-107912617D01*
X150857971Y-107897208D01*
X150856081Y-107880537D01*
X150855956Y-107874699D01*
X150857089Y-107857621D01*
X150860489Y-107841830D01*
X150866156Y-107827327D01*
X150874091Y-107814112D01*
X150884292Y-107802185D01*
X150888196Y-107798496D01*
X150901956Y-107788535D01*
X150915764Y-107781809D01*
X150931701Y-107776514D01*
X150949767Y-107772650D01*
X150965753Y-107770589D01*
X150983101Y-107769444D01*
X150997006Y-107769187D01*
X151483538Y-107769187D01*
X151509979Y-107769619D01*
G37*
G36*
X153575478Y-108894658D02*
G01*
X153567036Y-108907953D01*
X153557590Y-108921829D01*
X153547515Y-108935152D01*
X153537245Y-108946601D01*
X153530415Y-108952543D01*
X153516693Y-108960134D01*
X153502214Y-108964014D01*
X153489016Y-108965000D01*
X153474263Y-108964212D01*
X153457811Y-108961190D01*
X153442724Y-108955900D01*
X153429002Y-108948344D01*
X153416646Y-108938521D01*
X153410980Y-108932759D01*
X153401019Y-108919051D01*
X153394293Y-108905364D01*
X153388998Y-108889620D01*
X153385134Y-108871819D01*
X153383073Y-108856097D01*
X153381928Y-108839058D01*
X153381671Y-108825415D01*
X153381671Y-108683632D01*
X153382129Y-108665354D01*
X153383503Y-108648438D01*
X153385792Y-108632885D01*
X153389943Y-108615359D01*
X153395524Y-108599962D01*
X153402536Y-108586694D01*
X153410980Y-108575554D01*
X153422641Y-108564473D01*
X153435641Y-108555685D01*
X153449981Y-108549189D01*
X153465660Y-108544986D01*
X153482679Y-108543075D01*
X153488649Y-108542948D01*
X153504420Y-108543842D01*
X153519033Y-108546524D01*
X153534317Y-108551779D01*
X153548090Y-108559370D01*
X153551297Y-108561632D01*
X153563181Y-108572555D01*
X153572340Y-108584704D01*
X153580342Y-108599272D01*
X153586280Y-108613685D01*
X153589766Y-108624281D01*
X153594875Y-108639775D01*
X153600900Y-108655345D01*
X153607873Y-108669834D01*
X153616717Y-108682986D01*
X153617609Y-108683998D01*
X153630498Y-108695440D01*
X153643718Y-108705034D01*
X153659192Y-108714681D01*
X153673194Y-108722438D01*
X153688638Y-108730229D01*
X153705525Y-108738054D01*
X153719137Y-108743946D01*
X153723855Y-108745914D01*
X153738269Y-108751544D01*
X153752934Y-108756621D01*
X153767850Y-108761144D01*
X153783017Y-108765113D01*
X153798436Y-108768529D01*
X153814105Y-108771390D01*
X153830026Y-108773698D01*
X153846198Y-108775452D01*
X153862621Y-108776652D01*
X153879295Y-108777298D01*
X153890551Y-108777421D01*
X153908029Y-108777183D01*
X153925109Y-108776471D01*
X153941792Y-108775283D01*
X153958076Y-108773620D01*
X153973963Y-108771482D01*
X153989452Y-108768869D01*
X154004543Y-108765780D01*
X154019236Y-108762217D01*
X154033532Y-108758178D01*
X154054229Y-108751230D01*
X154074031Y-108743212D01*
X154092937Y-108734125D01*
X154110949Y-108723969D01*
X154122459Y-108716605D01*
X154136026Y-108707085D01*
X154147784Y-108697027D01*
X154159938Y-108683698D01*
X154169265Y-108669528D01*
X154175766Y-108654518D01*
X154179440Y-108638666D01*
X154180345Y-108625380D01*
X154179013Y-108609722D01*
X154175015Y-108594485D01*
X154168354Y-108579669D01*
X154159027Y-108565273D01*
X154152501Y-108557236D01*
X154140823Y-108545670D01*
X154129203Y-108536622D01*
X154115865Y-108528110D01*
X154100810Y-108520135D01*
X154084037Y-108512697D01*
X154069382Y-108507133D01*
X154061643Y-108504480D01*
X154046325Y-108499764D01*
X154030477Y-108495631D01*
X154011434Y-108491177D01*
X153995056Y-108487627D01*
X153976881Y-108483896D01*
X153956910Y-108479985D01*
X153935142Y-108475893D01*
X153919631Y-108473065D01*
X153903322Y-108470157D01*
X153886215Y-108467169D01*
X153877362Y-108465645D01*
X153856075Y-108461884D01*
X153835447Y-108458020D01*
X153815478Y-108454053D01*
X153796166Y-108449983D01*
X153777513Y-108445810D01*
X153759518Y-108441534D01*
X153742182Y-108437154D01*
X153725504Y-108432672D01*
X153709484Y-108428087D01*
X153694122Y-108423399D01*
X153679419Y-108418607D01*
X153665374Y-108413713D01*
X153645541Y-108406178D01*
X153627189Y-108398411D01*
X153615778Y-108393105D01*
X153599479Y-108384762D01*
X153583831Y-108375807D01*
X153568833Y-108366240D01*
X153554486Y-108356062D01*
X153540789Y-108345272D01*
X153527743Y-108333870D01*
X153515347Y-108321856D01*
X153503601Y-108309230D01*
X153492506Y-108295993D01*
X153482062Y-108282144D01*
X153475460Y-108272571D01*
X153466294Y-108257830D01*
X153458029Y-108242870D01*
X153450666Y-108227691D01*
X153444205Y-108212293D01*
X153438645Y-108196676D01*
X153433986Y-108180840D01*
X153430230Y-108164785D01*
X153427375Y-108148511D01*
X153425421Y-108132018D01*
X153424369Y-108115306D01*
X153424169Y-108104043D01*
X153424664Y-108086278D01*
X153426150Y-108068792D01*
X153428626Y-108051588D01*
X153432092Y-108034663D01*
X153436548Y-108018019D01*
X153441995Y-108001656D01*
X153448432Y-107985573D01*
X153455860Y-107969771D01*
X153464277Y-107954249D01*
X153473685Y-107939008D01*
X153484084Y-107924047D01*
X153495473Y-107909367D01*
X153507852Y-107894967D01*
X153521221Y-107880847D01*
X153535581Y-107867009D01*
X153550931Y-107853450D01*
X153567074Y-107840407D01*
X153583812Y-107828206D01*
X153601146Y-107816845D01*
X153619075Y-107806327D01*
X153637599Y-107796650D01*
X153656719Y-107787814D01*
X153676434Y-107779820D01*
X153696744Y-107772667D01*
X153717650Y-107766356D01*
X153739151Y-107760886D01*
X153761247Y-107756258D01*
X153783939Y-107752471D01*
X153807226Y-107749526D01*
X153831108Y-107747422D01*
X153855586Y-107746160D01*
X153880659Y-107745739D01*
X153895803Y-107745942D01*
X153910734Y-107746551D01*
X153925452Y-107747565D01*
X153944747Y-107749548D01*
X153963663Y-107752253D01*
X153982202Y-107755679D01*
X154000362Y-107759827D01*
X154018145Y-107764695D01*
X154031235Y-107768820D01*
X154048437Y-107774974D01*
X154065238Y-107781895D01*
X154081638Y-107789583D01*
X154097638Y-107798038D01*
X154113237Y-107807260D01*
X154128436Y-107817249D01*
X154143233Y-107828005D01*
X154157630Y-107839528D01*
X154165389Y-107826958D01*
X154175725Y-107812120D01*
X154186049Y-107799480D01*
X154196362Y-107789039D01*
X154209236Y-107779078D01*
X154224662Y-107771659D01*
X154240062Y-107769187D01*
X154256905Y-107770346D01*
X154272537Y-107773823D01*
X154286958Y-107779619D01*
X154300169Y-107787734D01*
X154312169Y-107798167D01*
X154315900Y-107802159D01*
X154325860Y-107815919D01*
X154332586Y-107829728D01*
X154337882Y-107845665D01*
X154341746Y-107863731D01*
X154343806Y-107879717D01*
X154344951Y-107897064D01*
X154345209Y-107910969D01*
X154345209Y-108071803D01*
X154344751Y-108090436D01*
X154343377Y-108107684D01*
X154341087Y-108123547D01*
X154337882Y-108138024D01*
X154332586Y-108154172D01*
X154325860Y-108168156D01*
X154315900Y-108182079D01*
X154304303Y-108193160D01*
X154291496Y-108201949D01*
X154277479Y-108208444D01*
X154262250Y-108212648D01*
X154245811Y-108214558D01*
X154240062Y-108214685D01*
X154223420Y-108213563D01*
X154207795Y-108210198D01*
X154193187Y-108204588D01*
X154179595Y-108196734D01*
X154172285Y-108191238D01*
X154161637Y-108180476D01*
X154153485Y-108167528D01*
X154147363Y-108153807D01*
X154142039Y-108137664D01*
X154138213Y-108122362D01*
X154134512Y-108106829D01*
X154129669Y-108090102D01*
X154124388Y-108075462D01*
X154117674Y-108061019D01*
X154109270Y-108047990D01*
X154099158Y-108036264D01*
X154087596Y-108025128D01*
X154074586Y-108014582D01*
X154060126Y-108004627D01*
X154047515Y-107997088D01*
X154033977Y-107989927D01*
X154019511Y-107983143D01*
X154004290Y-107976961D01*
X153988485Y-107971603D01*
X153972095Y-107967069D01*
X153955122Y-107963360D01*
X153937566Y-107960474D01*
X153919425Y-107958414D01*
X153900700Y-107957177D01*
X153881392Y-107956765D01*
X153860378Y-107957197D01*
X153840201Y-107958491D01*
X153820862Y-107960648D01*
X153802360Y-107963669D01*
X153784695Y-107967552D01*
X153767867Y-107972298D01*
X153751877Y-107977908D01*
X153736724Y-107984380D01*
X153722407Y-107991715D01*
X153708929Y-107999913D01*
X153700408Y-108005858D01*
X153688557Y-108015098D01*
X153674569Y-108027529D01*
X153662654Y-108040085D01*
X153652811Y-108052768D01*
X153645040Y-108065576D01*
X153638240Y-108081764D01*
X153634679Y-108098148D01*
X153634096Y-108108073D01*
X153635393Y-108123819D01*
X153639285Y-108139319D01*
X153645772Y-108154573D01*
X153653396Y-108167453D01*
X153661207Y-108178049D01*
X153672399Y-108190173D01*
X153685370Y-108201267D01*
X153697536Y-108209725D01*
X153710936Y-108217468D01*
X153725571Y-108224494D01*
X153741441Y-108230806D01*
X153755526Y-108235330D01*
X153771251Y-108239528D01*
X153785645Y-108243016D01*
X153802266Y-108246793D01*
X153821116Y-108250860D01*
X153842194Y-108255216D01*
X153857484Y-108258282D01*
X153873765Y-108261476D01*
X153891035Y-108264799D01*
X153909296Y-108268251D01*
X153928547Y-108271832D01*
X153938545Y-108273670D01*
X153958539Y-108277361D01*
X153977946Y-108281106D01*
X153996766Y-108284906D01*
X154015000Y-108288760D01*
X154032647Y-108292668D01*
X154049707Y-108296631D01*
X154066181Y-108300648D01*
X154082068Y-108304719D01*
X154097368Y-108308845D01*
X154112081Y-108313026D01*
X154126207Y-108317260D01*
X154146297Y-108323714D01*
X154165066Y-108330291D01*
X154182516Y-108336989D01*
X154188039Y-108339249D01*
X154204127Y-108346342D01*
X154219693Y-108354156D01*
X154234738Y-108362691D01*
X154249261Y-108371947D01*
X154263263Y-108381925D01*
X154276743Y-108392624D01*
X154289701Y-108404044D01*
X154302138Y-108416186D01*
X154314053Y-108429049D01*
X154325447Y-108442633D01*
X154332752Y-108452090D01*
X154343097Y-108466769D01*
X154352425Y-108481958D01*
X154360734Y-108497656D01*
X154368026Y-108513862D01*
X154374301Y-108530577D01*
X154379558Y-108547801D01*
X154383798Y-108565533D01*
X154387020Y-108583775D01*
X154389225Y-108602525D01*
X154390412Y-108621783D01*
X154390638Y-108634905D01*
X154390207Y-108653175D01*
X154388915Y-108670981D01*
X154386761Y-108688323D01*
X154383746Y-108705201D01*
X154379869Y-108721616D01*
X154375131Y-108737567D01*
X154369531Y-108753055D01*
X154363069Y-108768079D01*
X154355746Y-108782639D01*
X154347562Y-108796735D01*
X154338516Y-108810368D01*
X154328608Y-108823537D01*
X154317839Y-108836242D01*
X154306208Y-108848484D01*
X154293716Y-108860262D01*
X154280362Y-108871577D01*
X154261775Y-108885729D01*
X154242558Y-108898968D01*
X154222712Y-108911294D01*
X154202235Y-108922707D01*
X154181129Y-108933207D01*
X154159393Y-108942794D01*
X154137028Y-108951468D01*
X154114033Y-108959229D01*
X154090408Y-108966077D01*
X154066154Y-108972012D01*
X154041270Y-108977034D01*
X154015756Y-108981142D01*
X153989612Y-108984338D01*
X153962839Y-108986621D01*
X153935436Y-108987990D01*
X153907404Y-108988447D01*
X153891024Y-108988241D01*
X153874723Y-108987622D01*
X153858498Y-108986592D01*
X153842351Y-108985150D01*
X153826281Y-108983295D01*
X153810288Y-108981028D01*
X153794373Y-108978349D01*
X153778535Y-108975258D01*
X153762774Y-108971754D01*
X153747091Y-108967839D01*
X153736678Y-108965000D01*
X153721192Y-108960397D01*
X153705783Y-108955382D01*
X153690451Y-108949956D01*
X153675197Y-108944117D01*
X153660020Y-108937866D01*
X153644921Y-108931202D01*
X153629898Y-108924127D01*
X153614953Y-108916639D01*
X153600085Y-108908740D01*
X153585295Y-108900428D01*
X153575478Y-108894658D01*
G37*
G36*
X155174118Y-107746432D02*
G01*
X155202816Y-107748510D01*
X155231076Y-107751973D01*
X155258898Y-107756822D01*
X155286283Y-107763056D01*
X155313229Y-107770675D01*
X155339738Y-107779679D01*
X155365808Y-107790069D01*
X155391441Y-107801844D01*
X155416635Y-107815005D01*
X155441392Y-107829551D01*
X155465711Y-107845482D01*
X155477706Y-107853967D01*
X155489592Y-107862798D01*
X155501368Y-107871976D01*
X155513035Y-107881500D01*
X155524592Y-107891370D01*
X155536040Y-107901587D01*
X155547378Y-107912150D01*
X155558607Y-107923060D01*
X155569607Y-107934208D01*
X155580257Y-107945532D01*
X155590558Y-107957034D01*
X155600510Y-107968712D01*
X155610113Y-107980567D01*
X155619367Y-107992599D01*
X155628271Y-108004807D01*
X155636826Y-108017192D01*
X155645032Y-108029754D01*
X155652889Y-108042493D01*
X155660396Y-108055408D01*
X155667555Y-108068500D01*
X155674364Y-108081769D01*
X155680824Y-108095215D01*
X155686935Y-108108837D01*
X155692697Y-108122636D01*
X155698109Y-108136612D01*
X155703172Y-108150765D01*
X155707886Y-108165094D01*
X155712251Y-108179600D01*
X155716267Y-108194283D01*
X155719934Y-108209143D01*
X155723251Y-108224179D01*
X155726219Y-108239392D01*
X155728838Y-108254782D01*
X155731108Y-108270349D01*
X155733028Y-108286092D01*
X155734600Y-108302012D01*
X155735822Y-108318109D01*
X155736695Y-108334382D01*
X155737218Y-108350832D01*
X155737393Y-108367459D01*
X155737218Y-108384042D01*
X155736695Y-108400449D01*
X155735822Y-108416682D01*
X155734600Y-108432741D01*
X155733028Y-108448625D01*
X155731108Y-108464334D01*
X155728838Y-108479869D01*
X155726219Y-108495229D01*
X155723251Y-108510414D01*
X155719934Y-108525425D01*
X155716267Y-108540262D01*
X155712251Y-108554923D01*
X155707886Y-108569411D01*
X155703172Y-108583723D01*
X155698109Y-108597861D01*
X155692697Y-108611824D01*
X155686935Y-108625613D01*
X155680824Y-108639227D01*
X155674364Y-108652667D01*
X155667555Y-108665932D01*
X155660396Y-108679022D01*
X155652889Y-108691938D01*
X155645032Y-108704679D01*
X155636826Y-108717246D01*
X155628271Y-108729638D01*
X155619367Y-108741855D01*
X155610113Y-108753898D01*
X155600510Y-108765766D01*
X155590558Y-108777460D01*
X155580257Y-108788979D01*
X155569607Y-108800323D01*
X155558607Y-108811493D01*
X155547378Y-108822380D01*
X155536040Y-108832921D01*
X155524592Y-108843116D01*
X155513035Y-108852966D01*
X155501368Y-108862471D01*
X155489592Y-108871630D01*
X155477706Y-108880443D01*
X155465711Y-108888910D01*
X155441392Y-108904808D01*
X155416635Y-108919324D01*
X155391441Y-108932457D01*
X155365808Y-108944208D01*
X155339738Y-108954577D01*
X155313229Y-108963563D01*
X155286283Y-108971166D01*
X155258898Y-108977387D01*
X155231076Y-108982226D01*
X155202816Y-108985682D01*
X155174118Y-108987756D01*
X155144982Y-108988447D01*
X155118720Y-108987872D01*
X155092781Y-108986146D01*
X155067165Y-108983269D01*
X155041873Y-108979242D01*
X155016905Y-108974064D01*
X154992260Y-108967736D01*
X154967938Y-108960257D01*
X154943940Y-108951627D01*
X154920265Y-108941847D01*
X154896913Y-108930916D01*
X154873885Y-108918835D01*
X154851181Y-108905603D01*
X154828800Y-108891220D01*
X154806742Y-108875687D01*
X154785008Y-108859003D01*
X154763597Y-108841168D01*
X154750659Y-108829637D01*
X154738132Y-108817894D01*
X154726015Y-108805941D01*
X154714309Y-108793776D01*
X154703014Y-108781400D01*
X154692130Y-108768813D01*
X154681656Y-108756015D01*
X154671594Y-108743006D01*
X154661941Y-108729785D01*
X154652700Y-108716354D01*
X154643869Y-108702712D01*
X154635449Y-108688858D01*
X154627440Y-108674794D01*
X154619842Y-108660518D01*
X154612654Y-108646031D01*
X154605877Y-108631333D01*
X154599511Y-108616424D01*
X154593555Y-108601304D01*
X154588010Y-108585973D01*
X154582876Y-108570431D01*
X154578153Y-108554678D01*
X154573840Y-108538713D01*
X154569938Y-108522538D01*
X154566447Y-108506151D01*
X154563367Y-108489553D01*
X154560697Y-108472745D01*
X154558438Y-108455725D01*
X154556590Y-108438494D01*
X154555152Y-108421052D01*
X154554125Y-108403399D01*
X154553509Y-108385535D01*
X154553304Y-108367459D01*
X154764696Y-108367459D01*
X154765150Y-108389342D01*
X154766511Y-108410753D01*
X154768779Y-108431692D01*
X154771955Y-108452158D01*
X154776037Y-108472152D01*
X154781028Y-108491674D01*
X154786925Y-108510724D01*
X154793730Y-108529301D01*
X154801443Y-108547406D01*
X154810062Y-108565038D01*
X154819589Y-108582199D01*
X154830023Y-108598887D01*
X154841365Y-108615103D01*
X154853614Y-108630847D01*
X154866770Y-108646118D01*
X154880833Y-108660917D01*
X154895518Y-108675025D01*
X154910446Y-108688223D01*
X154925617Y-108700510D01*
X154941032Y-108711888D01*
X154956689Y-108722355D01*
X154972590Y-108731912D01*
X154988735Y-108740558D01*
X155005122Y-108748295D01*
X155021753Y-108755121D01*
X155038628Y-108761038D01*
X155055745Y-108766044D01*
X155073106Y-108770140D01*
X155090710Y-108773325D01*
X155108557Y-108775601D01*
X155126648Y-108776966D01*
X155144982Y-108777421D01*
X155163403Y-108776969D01*
X155181573Y-108775612D01*
X155199490Y-108773351D01*
X155217156Y-108770185D01*
X155234570Y-108766115D01*
X155251731Y-108761141D01*
X155268641Y-108755262D01*
X155285300Y-108748478D01*
X155301706Y-108740790D01*
X155317860Y-108732198D01*
X155333763Y-108722701D01*
X155349413Y-108712300D01*
X155364812Y-108700994D01*
X155379959Y-108688784D01*
X155394854Y-108675669D01*
X155409497Y-108661650D01*
X155423605Y-108646891D01*
X155436803Y-108631648D01*
X155449090Y-108615922D01*
X155460467Y-108599711D01*
X155470935Y-108583018D01*
X155480492Y-108565840D01*
X155489138Y-108548179D01*
X155496875Y-108530034D01*
X155503701Y-108511405D01*
X155509618Y-108492292D01*
X155514624Y-108472696D01*
X155518719Y-108452616D01*
X155521905Y-108432053D01*
X155524181Y-108411005D01*
X155525546Y-108389474D01*
X155526001Y-108367459D01*
X155525546Y-108345488D01*
X155524181Y-108323994D01*
X155521905Y-108302978D01*
X155518719Y-108282440D01*
X155514624Y-108262380D01*
X155509618Y-108242798D01*
X155503701Y-108223694D01*
X155496875Y-108205068D01*
X155489138Y-108186920D01*
X155480492Y-108169251D01*
X155470935Y-108152059D01*
X155460467Y-108135345D01*
X155449090Y-108119109D01*
X155436803Y-108103351D01*
X155423605Y-108088071D01*
X155409497Y-108073269D01*
X155394854Y-108059161D01*
X155379959Y-108045963D01*
X155364812Y-108033676D01*
X155349413Y-108022298D01*
X155333763Y-108011831D01*
X155317860Y-108002274D01*
X155301706Y-107993628D01*
X155285300Y-107985891D01*
X155268641Y-107979065D01*
X155251731Y-107973148D01*
X155234570Y-107968142D01*
X155217156Y-107964047D01*
X155199490Y-107960861D01*
X155181573Y-107958585D01*
X155163403Y-107957220D01*
X155144982Y-107956765D01*
X155126648Y-107957223D01*
X155108557Y-107958597D01*
X155090710Y-107960887D01*
X155073106Y-107964092D01*
X155055745Y-107968214D01*
X155038628Y-107973251D01*
X155021753Y-107979205D01*
X155005122Y-107986074D01*
X154988735Y-107993859D01*
X154972590Y-108002561D01*
X154956689Y-108012178D01*
X154941032Y-108022711D01*
X154925617Y-108034159D01*
X154910446Y-108046524D01*
X154895518Y-108059805D01*
X154880833Y-108074002D01*
X154866770Y-108088844D01*
X154853614Y-108104152D01*
X154841365Y-108119927D01*
X154830023Y-108136169D01*
X154819589Y-108152877D01*
X154810062Y-108170052D01*
X154801443Y-108187693D01*
X154793730Y-108205801D01*
X154786925Y-108224376D01*
X154781028Y-108243416D01*
X154776037Y-108262924D01*
X154771955Y-108282898D01*
X154768779Y-108303338D01*
X154766511Y-108324246D01*
X154765150Y-108345619D01*
X154764696Y-108367459D01*
X154553304Y-108367459D01*
X154553509Y-108349383D01*
X154554125Y-108331517D01*
X154555152Y-108313860D01*
X154556590Y-108296413D01*
X154558438Y-108279176D01*
X154560697Y-108262148D01*
X154563367Y-108245330D01*
X154566447Y-108228722D01*
X154569938Y-108212323D01*
X154573840Y-108196134D01*
X154578153Y-108180155D01*
X154582876Y-108164385D01*
X154588010Y-108148825D01*
X154593555Y-108133474D01*
X154599511Y-108118333D01*
X154605877Y-108103402D01*
X154612654Y-108088681D01*
X154619842Y-108074169D01*
X154627440Y-108059867D01*
X154635449Y-108045774D01*
X154643869Y-108031892D01*
X154652700Y-108018218D01*
X154661941Y-108004755D01*
X154671594Y-107991501D01*
X154681656Y-107978457D01*
X154692130Y-107965622D01*
X154703014Y-107952997D01*
X154714309Y-107940582D01*
X154726015Y-107928376D01*
X154738132Y-107916381D01*
X154750659Y-107904594D01*
X154763597Y-107893018D01*
X154785008Y-107875183D01*
X154806742Y-107858499D01*
X154828800Y-107842966D01*
X154851181Y-107828583D01*
X154873885Y-107815351D01*
X154896913Y-107803270D01*
X154920265Y-107792339D01*
X154943940Y-107782559D01*
X154967938Y-107773929D01*
X154992260Y-107766450D01*
X155016905Y-107760122D01*
X155041873Y-107754944D01*
X155067165Y-107750917D01*
X155092781Y-107748040D01*
X155118720Y-107746315D01*
X155144982Y-107745739D01*
X155174118Y-107746432D01*
G37*
G36*
X156074448Y-108160464D02*
G01*
X156074448Y-108753974D01*
X156150652Y-108753974D01*
X156169016Y-108754432D01*
X156186006Y-108755806D01*
X156201622Y-108758095D01*
X156219211Y-108762245D01*
X156234652Y-108767827D01*
X156247947Y-108774839D01*
X156259096Y-108783283D01*
X156270177Y-108794780D01*
X156278965Y-108807566D01*
X156285461Y-108821639D01*
X156289664Y-108837001D01*
X156291575Y-108853651D01*
X156291702Y-108859487D01*
X156290556Y-108876578D01*
X156287117Y-108892408D01*
X156281385Y-108906975D01*
X156273361Y-108920280D01*
X156263044Y-108932323D01*
X156259096Y-108936057D01*
X156245460Y-108945893D01*
X156231736Y-108952535D01*
X156215865Y-108957764D01*
X156197847Y-108961580D01*
X156181887Y-108963615D01*
X156164554Y-108964745D01*
X156150652Y-108965000D01*
X155873314Y-108965000D01*
X155854950Y-108964547D01*
X155837960Y-108963191D01*
X155822344Y-108960929D01*
X155804755Y-108956831D01*
X155789314Y-108951320D01*
X155776019Y-108944395D01*
X155764870Y-108936057D01*
X155753789Y-108924435D01*
X155745001Y-108911550D01*
X155738505Y-108897404D01*
X155734302Y-108881995D01*
X155732391Y-108865324D01*
X155732264Y-108859487D01*
X155733397Y-108842408D01*
X155736798Y-108826617D01*
X155742465Y-108812114D01*
X155750399Y-108798899D01*
X155760600Y-108786972D01*
X155764504Y-108783283D01*
X155777680Y-108773322D01*
X155793304Y-108765423D01*
X155808193Y-108760414D01*
X155824781Y-108756836D01*
X155843069Y-108754689D01*
X155858923Y-108754002D01*
X155863056Y-108753974D01*
X155863056Y-107980212D01*
X155846325Y-107979506D01*
X155830935Y-107977386D01*
X155814238Y-107972977D01*
X155799473Y-107966532D01*
X155786640Y-107958053D01*
X155779159Y-107951270D01*
X155769572Y-107939648D01*
X155761968Y-107926763D01*
X155756348Y-107912617D01*
X155752712Y-107897208D01*
X155751059Y-107880537D01*
X155750949Y-107874699D01*
X155752082Y-107857621D01*
X155755482Y-107841830D01*
X155761150Y-107827327D01*
X155769084Y-107814112D01*
X155779285Y-107802185D01*
X155783189Y-107798496D01*
X155796949Y-107788535D01*
X155810757Y-107781809D01*
X155826694Y-107776514D01*
X155844760Y-107772650D01*
X155860746Y-107770589D01*
X155878094Y-107769444D01*
X155891999Y-107769187D01*
X156123907Y-107769187D01*
X156411503Y-108378817D01*
X156693604Y-107769187D01*
X156927711Y-107769187D01*
X156946075Y-107769644D01*
X156963065Y-107771018D01*
X156978681Y-107773308D01*
X156996269Y-107777458D01*
X157011711Y-107783040D01*
X157025006Y-107790052D01*
X157036154Y-107798496D01*
X157047236Y-107809993D01*
X157056024Y-107822779D01*
X157062520Y-107836852D01*
X157066723Y-107852214D01*
X157068633Y-107868863D01*
X157068761Y-107874699D01*
X157067743Y-107891791D01*
X157064691Y-107907621D01*
X157059603Y-107922188D01*
X157052481Y-107935493D01*
X157043323Y-107947536D01*
X157039818Y-107951270D01*
X157028063Y-107961106D01*
X157014505Y-107968907D01*
X156999143Y-107974673D01*
X156981978Y-107978403D01*
X156966297Y-107979958D01*
X156956287Y-107980212D01*
X156956287Y-108753974D01*
X156972499Y-108754432D01*
X156987611Y-108755806D01*
X157004956Y-108758811D01*
X157020584Y-108763247D01*
X157034494Y-108769115D01*
X157048920Y-108778045D01*
X157055205Y-108783283D01*
X157066162Y-108794780D01*
X157074852Y-108807566D01*
X157081274Y-108821639D01*
X157085430Y-108837001D01*
X157087319Y-108853651D01*
X157087445Y-108859487D01*
X157086299Y-108876578D01*
X157082860Y-108892408D01*
X157077129Y-108906975D01*
X157069104Y-108920280D01*
X157058787Y-108932323D01*
X157054839Y-108936057D01*
X157041079Y-108945893D01*
X157027270Y-108952535D01*
X157011333Y-108957764D01*
X156993267Y-108961580D01*
X156977282Y-108963615D01*
X156959934Y-108964745D01*
X156946029Y-108965000D01*
X156667958Y-108965000D01*
X156649846Y-108964547D01*
X156633062Y-108963191D01*
X156617606Y-108960929D01*
X156600154Y-108956831D01*
X156584776Y-108951320D01*
X156571474Y-108944395D01*
X156560247Y-108936057D01*
X156549166Y-108924435D01*
X156540378Y-108911550D01*
X156533882Y-108897404D01*
X156529679Y-108881995D01*
X156527768Y-108865324D01*
X156527641Y-108859487D01*
X156528787Y-108842408D01*
X156532226Y-108826617D01*
X156537958Y-108812114D01*
X156545982Y-108798899D01*
X156556299Y-108786972D01*
X156560247Y-108783283D01*
X156573969Y-108773322D01*
X156587686Y-108766596D01*
X156603478Y-108761301D01*
X156621346Y-108757437D01*
X156637134Y-108755376D01*
X156654250Y-108754231D01*
X156667958Y-108753974D01*
X156745261Y-108753974D01*
X156745261Y-108160464D01*
X156503094Y-108681434D01*
X156319546Y-108681434D01*
X156074448Y-108160464D01*
G37*
G36*
X158954997Y-107746432D02*
G01*
X158983695Y-107748510D01*
X159011956Y-107751973D01*
X159039778Y-107756822D01*
X159067162Y-107763056D01*
X159094108Y-107770675D01*
X159120617Y-107779679D01*
X159146687Y-107790069D01*
X159172320Y-107801844D01*
X159197515Y-107815005D01*
X159222271Y-107829551D01*
X159246590Y-107845482D01*
X159258586Y-107853967D01*
X159270471Y-107862798D01*
X159282248Y-107871976D01*
X159293914Y-107881500D01*
X159305472Y-107891370D01*
X159316919Y-107901587D01*
X159328258Y-107912150D01*
X159339487Y-107923060D01*
X159350486Y-107934208D01*
X159361136Y-107945532D01*
X159371438Y-107957034D01*
X159381390Y-107968712D01*
X159390992Y-107980567D01*
X159400246Y-107992599D01*
X159409150Y-108004807D01*
X159417705Y-108017192D01*
X159425911Y-108029754D01*
X159433768Y-108042493D01*
X159441276Y-108055408D01*
X159448434Y-108068500D01*
X159455243Y-108081769D01*
X159461703Y-108095215D01*
X159467814Y-108108837D01*
X159473576Y-108122636D01*
X159478988Y-108136612D01*
X159484052Y-108150765D01*
X159488766Y-108165094D01*
X159493131Y-108179600D01*
X159497146Y-108194283D01*
X159500813Y-108209143D01*
X159504130Y-108224179D01*
X159507098Y-108239392D01*
X159509717Y-108254782D01*
X159511987Y-108270349D01*
X159513907Y-108286092D01*
X159515479Y-108302012D01*
X159516701Y-108318109D01*
X159517574Y-108334382D01*
X159518098Y-108350832D01*
X159518272Y-108367459D01*
X159518098Y-108384042D01*
X159517574Y-108400449D01*
X159516701Y-108416682D01*
X159515479Y-108432741D01*
X159513907Y-108448625D01*
X159511987Y-108464334D01*
X159509717Y-108479869D01*
X159507098Y-108495229D01*
X159504130Y-108510414D01*
X159500813Y-108525425D01*
X159497146Y-108540262D01*
X159493131Y-108554923D01*
X159488766Y-108569411D01*
X159484052Y-108583723D01*
X159478988Y-108597861D01*
X159473576Y-108611824D01*
X159467814Y-108625613D01*
X159461703Y-108639227D01*
X159455243Y-108652667D01*
X159448434Y-108665932D01*
X159441276Y-108679022D01*
X159433768Y-108691938D01*
X159425911Y-108704679D01*
X159417705Y-108717246D01*
X159409150Y-108729638D01*
X159400246Y-108741855D01*
X159390992Y-108753898D01*
X159381390Y-108765766D01*
X159371438Y-108777460D01*
X159361136Y-108788979D01*
X159350486Y-108800323D01*
X159339487Y-108811493D01*
X159328258Y-108822380D01*
X159316919Y-108832921D01*
X159305472Y-108843116D01*
X159293914Y-108852966D01*
X159282248Y-108862471D01*
X159270471Y-108871630D01*
X159258586Y-108880443D01*
X159246590Y-108888910D01*
X159222271Y-108904808D01*
X159197515Y-108919324D01*
X159172320Y-108932457D01*
X159146687Y-108944208D01*
X159120617Y-108954577D01*
X159094108Y-108963563D01*
X159067162Y-108971166D01*
X159039778Y-108977387D01*
X159011956Y-108982226D01*
X158983695Y-108985682D01*
X158954997Y-108987756D01*
X158925861Y-108988447D01*
X158899599Y-108987872D01*
X158873660Y-108986146D01*
X158848045Y-108983269D01*
X158822753Y-108979242D01*
X158797784Y-108974064D01*
X158773139Y-108967736D01*
X158748817Y-108960257D01*
X158724819Y-108951627D01*
X158701144Y-108941847D01*
X158677793Y-108930916D01*
X158654765Y-108918835D01*
X158632060Y-108905603D01*
X158609679Y-108891220D01*
X158587621Y-108875687D01*
X158565887Y-108859003D01*
X158544476Y-108841168D01*
X158531538Y-108829637D01*
X158519011Y-108817894D01*
X158506894Y-108805941D01*
X158495189Y-108793776D01*
X158483894Y-108781400D01*
X158473009Y-108768813D01*
X158462536Y-108756015D01*
X158452473Y-108743006D01*
X158442821Y-108729785D01*
X158433579Y-108716354D01*
X158424749Y-108702712D01*
X158416329Y-108688858D01*
X158408320Y-108674794D01*
X158400721Y-108660518D01*
X158393533Y-108646031D01*
X158386756Y-108631333D01*
X158380390Y-108616424D01*
X158374434Y-108601304D01*
X158368890Y-108585973D01*
X158363755Y-108570431D01*
X158359032Y-108554678D01*
X158354719Y-108538713D01*
X158350818Y-108522538D01*
X158347326Y-108506151D01*
X158344246Y-108489553D01*
X158341576Y-108472745D01*
X158339317Y-108455725D01*
X158337469Y-108438494D01*
X158336031Y-108421052D01*
X158335004Y-108403399D01*
X158334388Y-108385535D01*
X158334183Y-108367459D01*
X158545575Y-108367459D01*
X158546029Y-108389342D01*
X158547390Y-108410753D01*
X158549658Y-108431692D01*
X158552834Y-108452158D01*
X158556917Y-108472152D01*
X158561907Y-108491674D01*
X158567805Y-108510724D01*
X158574610Y-108529301D01*
X158582322Y-108547406D01*
X158590941Y-108565038D01*
X158600468Y-108582199D01*
X158610903Y-108598887D01*
X158622244Y-108615103D01*
X158634493Y-108630847D01*
X158647649Y-108646118D01*
X158661713Y-108660917D01*
X158676397Y-108675025D01*
X158691325Y-108688223D01*
X158706496Y-108700510D01*
X158721911Y-108711888D01*
X158737569Y-108722355D01*
X158753470Y-108731912D01*
X158769614Y-108740558D01*
X158786002Y-108748295D01*
X158802633Y-108755121D01*
X158819507Y-108761038D01*
X158836624Y-108766044D01*
X158853985Y-108770140D01*
X158871589Y-108773325D01*
X158889437Y-108775601D01*
X158907527Y-108776966D01*
X158925861Y-108777421D01*
X158944283Y-108776969D01*
X158962452Y-108775612D01*
X158980369Y-108773351D01*
X158998035Y-108770185D01*
X159015449Y-108766115D01*
X159032611Y-108761141D01*
X159049521Y-108755262D01*
X159066179Y-108748478D01*
X159082585Y-108740790D01*
X159098739Y-108732198D01*
X159114642Y-108722701D01*
X159130293Y-108712300D01*
X159145691Y-108700994D01*
X159160838Y-108688784D01*
X159175733Y-108675669D01*
X159190376Y-108661650D01*
X159204484Y-108646891D01*
X159217682Y-108631648D01*
X159229969Y-108615922D01*
X159241347Y-108599711D01*
X159251814Y-108583018D01*
X159261371Y-108565840D01*
X159270018Y-108548179D01*
X159277754Y-108530034D01*
X159284581Y-108511405D01*
X159290497Y-108492292D01*
X159295503Y-108472696D01*
X159299599Y-108452616D01*
X159302784Y-108432053D01*
X159305060Y-108411005D01*
X159306425Y-108389474D01*
X159306880Y-108367459D01*
X159306425Y-108345488D01*
X159305060Y-108323994D01*
X159302784Y-108302978D01*
X159299599Y-108282440D01*
X159295503Y-108262380D01*
X159290497Y-108242798D01*
X159284581Y-108223694D01*
X159277754Y-108205068D01*
X159270018Y-108186920D01*
X159261371Y-108169251D01*
X159251814Y-108152059D01*
X159241347Y-108135345D01*
X159229969Y-108119109D01*
X159217682Y-108103351D01*
X159204484Y-108088071D01*
X159190376Y-108073269D01*
X159175733Y-108059161D01*
X159160838Y-108045963D01*
X159145691Y-108033676D01*
X159130293Y-108022298D01*
X159114642Y-108011831D01*
X159098739Y-108002274D01*
X159082585Y-107993628D01*
X159066179Y-107985891D01*
X159049521Y-107979065D01*
X159032611Y-107973148D01*
X159015449Y-107968142D01*
X158998035Y-107964047D01*
X158980369Y-107960861D01*
X158962452Y-107958585D01*
X158944283Y-107957220D01*
X158925861Y-107956765D01*
X158907527Y-107957223D01*
X158889437Y-107958597D01*
X158871589Y-107960887D01*
X158853985Y-107964092D01*
X158836624Y-107968214D01*
X158819507Y-107973251D01*
X158802633Y-107979205D01*
X158786002Y-107986074D01*
X158769614Y-107993859D01*
X158753470Y-108002561D01*
X158737569Y-108012178D01*
X158721911Y-108022711D01*
X158706496Y-108034159D01*
X158691325Y-108046524D01*
X158676397Y-108059805D01*
X158661713Y-108074002D01*
X158647649Y-108088844D01*
X158634493Y-108104152D01*
X158622244Y-108119927D01*
X158610903Y-108136169D01*
X158600468Y-108152877D01*
X158590941Y-108170052D01*
X158582322Y-108187693D01*
X158574610Y-108205801D01*
X158567805Y-108224376D01*
X158561907Y-108243416D01*
X158556917Y-108262924D01*
X158552834Y-108282898D01*
X158549658Y-108303338D01*
X158547390Y-108324246D01*
X158546029Y-108345619D01*
X158545575Y-108367459D01*
X158334183Y-108367459D01*
X158334388Y-108349383D01*
X158335004Y-108331517D01*
X158336031Y-108313860D01*
X158337469Y-108296413D01*
X158339317Y-108279176D01*
X158341576Y-108262148D01*
X158344246Y-108245330D01*
X158347326Y-108228722D01*
X158350818Y-108212323D01*
X158354719Y-108196134D01*
X158359032Y-108180155D01*
X158363755Y-108164385D01*
X158368890Y-108148825D01*
X158374434Y-108133474D01*
X158380390Y-108118333D01*
X158386756Y-108103402D01*
X158393533Y-108088681D01*
X158400721Y-108074169D01*
X158408320Y-108059867D01*
X158416329Y-108045774D01*
X158424749Y-108031892D01*
X158433579Y-108018218D01*
X158442821Y-108004755D01*
X158452473Y-107991501D01*
X158462536Y-107978457D01*
X158473009Y-107965622D01*
X158483894Y-107952997D01*
X158495189Y-107940582D01*
X158506894Y-107928376D01*
X158519011Y-107916381D01*
X158531538Y-107904594D01*
X158544476Y-107893018D01*
X158565887Y-107875183D01*
X158587621Y-107858499D01*
X158609679Y-107842966D01*
X158632060Y-107828583D01*
X158654765Y-107815351D01*
X158677793Y-107803270D01*
X158701144Y-107792339D01*
X158724819Y-107782559D01*
X158748817Y-107773929D01*
X158773139Y-107766450D01*
X158797784Y-107760122D01*
X158822753Y-107754944D01*
X158848045Y-107750917D01*
X158873660Y-107748040D01*
X158899599Y-107746315D01*
X158925861Y-107745739D01*
X158954997Y-107746432D01*
G37*
G36*
X159921273Y-108150938D02*
G01*
X159921273Y-108753974D01*
X159997477Y-108753974D01*
X160015841Y-108754432D01*
X160032831Y-108755806D01*
X160048447Y-108758095D01*
X160066036Y-108762245D01*
X160081477Y-108767827D01*
X160094772Y-108774839D01*
X160105921Y-108783283D01*
X160117002Y-108794780D01*
X160125790Y-108807566D01*
X160132286Y-108821639D01*
X160136489Y-108837001D01*
X160138400Y-108853651D01*
X160138527Y-108859487D01*
X160137381Y-108876578D01*
X160133942Y-108892408D01*
X160128210Y-108906975D01*
X160120186Y-108920280D01*
X160109869Y-108932323D01*
X160105921Y-108936057D01*
X160092285Y-108945893D01*
X160078561Y-108952535D01*
X160062690Y-108957764D01*
X160044672Y-108961580D01*
X160028712Y-108963615D01*
X160011379Y-108964745D01*
X159997477Y-108965000D01*
X159720139Y-108965000D01*
X159701769Y-108964547D01*
X159684762Y-108963191D01*
X159669117Y-108960929D01*
X159651477Y-108956831D01*
X159635965Y-108951320D01*
X159622583Y-108944395D01*
X159611329Y-108936057D01*
X159600372Y-108924435D01*
X159591683Y-108911550D01*
X159585260Y-108897404D01*
X159581104Y-108881995D01*
X159579215Y-108865324D01*
X159579089Y-108859487D01*
X159580209Y-108842408D01*
X159583571Y-108826617D01*
X159589174Y-108812114D01*
X159597018Y-108798899D01*
X159607103Y-108786972D01*
X159610963Y-108783283D01*
X159624263Y-108773322D01*
X159639985Y-108765423D01*
X159654937Y-108760414D01*
X159671570Y-108756836D01*
X159689885Y-108754689D01*
X159705747Y-108754002D01*
X159709881Y-108753974D01*
X159709881Y-107980212D01*
X159676908Y-107980212D01*
X159658538Y-107979760D01*
X159641531Y-107978403D01*
X159625886Y-107976142D01*
X159608246Y-107972044D01*
X159592734Y-107966532D01*
X159579352Y-107959608D01*
X159568098Y-107951270D01*
X159557141Y-107939648D01*
X159548452Y-107926763D01*
X159542029Y-107912617D01*
X159537873Y-107897208D01*
X159535984Y-107880537D01*
X159535858Y-107874699D01*
X159536991Y-107857621D01*
X159540392Y-107841830D01*
X159546059Y-107827327D01*
X159553993Y-107814112D01*
X159564194Y-107802185D01*
X159568098Y-107798496D01*
X159581858Y-107788535D01*
X159595666Y-107781809D01*
X159611604Y-107776514D01*
X159629670Y-107772650D01*
X159645655Y-107770589D01*
X159663003Y-107769444D01*
X159676908Y-107769187D01*
X159921273Y-107769187D01*
X160461294Y-108580317D01*
X160461294Y-107980212D01*
X160385090Y-107980212D01*
X160366635Y-107979760D01*
X160349553Y-107978403D01*
X160333845Y-107976142D01*
X160319511Y-107972977D01*
X160303526Y-107967748D01*
X160289687Y-107961106D01*
X160275914Y-107951270D01*
X160264957Y-107939648D01*
X160256267Y-107926763D01*
X160249845Y-107912617D01*
X160245689Y-107897208D01*
X160243800Y-107880537D01*
X160243674Y-107874699D01*
X160244807Y-107857621D01*
X160248207Y-107841830D01*
X160253875Y-107827327D01*
X160261809Y-107814112D01*
X160272010Y-107802185D01*
X160275914Y-107798496D01*
X160289687Y-107788535D01*
X160303526Y-107781809D01*
X160319511Y-107776514D01*
X160333845Y-107773308D01*
X160349553Y-107771018D01*
X160366635Y-107769644D01*
X160385090Y-107769187D01*
X160662062Y-107769187D01*
X160680426Y-107769644D01*
X160697416Y-107771018D01*
X160713032Y-107773308D01*
X160730620Y-107777458D01*
X160746062Y-107783040D01*
X160759357Y-107790052D01*
X160770505Y-107798496D01*
X160781587Y-107809993D01*
X160790375Y-107822779D01*
X160796871Y-107836852D01*
X160801074Y-107852214D01*
X160802984Y-107868863D01*
X160803112Y-107874699D01*
X160801991Y-107891791D01*
X160798630Y-107907621D01*
X160793027Y-107922188D01*
X160785183Y-107935493D01*
X160775098Y-107947536D01*
X160771238Y-107951270D01*
X160758088Y-107961106D01*
X160742542Y-107968907D01*
X160727756Y-107973853D01*
X160711308Y-107977386D01*
X160693195Y-107979506D01*
X160677507Y-107980184D01*
X160673419Y-107980212D01*
X160673419Y-108965000D01*
X160464225Y-108965000D01*
X159921273Y-108150938D01*
G37*
G36*
X161228827Y-108449159D02*
G01*
X161228827Y-108753974D01*
X161767749Y-108753974D01*
X161767749Y-108636737D01*
X161768207Y-108618459D01*
X161769581Y-108601543D01*
X161771871Y-108585990D01*
X161776021Y-108568464D01*
X161781602Y-108553067D01*
X161788615Y-108539799D01*
X161797058Y-108528660D01*
X161808805Y-108517579D01*
X161821788Y-108508790D01*
X161836007Y-108502294D01*
X161851463Y-108498091D01*
X161868156Y-108496181D01*
X161873995Y-108496053D01*
X161890713Y-108497200D01*
X161906246Y-108500639D01*
X161920594Y-108506370D01*
X161933758Y-108514394D01*
X161945736Y-108524711D01*
X161949466Y-108528660D01*
X161959551Y-108542282D01*
X161966361Y-108555976D01*
X161971722Y-108571799D01*
X161975635Y-108589751D01*
X161977721Y-108605644D01*
X161978880Y-108622901D01*
X161979141Y-108636737D01*
X161979141Y-108965000D01*
X160984829Y-108965000D01*
X160966459Y-108964547D01*
X160949451Y-108963191D01*
X160933807Y-108960929D01*
X160916166Y-108956831D01*
X160900655Y-108951320D01*
X160887272Y-108944395D01*
X160876018Y-108936057D01*
X160864937Y-108924435D01*
X160856149Y-108911550D01*
X160849653Y-108897404D01*
X160845450Y-108881995D01*
X160843539Y-108865324D01*
X160843412Y-108859487D01*
X160844571Y-108842408D01*
X160848049Y-108826617D01*
X160853845Y-108812114D01*
X160861959Y-108798899D01*
X160872392Y-108786972D01*
X160876385Y-108783283D01*
X160890244Y-108773322D01*
X160904075Y-108766596D01*
X160919982Y-108761301D01*
X160937964Y-108757437D01*
X160953844Y-108755376D01*
X160971051Y-108754231D01*
X160984829Y-108753974D01*
X161017801Y-108753974D01*
X161017801Y-107980212D01*
X160984829Y-107980212D01*
X160966459Y-107979760D01*
X160949451Y-107978403D01*
X160933807Y-107976142D01*
X160916166Y-107972044D01*
X160900655Y-107966532D01*
X160887272Y-107959608D01*
X160876018Y-107951270D01*
X160864937Y-107939648D01*
X160856149Y-107926763D01*
X160849653Y-107912617D01*
X160845450Y-107897208D01*
X160843539Y-107880537D01*
X160843412Y-107874699D01*
X160844558Y-107857621D01*
X160847997Y-107841830D01*
X160853729Y-107827327D01*
X160861753Y-107814112D01*
X160872070Y-107802185D01*
X160876018Y-107798496D01*
X160889778Y-107788535D01*
X160903587Y-107781809D01*
X160919524Y-107776514D01*
X160937590Y-107772650D01*
X160953576Y-107770589D01*
X160970924Y-107769444D01*
X160984829Y-107769187D01*
X161932613Y-107770286D01*
X161932613Y-108097449D01*
X161932161Y-108115733D01*
X161930804Y-108132666D01*
X161928543Y-108148248D01*
X161924444Y-108165825D01*
X161918933Y-108181292D01*
X161912008Y-108194648D01*
X161903670Y-108205893D01*
X161892284Y-108216849D01*
X161879559Y-108225539D01*
X161865494Y-108231962D01*
X161850089Y-108236118D01*
X161833345Y-108238007D01*
X161827466Y-108238133D01*
X161810375Y-108236999D01*
X161794545Y-108233599D01*
X161779978Y-108227932D01*
X161766673Y-108219998D01*
X161754630Y-108209797D01*
X161750896Y-108205893D01*
X161740936Y-108192145D01*
X161734209Y-108178367D01*
X161728914Y-108162479D01*
X161725050Y-108144479D01*
X161722990Y-108128559D01*
X161721845Y-108111288D01*
X161721587Y-108097449D01*
X161721587Y-107980212D01*
X161228827Y-107980212D01*
X161228827Y-108238133D01*
X161414574Y-108238133D01*
X161414814Y-108220032D01*
X161415536Y-108203649D01*
X161416738Y-108188983D01*
X161418917Y-108173065D01*
X161422523Y-108157506D01*
X161429014Y-108142771D01*
X161429961Y-108141413D01*
X161440575Y-108128747D01*
X161452494Y-108118229D01*
X161465719Y-108109857D01*
X161480250Y-108103631D01*
X161496087Y-108099553D01*
X161513230Y-108097621D01*
X161520453Y-108097449D01*
X161537296Y-108098595D01*
X161552928Y-108102034D01*
X161567349Y-108107766D01*
X161580560Y-108115790D01*
X161592560Y-108126107D01*
X161596290Y-108130055D01*
X161606251Y-108143678D01*
X161612977Y-108157372D01*
X161618272Y-108173195D01*
X161622136Y-108191146D01*
X161624197Y-108207040D01*
X161625342Y-108224296D01*
X161625600Y-108238133D01*
X161625600Y-108449159D01*
X161625342Y-108467265D01*
X161624569Y-108483666D01*
X161623281Y-108498360D01*
X161620947Y-108514330D01*
X161617083Y-108529974D01*
X161611110Y-108543376D01*
X161609113Y-108546245D01*
X161598255Y-108558805D01*
X161586287Y-108569236D01*
X161573210Y-108577538D01*
X161559024Y-108583712D01*
X161543729Y-108587756D01*
X161527325Y-108589672D01*
X161520453Y-108589842D01*
X161502788Y-108588769D01*
X161486428Y-108585549D01*
X161471375Y-108580182D01*
X161457627Y-108572669D01*
X161445186Y-108563009D01*
X161434050Y-108551203D01*
X161429961Y-108545879D01*
X161423229Y-108532003D01*
X161419442Y-108517088D01*
X161417113Y-108501707D01*
X161415536Y-108483643D01*
X161414814Y-108467259D01*
X161414574Y-108449159D01*
X161228827Y-108449159D01*
G37*
D10*
G36*
X158002337Y-94497942D02*
G01*
X158057401Y-94553006D01*
X158086371Y-94610945D01*
X158120232Y-94746387D01*
X158120232Y-94842202D01*
X158086371Y-94977643D01*
X158057401Y-95035582D01*
X158002336Y-95090648D01*
X157916395Y-95119295D01*
X157813089Y-95119295D01*
X157813089Y-94469295D01*
X157916395Y-94469295D01*
X158002337Y-94497942D01*
G37*
G36*
X158798424Y-94494029D02*
G01*
X158819306Y-94514911D01*
X158848276Y-94572851D01*
X158882136Y-94708290D01*
X158882136Y-94880299D01*
X158848276Y-95015738D01*
X158819306Y-95073677D01*
X158798423Y-95094561D01*
X158748955Y-95119295D01*
X158708175Y-95119295D01*
X158658706Y-95094561D01*
X158637823Y-95073677D01*
X158608853Y-95015737D01*
X158574993Y-94880297D01*
X158574993Y-94708292D01*
X158608853Y-94572851D01*
X158637823Y-94514911D01*
X158658705Y-94494029D01*
X158708175Y-94469295D01*
X158748955Y-94469295D01*
X158798424Y-94494029D01*
G37*
G36*
X159146422Y-95383581D02*
G01*
X156177374Y-95383581D01*
X156177374Y-95194295D01*
X156291660Y-95194295D01*
X156298323Y-95212603D01*
X156301708Y-95231795D01*
X156306892Y-95236145D01*
X156309207Y-95242504D01*
X156326080Y-95252246D01*
X156341008Y-95264772D01*
X156350750Y-95266489D01*
X156353636Y-95268156D01*
X156356918Y-95267577D01*
X156366660Y-95269295D01*
X156747612Y-95269295D01*
X156795821Y-95251748D01*
X156821473Y-95207319D01*
X156819176Y-95194295D01*
X156939279Y-95194295D01*
X156945942Y-95212603D01*
X156949327Y-95231795D01*
X156954511Y-95236145D01*
X156956826Y-95242504D01*
X156973699Y-95252246D01*
X156988627Y-95264772D01*
X156998369Y-95266489D01*
X157001255Y-95268156D01*
X157004537Y-95267577D01*
X157014279Y-95269295D01*
X157395231Y-95269295D01*
X157443440Y-95251748D01*
X157469092Y-95207319D01*
X157466795Y-95194295D01*
X157663089Y-95194295D01*
X157669752Y-95212603D01*
X157673137Y-95231795D01*
X157678321Y-95236145D01*
X157680636Y-95242504D01*
X157697509Y-95252246D01*
X157712437Y-95264772D01*
X157722179Y-95266489D01*
X157725065Y-95268156D01*
X157728347Y-95267577D01*
X157738089Y-95269295D01*
X157928565Y-95269295D01*
X157930103Y-95268734D01*
X157952282Y-95265446D01*
X158066568Y-95227351D01*
X158070079Y-95224563D01*
X158074548Y-95224173D01*
X158095884Y-95209233D01*
X158172075Y-95133041D01*
X158172766Y-95131558D01*
X158186123Y-95113550D01*
X158224218Y-95037360D01*
X158224623Y-95033833D01*
X158229897Y-95022010D01*
X158263017Y-94889533D01*
X158424993Y-94889533D01*
X158426178Y-94892790D01*
X158427232Y-94907724D01*
X158465328Y-95060105D01*
X158467317Y-95063050D01*
X158471007Y-95075455D01*
X158509102Y-95151645D01*
X158510290Y-95152770D01*
X158523150Y-95171136D01*
X158561245Y-95209232D01*
X158562726Y-95209922D01*
X158580738Y-95223282D01*
X158656929Y-95261377D01*
X158661382Y-95261889D01*
X158664818Y-95264772D01*
X158690470Y-95269295D01*
X158766660Y-95269295D01*
X158770872Y-95267761D01*
X158775234Y-95268804D01*
X158800201Y-95261377D01*
X158876392Y-95223282D01*
X158877516Y-95222094D01*
X158895885Y-95209232D01*
X158933980Y-95171136D01*
X158934671Y-95169653D01*
X158948028Y-95151645D01*
X158986123Y-95075455D01*
X158986529Y-95071926D01*
X158991802Y-95060104D01*
X159029897Y-94907723D01*
X159029536Y-94904274D01*
X159032136Y-94889533D01*
X159032136Y-94699057D01*
X159030950Y-94695799D01*
X159029897Y-94680867D01*
X158991802Y-94528486D01*
X158989813Y-94525542D01*
X158986123Y-94513135D01*
X158948028Y-94436944D01*
X158946838Y-94435818D01*
X158933979Y-94417452D01*
X158895884Y-94379357D01*
X158894402Y-94378666D01*
X158876392Y-94365308D01*
X158800201Y-94327213D01*
X158795747Y-94326700D01*
X158792312Y-94323818D01*
X158766660Y-94319295D01*
X158690470Y-94319295D01*
X158686257Y-94320828D01*
X158681896Y-94319786D01*
X158656929Y-94327213D01*
X158580738Y-94365308D01*
X158579612Y-94366497D01*
X158561246Y-94379357D01*
X158523151Y-94417452D01*
X158522460Y-94418933D01*
X158509102Y-94436944D01*
X158471007Y-94513135D01*
X158470601Y-94516661D01*
X158465328Y-94528485D01*
X158427232Y-94680866D01*
X158427592Y-94684314D01*
X158424993Y-94699057D01*
X158424993Y-94889533D01*
X158263017Y-94889533D01*
X158267993Y-94869628D01*
X158267632Y-94866179D01*
X158270232Y-94851438D01*
X158270232Y-94737152D01*
X158269046Y-94733894D01*
X158267993Y-94718962D01*
X158229897Y-94566580D01*
X158227908Y-94563636D01*
X158224218Y-94551230D01*
X158186123Y-94475039D01*
X158184936Y-94473915D01*
X158172074Y-94455547D01*
X158095884Y-94379357D01*
X158091820Y-94377462D01*
X158089473Y-94373641D01*
X158066568Y-94361239D01*
X157952282Y-94323144D01*
X157950647Y-94323188D01*
X157928565Y-94319295D01*
X157738089Y-94319295D01*
X157719780Y-94325958D01*
X157700589Y-94329343D01*
X157696238Y-94334527D01*
X157689880Y-94336842D01*
X157680137Y-94353715D01*
X157667612Y-94368643D01*
X157665894Y-94378385D01*
X157664228Y-94381271D01*
X157664806Y-94384553D01*
X157663089Y-94394295D01*
X157663089Y-95194295D01*
X157466795Y-95194295D01*
X157460183Y-95156795D01*
X157420883Y-95123818D01*
X157395231Y-95119295D01*
X157089279Y-95119295D01*
X157089279Y-94850247D01*
X157280945Y-94850247D01*
X157329154Y-94832700D01*
X157354806Y-94788271D01*
X157345897Y-94737747D01*
X157306597Y-94704770D01*
X157280945Y-94700247D01*
X157089279Y-94700247D01*
X157089279Y-94469295D01*
X157395231Y-94469295D01*
X157443440Y-94451748D01*
X157469092Y-94407319D01*
X157460183Y-94356795D01*
X157420883Y-94323818D01*
X157395231Y-94319295D01*
X157014279Y-94319295D01*
X156995970Y-94325958D01*
X156976779Y-94329343D01*
X156972428Y-94334527D01*
X156966070Y-94336842D01*
X156956327Y-94353715D01*
X156943802Y-94368643D01*
X156942084Y-94378385D01*
X156940418Y-94381271D01*
X156940996Y-94384553D01*
X156939279Y-94394295D01*
X156939279Y-95194295D01*
X156819176Y-95194295D01*
X156812564Y-95156795D01*
X156773264Y-95123818D01*
X156747612Y-95119295D01*
X156441660Y-95119295D01*
X156441660Y-94394295D01*
X156424113Y-94346086D01*
X156379684Y-94320434D01*
X156329160Y-94329343D01*
X156296183Y-94368643D01*
X156291660Y-94394295D01*
X156291660Y-95194295D01*
X156177374Y-95194295D01*
X156177374Y-94205009D01*
X159146422Y-94205009D01*
X159146422Y-95383581D01*
G37*
D11*
X121258466Y-92394000D02*
X121291800Y-92427333D01*
X121291800Y-92427333D02*
X121325133Y-92527333D01*
X121325133Y-92527333D02*
X121325133Y-92594000D01*
X121325133Y-92594000D02*
X121291800Y-92694000D01*
X121291800Y-92694000D02*
X121225133Y-92760667D01*
X121225133Y-92760667D02*
X121158466Y-92794000D01*
X121158466Y-92794000D02*
X121025133Y-92827333D01*
X121025133Y-92827333D02*
X120925133Y-92827333D01*
X120925133Y-92827333D02*
X120791800Y-92794000D01*
X120791800Y-92794000D02*
X120725133Y-92760667D01*
X120725133Y-92760667D02*
X120658466Y-92694000D01*
X120658466Y-92694000D02*
X120625133Y-92594000D01*
X120625133Y-92594000D02*
X120625133Y-92527333D01*
X120625133Y-92527333D02*
X120658466Y-92427333D01*
X120658466Y-92427333D02*
X120691800Y-92394000D01*
X120858466Y-91794000D02*
X121325133Y-91794000D01*
X120591800Y-91960667D02*
X121091800Y-92127333D01*
X121091800Y-92127333D02*
X121091800Y-91694000D01*
X120625133Y-91094000D02*
X120625133Y-91427333D01*
X120625133Y-91427333D02*
X120958466Y-91460666D01*
X120958466Y-91460666D02*
X120925133Y-91427333D01*
X120925133Y-91427333D02*
X120891800Y-91360666D01*
X120891800Y-91360666D02*
X120891800Y-91194000D01*
X120891800Y-91194000D02*
X120925133Y-91127333D01*
X120925133Y-91127333D02*
X120958466Y-91094000D01*
X120958466Y-91094000D02*
X121025133Y-91060666D01*
X121025133Y-91060666D02*
X121191800Y-91060666D01*
X121191800Y-91060666D02*
X121258466Y-91094000D01*
X121258466Y-91094000D02*
X121291800Y-91127333D01*
X121291800Y-91127333D02*
X121325133Y-91194000D01*
X121325133Y-91194000D02*
X121325133Y-91360666D01*
X121325133Y-91360666D02*
X121291800Y-91427333D01*
X121291800Y-91427333D02*
X121258466Y-91460666D01*
X158319999Y-102538633D02*
X158086666Y-102205300D01*
X157919999Y-102538633D02*
X157919999Y-101838633D01*
X157919999Y-101838633D02*
X158186666Y-101838633D01*
X158186666Y-101838633D02*
X158253333Y-101871966D01*
X158253333Y-101871966D02*
X158286666Y-101905300D01*
X158286666Y-101905300D02*
X158319999Y-101971966D01*
X158319999Y-101971966D02*
X158319999Y-102071966D01*
X158319999Y-102071966D02*
X158286666Y-102138633D01*
X158286666Y-102138633D02*
X158253333Y-102171966D01*
X158253333Y-102171966D02*
X158186666Y-102205300D01*
X158186666Y-102205300D02*
X157919999Y-102205300D01*
X158986666Y-102538633D02*
X158586666Y-102538633D01*
X158786666Y-102538633D02*
X158786666Y-101838633D01*
X158786666Y-101838633D02*
X158719999Y-101938633D01*
X158719999Y-101938633D02*
X158653333Y-102005300D01*
X158653333Y-102005300D02*
X158586666Y-102038633D01*
X159586666Y-102071966D02*
X159586666Y-102538633D01*
X159420000Y-101805300D02*
X159253333Y-102305300D01*
X159253333Y-102305300D02*
X159686666Y-102305300D01*
X126966666Y-95623633D02*
X126966666Y-96123633D01*
X126966666Y-96123633D02*
X126933333Y-96223633D01*
X126933333Y-96223633D02*
X126866666Y-96290300D01*
X126866666Y-96290300D02*
X126766666Y-96323633D01*
X126766666Y-96323633D02*
X126700000Y-96323633D01*
X127666666Y-96323633D02*
X127266666Y-96323633D01*
X127466666Y-96323633D02*
X127466666Y-95623633D01*
X127466666Y-95623633D02*
X127399999Y-95723633D01*
X127399999Y-95723633D02*
X127333333Y-95790300D01*
X127333333Y-95790300D02*
X127266666Y-95823633D01*
X160376666Y-105208633D02*
X160376666Y-104508633D01*
X160376666Y-104841966D02*
X160776666Y-104841966D01*
X160776666Y-105208633D02*
X160776666Y-104508633D01*
X161043333Y-104508633D02*
X161476666Y-104508633D01*
X161476666Y-104508633D02*
X161243333Y-104775300D01*
X161243333Y-104775300D02*
X161343333Y-104775300D01*
X161343333Y-104775300D02*
X161409999Y-104808633D01*
X161409999Y-104808633D02*
X161443333Y-104841966D01*
X161443333Y-104841966D02*
X161476666Y-104908633D01*
X161476666Y-104908633D02*
X161476666Y-105075300D01*
X161476666Y-105075300D02*
X161443333Y-105141966D01*
X161443333Y-105141966D02*
X161409999Y-105175300D01*
X161409999Y-105175300D02*
X161343333Y-105208633D01*
X161343333Y-105208633D02*
X161143333Y-105208633D01*
X161143333Y-105208633D02*
X161076666Y-105175300D01*
X161076666Y-105175300D02*
X161043333Y-105141966D01*
X154248633Y-83133333D02*
X154815300Y-83133333D01*
X154815300Y-83133333D02*
X154881966Y-83100000D01*
X154881966Y-83100000D02*
X154915300Y-83066666D01*
X154915300Y-83066666D02*
X154948633Y-83000000D01*
X154948633Y-83000000D02*
X154948633Y-82866666D01*
X154948633Y-82866666D02*
X154915300Y-82800000D01*
X154915300Y-82800000D02*
X154881966Y-82766666D01*
X154881966Y-82766666D02*
X154815300Y-82733333D01*
X154815300Y-82733333D02*
X154248633Y-82733333D01*
X154948633Y-82033333D02*
X154948633Y-82433333D01*
X154948633Y-82233333D02*
X154248633Y-82233333D01*
X154248633Y-82233333D02*
X154348633Y-82300000D01*
X154348633Y-82300000D02*
X154415300Y-82366667D01*
X154415300Y-82366667D02*
X154448633Y-82433333D01*
X159618633Y-90966667D02*
X160318633Y-90500000D01*
X159618633Y-90500000D02*
X160318633Y-90966667D01*
X160318633Y-89866666D02*
X160318633Y-90266666D01*
X160318633Y-90066666D02*
X159618633Y-90066666D01*
X159618633Y-90066666D02*
X159718633Y-90133333D01*
X159718633Y-90133333D02*
X159785300Y-90200000D01*
X159785300Y-90200000D02*
X159818633Y-90266666D01*
X164606666Y-61558633D02*
X164606666Y-60858633D01*
X164606666Y-61191966D02*
X165006666Y-61191966D01*
X165006666Y-61558633D02*
X165006666Y-60858633D01*
X165706666Y-61558633D02*
X165306666Y-61558633D01*
X165506666Y-61558633D02*
X165506666Y-60858633D01*
X165506666Y-60858633D02*
X165439999Y-60958633D01*
X165439999Y-60958633D02*
X165373333Y-61025300D01*
X165373333Y-61025300D02*
X165306666Y-61058633D01*
X124983466Y-81869000D02*
X125016800Y-81902333D01*
X125016800Y-81902333D02*
X125050133Y-82002333D01*
X125050133Y-82002333D02*
X125050133Y-82069000D01*
X125050133Y-82069000D02*
X125016800Y-82169000D01*
X125016800Y-82169000D02*
X124950133Y-82235667D01*
X124950133Y-82235667D02*
X124883466Y-82269000D01*
X124883466Y-82269000D02*
X124750133Y-82302333D01*
X124750133Y-82302333D02*
X124650133Y-82302333D01*
X124650133Y-82302333D02*
X124516800Y-82269000D01*
X124516800Y-82269000D02*
X124450133Y-82235667D01*
X124450133Y-82235667D02*
X124383466Y-82169000D01*
X124383466Y-82169000D02*
X124350133Y-82069000D01*
X124350133Y-82069000D02*
X124350133Y-82002333D01*
X124350133Y-82002333D02*
X124383466Y-81902333D01*
X124383466Y-81902333D02*
X124416800Y-81869000D01*
X124350133Y-81635667D02*
X124350133Y-81202333D01*
X124350133Y-81202333D02*
X124616800Y-81435667D01*
X124616800Y-81435667D02*
X124616800Y-81335667D01*
X124616800Y-81335667D02*
X124650133Y-81269000D01*
X124650133Y-81269000D02*
X124683466Y-81235667D01*
X124683466Y-81235667D02*
X124750133Y-81202333D01*
X124750133Y-81202333D02*
X124916800Y-81202333D01*
X124916800Y-81202333D02*
X124983466Y-81235667D01*
X124983466Y-81235667D02*
X125016800Y-81269000D01*
X125016800Y-81269000D02*
X125050133Y-81335667D01*
X125050133Y-81335667D02*
X125050133Y-81535667D01*
X125050133Y-81535667D02*
X125016800Y-81602333D01*
X125016800Y-81602333D02*
X124983466Y-81635667D01*
X124350133Y-80969000D02*
X124350133Y-80535666D01*
X124350133Y-80535666D02*
X124616800Y-80769000D01*
X124616800Y-80769000D02*
X124616800Y-80669000D01*
X124616800Y-80669000D02*
X124650133Y-80602333D01*
X124650133Y-80602333D02*
X124683466Y-80569000D01*
X124683466Y-80569000D02*
X124750133Y-80535666D01*
X124750133Y-80535666D02*
X124916800Y-80535666D01*
X124916800Y-80535666D02*
X124983466Y-80569000D01*
X124983466Y-80569000D02*
X125016800Y-80602333D01*
X125016800Y-80602333D02*
X125050133Y-80669000D01*
X125050133Y-80669000D02*
X125050133Y-80869000D01*
X125050133Y-80869000D02*
X125016800Y-80935666D01*
X125016800Y-80935666D02*
X124983466Y-80969000D01*
X113985666Y-91912633D02*
X113985666Y-92479300D01*
X113985666Y-92479300D02*
X114019000Y-92545966D01*
X114019000Y-92545966D02*
X114052333Y-92579300D01*
X114052333Y-92579300D02*
X114119000Y-92612633D01*
X114119000Y-92612633D02*
X114252333Y-92612633D01*
X114252333Y-92612633D02*
X114319000Y-92579300D01*
X114319000Y-92579300D02*
X114352333Y-92545966D01*
X114352333Y-92545966D02*
X114385666Y-92479300D01*
X114385666Y-92479300D02*
X114385666Y-91912633D01*
X114652333Y-91912633D02*
X115085666Y-91912633D01*
X115085666Y-91912633D02*
X114852333Y-92179300D01*
X114852333Y-92179300D02*
X114952333Y-92179300D01*
X114952333Y-92179300D02*
X115018999Y-92212633D01*
X115018999Y-92212633D02*
X115052333Y-92245966D01*
X115052333Y-92245966D02*
X115085666Y-92312633D01*
X115085666Y-92312633D02*
X115085666Y-92479300D01*
X115085666Y-92479300D02*
X115052333Y-92545966D01*
X115052333Y-92545966D02*
X115018999Y-92579300D01*
X115018999Y-92579300D02*
X114952333Y-92612633D01*
X114952333Y-92612633D02*
X114752333Y-92612633D01*
X114752333Y-92612633D02*
X114685666Y-92579300D01*
X114685666Y-92579300D02*
X114652333Y-92545966D01*
X113350133Y-79585667D02*
X113350133Y-79919000D01*
X113350133Y-79919000D02*
X112650133Y-79919000D01*
X112650133Y-79419000D02*
X112650133Y-78985666D01*
X112650133Y-78985666D02*
X112916800Y-79219000D01*
X112916800Y-79219000D02*
X112916800Y-79119000D01*
X112916800Y-79119000D02*
X112950133Y-79052333D01*
X112950133Y-79052333D02*
X112983466Y-79019000D01*
X112983466Y-79019000D02*
X113050133Y-78985666D01*
X113050133Y-78985666D02*
X113216800Y-78985666D01*
X113216800Y-78985666D02*
X113283466Y-79019000D01*
X113283466Y-79019000D02*
X113316800Y-79052333D01*
X113316800Y-79052333D02*
X113350133Y-79119000D01*
X113350133Y-79119000D02*
X113350133Y-79319000D01*
X113350133Y-79319000D02*
X113316800Y-79385666D01*
X113316800Y-79385666D02*
X113283466Y-79419000D01*
X158159999Y-96508633D02*
X157926666Y-96175300D01*
X157759999Y-96508633D02*
X157759999Y-95808633D01*
X157759999Y-95808633D02*
X158026666Y-95808633D01*
X158026666Y-95808633D02*
X158093333Y-95841966D01*
X158093333Y-95841966D02*
X158126666Y-95875300D01*
X158126666Y-95875300D02*
X158159999Y-95941966D01*
X158159999Y-95941966D02*
X158159999Y-96041966D01*
X158159999Y-96041966D02*
X158126666Y-96108633D01*
X158126666Y-96108633D02*
X158093333Y-96141966D01*
X158093333Y-96141966D02*
X158026666Y-96175300D01*
X158026666Y-96175300D02*
X157759999Y-96175300D01*
X158826666Y-96508633D02*
X158426666Y-96508633D01*
X158626666Y-96508633D02*
X158626666Y-95808633D01*
X158626666Y-95808633D02*
X158559999Y-95908633D01*
X158559999Y-95908633D02*
X158493333Y-95975300D01*
X158493333Y-95975300D02*
X158426666Y-96008633D01*
X159160000Y-96508633D02*
X159293333Y-96508633D01*
X159293333Y-96508633D02*
X159360000Y-96475300D01*
X159360000Y-96475300D02*
X159393333Y-96441966D01*
X159393333Y-96441966D02*
X159460000Y-96341966D01*
X159460000Y-96341966D02*
X159493333Y-96208633D01*
X159493333Y-96208633D02*
X159493333Y-95941966D01*
X159493333Y-95941966D02*
X159460000Y-95875300D01*
X159460000Y-95875300D02*
X159426666Y-95841966D01*
X159426666Y-95841966D02*
X159360000Y-95808633D01*
X159360000Y-95808633D02*
X159226666Y-95808633D01*
X159226666Y-95808633D02*
X159160000Y-95841966D01*
X159160000Y-95841966D02*
X159126666Y-95875300D01*
X159126666Y-95875300D02*
X159093333Y-95941966D01*
X159093333Y-95941966D02*
X159093333Y-96108633D01*
X159093333Y-96108633D02*
X159126666Y-96175300D01*
X159126666Y-96175300D02*
X159160000Y-96208633D01*
X159160000Y-96208633D02*
X159226666Y-96241966D01*
X159226666Y-96241966D02*
X159360000Y-96241966D01*
X159360000Y-96241966D02*
X159426666Y-96208633D01*
X159426666Y-96208633D02*
X159460000Y-96175300D01*
X159460000Y-96175300D02*
X159493333Y-96108633D01*
X119552333Y-92945966D02*
X119519000Y-92979300D01*
X119519000Y-92979300D02*
X119419000Y-93012633D01*
X119419000Y-93012633D02*
X119352333Y-93012633D01*
X119352333Y-93012633D02*
X119252333Y-92979300D01*
X119252333Y-92979300D02*
X119185667Y-92912633D01*
X119185667Y-92912633D02*
X119152333Y-92845966D01*
X119152333Y-92845966D02*
X119119000Y-92712633D01*
X119119000Y-92712633D02*
X119119000Y-92612633D01*
X119119000Y-92612633D02*
X119152333Y-92479300D01*
X119152333Y-92479300D02*
X119185667Y-92412633D01*
X119185667Y-92412633D02*
X119252333Y-92345966D01*
X119252333Y-92345966D02*
X119352333Y-92312633D01*
X119352333Y-92312633D02*
X119419000Y-92312633D01*
X119419000Y-92312633D02*
X119519000Y-92345966D01*
X119519000Y-92345966D02*
X119552333Y-92379300D01*
X119785667Y-92312633D02*
X120219000Y-92312633D01*
X120219000Y-92312633D02*
X119985667Y-92579300D01*
X119985667Y-92579300D02*
X120085667Y-92579300D01*
X120085667Y-92579300D02*
X120152333Y-92612633D01*
X120152333Y-92612633D02*
X120185667Y-92645966D01*
X120185667Y-92645966D02*
X120219000Y-92712633D01*
X120219000Y-92712633D02*
X120219000Y-92879300D01*
X120219000Y-92879300D02*
X120185667Y-92945966D01*
X120185667Y-92945966D02*
X120152333Y-92979300D01*
X120152333Y-92979300D02*
X120085667Y-93012633D01*
X120085667Y-93012633D02*
X119885667Y-93012633D01*
X119885667Y-93012633D02*
X119819000Y-92979300D01*
X119819000Y-92979300D02*
X119785667Y-92945966D01*
X158139999Y-83201966D02*
X158106666Y-83235300D01*
X158106666Y-83235300D02*
X158006666Y-83268633D01*
X158006666Y-83268633D02*
X157939999Y-83268633D01*
X157939999Y-83268633D02*
X157839999Y-83235300D01*
X157839999Y-83235300D02*
X157773333Y-83168633D01*
X157773333Y-83168633D02*
X157739999Y-83101966D01*
X157739999Y-83101966D02*
X157706666Y-82968633D01*
X157706666Y-82968633D02*
X157706666Y-82868633D01*
X157706666Y-82868633D02*
X157739999Y-82735300D01*
X157739999Y-82735300D02*
X157773333Y-82668633D01*
X157773333Y-82668633D02*
X157839999Y-82601966D01*
X157839999Y-82601966D02*
X157939999Y-82568633D01*
X157939999Y-82568633D02*
X158006666Y-82568633D01*
X158006666Y-82568633D02*
X158106666Y-82601966D01*
X158106666Y-82601966D02*
X158139999Y-82635300D01*
X158806666Y-83268633D02*
X158406666Y-83268633D01*
X158606666Y-83268633D02*
X158606666Y-82568633D01*
X158606666Y-82568633D02*
X158539999Y-82668633D01*
X158539999Y-82668633D02*
X158473333Y-82735300D01*
X158473333Y-82735300D02*
X158406666Y-82768633D01*
X159206666Y-82868633D02*
X159140000Y-82835300D01*
X159140000Y-82835300D02*
X159106666Y-82801966D01*
X159106666Y-82801966D02*
X159073333Y-82735300D01*
X159073333Y-82735300D02*
X159073333Y-82701966D01*
X159073333Y-82701966D02*
X159106666Y-82635300D01*
X159106666Y-82635300D02*
X159140000Y-82601966D01*
X159140000Y-82601966D02*
X159206666Y-82568633D01*
X159206666Y-82568633D02*
X159340000Y-82568633D01*
X159340000Y-82568633D02*
X159406666Y-82601966D01*
X159406666Y-82601966D02*
X159440000Y-82635300D01*
X159440000Y-82635300D02*
X159473333Y-82701966D01*
X159473333Y-82701966D02*
X159473333Y-82735300D01*
X159473333Y-82735300D02*
X159440000Y-82801966D01*
X159440000Y-82801966D02*
X159406666Y-82835300D01*
X159406666Y-82835300D02*
X159340000Y-82868633D01*
X159340000Y-82868633D02*
X159206666Y-82868633D01*
X159206666Y-82868633D02*
X159140000Y-82901966D01*
X159140000Y-82901966D02*
X159106666Y-82935300D01*
X159106666Y-82935300D02*
X159073333Y-83001966D01*
X159073333Y-83001966D02*
X159073333Y-83135300D01*
X159073333Y-83135300D02*
X159106666Y-83201966D01*
X159106666Y-83201966D02*
X159140000Y-83235300D01*
X159140000Y-83235300D02*
X159206666Y-83268633D01*
X159206666Y-83268633D02*
X159340000Y-83268633D01*
X159340000Y-83268633D02*
X159406666Y-83235300D01*
X159406666Y-83235300D02*
X159440000Y-83201966D01*
X159440000Y-83201966D02*
X159473333Y-83135300D01*
X159473333Y-83135300D02*
X159473333Y-83001966D01*
X159473333Y-83001966D02*
X159440000Y-82935300D01*
X159440000Y-82935300D02*
X159406666Y-82901966D01*
X159406666Y-82901966D02*
X159340000Y-82868633D01*
X158189999Y-82118633D02*
X157956666Y-81785300D01*
X157789999Y-82118633D02*
X157789999Y-81418633D01*
X157789999Y-81418633D02*
X158056666Y-81418633D01*
X158056666Y-81418633D02*
X158123333Y-81451966D01*
X158123333Y-81451966D02*
X158156666Y-81485300D01*
X158156666Y-81485300D02*
X158189999Y-81551966D01*
X158189999Y-81551966D02*
X158189999Y-81651966D01*
X158189999Y-81651966D02*
X158156666Y-81718633D01*
X158156666Y-81718633D02*
X158123333Y-81751966D01*
X158123333Y-81751966D02*
X158056666Y-81785300D01*
X158056666Y-81785300D02*
X157789999Y-81785300D01*
X158856666Y-82118633D02*
X158456666Y-82118633D01*
X158656666Y-82118633D02*
X158656666Y-81418633D01*
X158656666Y-81418633D02*
X158589999Y-81518633D01*
X158589999Y-81518633D02*
X158523333Y-81585300D01*
X158523333Y-81585300D02*
X158456666Y-81618633D01*
X159523333Y-82118633D02*
X159123333Y-82118633D01*
X159323333Y-82118633D02*
X159323333Y-81418633D01*
X159323333Y-81418633D02*
X159256666Y-81518633D01*
X159256666Y-81518633D02*
X159190000Y-81585300D01*
X159190000Y-81585300D02*
X159123333Y-81618633D01*
X113525133Y-87510667D02*
X113525133Y-87844000D01*
X113525133Y-87844000D02*
X112825133Y-87844000D01*
X112891800Y-87310666D02*
X112858466Y-87277333D01*
X112858466Y-87277333D02*
X112825133Y-87210666D01*
X112825133Y-87210666D02*
X112825133Y-87044000D01*
X112825133Y-87044000D02*
X112858466Y-86977333D01*
X112858466Y-86977333D02*
X112891800Y-86944000D01*
X112891800Y-86944000D02*
X112958466Y-86910666D01*
X112958466Y-86910666D02*
X113025133Y-86910666D01*
X113025133Y-86910666D02*
X113125133Y-86944000D01*
X113125133Y-86944000D02*
X113525133Y-87344000D01*
X113525133Y-87344000D02*
X113525133Y-86910666D01*
X120157633Y-75200666D02*
X119824300Y-75433999D01*
X120157633Y-75600666D02*
X119457633Y-75600666D01*
X119457633Y-75600666D02*
X119457633Y-75333999D01*
X119457633Y-75333999D02*
X119490966Y-75267333D01*
X119490966Y-75267333D02*
X119524300Y-75233999D01*
X119524300Y-75233999D02*
X119590966Y-75200666D01*
X119590966Y-75200666D02*
X119690966Y-75200666D01*
X119690966Y-75200666D02*
X119757633Y-75233999D01*
X119757633Y-75233999D02*
X119790966Y-75267333D01*
X119790966Y-75267333D02*
X119824300Y-75333999D01*
X119824300Y-75333999D02*
X119824300Y-75600666D01*
X119524300Y-74933999D02*
X119490966Y-74900666D01*
X119490966Y-74900666D02*
X119457633Y-74833999D01*
X119457633Y-74833999D02*
X119457633Y-74667333D01*
X119457633Y-74667333D02*
X119490966Y-74600666D01*
X119490966Y-74600666D02*
X119524300Y-74567333D01*
X119524300Y-74567333D02*
X119590966Y-74533999D01*
X119590966Y-74533999D02*
X119657633Y-74533999D01*
X119657633Y-74533999D02*
X119757633Y-74567333D01*
X119757633Y-74567333D02*
X120157633Y-74967333D01*
X120157633Y-74967333D02*
X120157633Y-74533999D01*
X121407633Y-87810666D02*
X121074300Y-88043999D01*
X121407633Y-88210666D02*
X120707633Y-88210666D01*
X120707633Y-88210666D02*
X120707633Y-87943999D01*
X120707633Y-87943999D02*
X120740966Y-87877333D01*
X120740966Y-87877333D02*
X120774300Y-87843999D01*
X120774300Y-87843999D02*
X120840966Y-87810666D01*
X120840966Y-87810666D02*
X120940966Y-87810666D01*
X120940966Y-87810666D02*
X121007633Y-87843999D01*
X121007633Y-87843999D02*
X121040966Y-87877333D01*
X121040966Y-87877333D02*
X121074300Y-87943999D01*
X121074300Y-87943999D02*
X121074300Y-88210666D01*
X120940966Y-87210666D02*
X121407633Y-87210666D01*
X120674300Y-87377333D02*
X121174300Y-87543999D01*
X121174300Y-87543999D02*
X121174300Y-87110666D01*
X112537499Y-100518633D02*
X112304166Y-100185300D01*
X112137499Y-100518633D02*
X112137499Y-99818633D01*
X112137499Y-99818633D02*
X112404166Y-99818633D01*
X112404166Y-99818633D02*
X112470833Y-99851966D01*
X112470833Y-99851966D02*
X112504166Y-99885300D01*
X112504166Y-99885300D02*
X112537499Y-99951966D01*
X112537499Y-99951966D02*
X112537499Y-100051966D01*
X112537499Y-100051966D02*
X112504166Y-100118633D01*
X112504166Y-100118633D02*
X112470833Y-100151966D01*
X112470833Y-100151966D02*
X112404166Y-100185300D01*
X112404166Y-100185300D02*
X112137499Y-100185300D01*
X113204166Y-100518633D02*
X112804166Y-100518633D01*
X113004166Y-100518633D02*
X113004166Y-99818633D01*
X113004166Y-99818633D02*
X112937499Y-99918633D01*
X112937499Y-99918633D02*
X112870833Y-99985300D01*
X112870833Y-99985300D02*
X112804166Y-100018633D01*
X113437500Y-99818633D02*
X113870833Y-99818633D01*
X113870833Y-99818633D02*
X113637500Y-100085300D01*
X113637500Y-100085300D02*
X113737500Y-100085300D01*
X113737500Y-100085300D02*
X113804166Y-100118633D01*
X113804166Y-100118633D02*
X113837500Y-100151966D01*
X113837500Y-100151966D02*
X113870833Y-100218633D01*
X113870833Y-100218633D02*
X113870833Y-100385300D01*
X113870833Y-100385300D02*
X113837500Y-100451966D01*
X113837500Y-100451966D02*
X113804166Y-100485300D01*
X113804166Y-100485300D02*
X113737500Y-100518633D01*
X113737500Y-100518633D02*
X113537500Y-100518633D01*
X113537500Y-100518633D02*
X113470833Y-100485300D01*
X113470833Y-100485300D02*
X113437500Y-100451966D01*
X125108466Y-89394000D02*
X125141800Y-89427333D01*
X125141800Y-89427333D02*
X125175133Y-89527333D01*
X125175133Y-89527333D02*
X125175133Y-89594000D01*
X125175133Y-89594000D02*
X125141800Y-89694000D01*
X125141800Y-89694000D02*
X125075133Y-89760667D01*
X125075133Y-89760667D02*
X125008466Y-89794000D01*
X125008466Y-89794000D02*
X124875133Y-89827333D01*
X124875133Y-89827333D02*
X124775133Y-89827333D01*
X124775133Y-89827333D02*
X124641800Y-89794000D01*
X124641800Y-89794000D02*
X124575133Y-89760667D01*
X124575133Y-89760667D02*
X124508466Y-89694000D01*
X124508466Y-89694000D02*
X124475133Y-89594000D01*
X124475133Y-89594000D02*
X124475133Y-89527333D01*
X124475133Y-89527333D02*
X124508466Y-89427333D01*
X124508466Y-89427333D02*
X124541800Y-89394000D01*
X124541800Y-89127333D02*
X124508466Y-89094000D01*
X124508466Y-89094000D02*
X124475133Y-89027333D01*
X124475133Y-89027333D02*
X124475133Y-88860667D01*
X124475133Y-88860667D02*
X124508466Y-88794000D01*
X124508466Y-88794000D02*
X124541800Y-88760667D01*
X124541800Y-88760667D02*
X124608466Y-88727333D01*
X124608466Y-88727333D02*
X124675133Y-88727333D01*
X124675133Y-88727333D02*
X124775133Y-88760667D01*
X124775133Y-88760667D02*
X125175133Y-89160667D01*
X125175133Y-89160667D02*
X125175133Y-88727333D01*
X124708466Y-88127333D02*
X125175133Y-88127333D01*
X124441800Y-88294000D02*
X124941800Y-88460666D01*
X124941800Y-88460666D02*
X124941800Y-88027333D01*
X120112633Y-84185666D02*
X119779300Y-84418999D01*
X120112633Y-84585666D02*
X119412633Y-84585666D01*
X119412633Y-84585666D02*
X119412633Y-84318999D01*
X119412633Y-84318999D02*
X119445966Y-84252333D01*
X119445966Y-84252333D02*
X119479300Y-84218999D01*
X119479300Y-84218999D02*
X119545966Y-84185666D01*
X119545966Y-84185666D02*
X119645966Y-84185666D01*
X119645966Y-84185666D02*
X119712633Y-84218999D01*
X119712633Y-84218999D02*
X119745966Y-84252333D01*
X119745966Y-84252333D02*
X119779300Y-84318999D01*
X119779300Y-84318999D02*
X119779300Y-84585666D01*
X119412633Y-83585666D02*
X119412633Y-83718999D01*
X119412633Y-83718999D02*
X119445966Y-83785666D01*
X119445966Y-83785666D02*
X119479300Y-83818999D01*
X119479300Y-83818999D02*
X119579300Y-83885666D01*
X119579300Y-83885666D02*
X119712633Y-83918999D01*
X119712633Y-83918999D02*
X119979300Y-83918999D01*
X119979300Y-83918999D02*
X120045966Y-83885666D01*
X120045966Y-83885666D02*
X120079300Y-83852333D01*
X120079300Y-83852333D02*
X120112633Y-83785666D01*
X120112633Y-83785666D02*
X120112633Y-83652333D01*
X120112633Y-83652333D02*
X120079300Y-83585666D01*
X120079300Y-83585666D02*
X120045966Y-83552333D01*
X120045966Y-83552333D02*
X119979300Y-83518999D01*
X119979300Y-83518999D02*
X119812633Y-83518999D01*
X119812633Y-83518999D02*
X119745966Y-83552333D01*
X119745966Y-83552333D02*
X119712633Y-83585666D01*
X119712633Y-83585666D02*
X119679300Y-83652333D01*
X119679300Y-83652333D02*
X119679300Y-83785666D01*
X119679300Y-83785666D02*
X119712633Y-83852333D01*
X119712633Y-83852333D02*
X119745966Y-83885666D01*
X119745966Y-83885666D02*
X119812633Y-83918999D01*
X114606666Y-61558633D02*
X114606666Y-60858633D01*
X114606666Y-61191966D02*
X115006666Y-61191966D01*
X115006666Y-61558633D02*
X115006666Y-60858633D01*
X115306666Y-60925300D02*
X115339999Y-60891966D01*
X115339999Y-60891966D02*
X115406666Y-60858633D01*
X115406666Y-60858633D02*
X115573333Y-60858633D01*
X115573333Y-60858633D02*
X115639999Y-60891966D01*
X115639999Y-60891966D02*
X115673333Y-60925300D01*
X115673333Y-60925300D02*
X115706666Y-60991966D01*
X115706666Y-60991966D02*
X115706666Y-61058633D01*
X115706666Y-61058633D02*
X115673333Y-61158633D01*
X115673333Y-61158633D02*
X115273333Y-61558633D01*
X115273333Y-61558633D02*
X115706666Y-61558633D01*
X120237633Y-91460666D02*
X119904300Y-91693999D01*
X120237633Y-91860666D02*
X119537633Y-91860666D01*
X119537633Y-91860666D02*
X119537633Y-91593999D01*
X119537633Y-91593999D02*
X119570966Y-91527333D01*
X119570966Y-91527333D02*
X119604300Y-91493999D01*
X119604300Y-91493999D02*
X119670966Y-91460666D01*
X119670966Y-91460666D02*
X119770966Y-91460666D01*
X119770966Y-91460666D02*
X119837633Y-91493999D01*
X119837633Y-91493999D02*
X119870966Y-91527333D01*
X119870966Y-91527333D02*
X119904300Y-91593999D01*
X119904300Y-91593999D02*
X119904300Y-91860666D01*
X119537633Y-91227333D02*
X119537633Y-90793999D01*
X119537633Y-90793999D02*
X119804300Y-91027333D01*
X119804300Y-91027333D02*
X119804300Y-90927333D01*
X119804300Y-90927333D02*
X119837633Y-90860666D01*
X119837633Y-90860666D02*
X119870966Y-90827333D01*
X119870966Y-90827333D02*
X119937633Y-90793999D01*
X119937633Y-90793999D02*
X120104300Y-90793999D01*
X120104300Y-90793999D02*
X120170966Y-90827333D01*
X120170966Y-90827333D02*
X120204300Y-90860666D01*
X120204300Y-90860666D02*
X120237633Y-90927333D01*
X120237633Y-90927333D02*
X120237633Y-91127333D01*
X120237633Y-91127333D02*
X120204300Y-91193999D01*
X120204300Y-91193999D02*
X120170966Y-91227333D01*
X160151966Y-86970000D02*
X160185300Y-87003333D01*
X160185300Y-87003333D02*
X160218633Y-87103333D01*
X160218633Y-87103333D02*
X160218633Y-87170000D01*
X160218633Y-87170000D02*
X160185300Y-87270000D01*
X160185300Y-87270000D02*
X160118633Y-87336667D01*
X160118633Y-87336667D02*
X160051966Y-87370000D01*
X160051966Y-87370000D02*
X159918633Y-87403333D01*
X159918633Y-87403333D02*
X159818633Y-87403333D01*
X159818633Y-87403333D02*
X159685300Y-87370000D01*
X159685300Y-87370000D02*
X159618633Y-87336667D01*
X159618633Y-87336667D02*
X159551966Y-87270000D01*
X159551966Y-87270000D02*
X159518633Y-87170000D01*
X159518633Y-87170000D02*
X159518633Y-87103333D01*
X159518633Y-87103333D02*
X159551966Y-87003333D01*
X159551966Y-87003333D02*
X159585300Y-86970000D01*
X160218633Y-86303333D02*
X160218633Y-86703333D01*
X160218633Y-86503333D02*
X159518633Y-86503333D01*
X159518633Y-86503333D02*
X159618633Y-86570000D01*
X159618633Y-86570000D02*
X159685300Y-86636667D01*
X159685300Y-86636667D02*
X159718633Y-86703333D01*
X159518633Y-85670000D02*
X159518633Y-86003333D01*
X159518633Y-86003333D02*
X159851966Y-86036666D01*
X159851966Y-86036666D02*
X159818633Y-86003333D01*
X159818633Y-86003333D02*
X159785300Y-85936666D01*
X159785300Y-85936666D02*
X159785300Y-85770000D01*
X159785300Y-85770000D02*
X159818633Y-85703333D01*
X159818633Y-85703333D02*
X159851966Y-85670000D01*
X159851966Y-85670000D02*
X159918633Y-85636666D01*
X159918633Y-85636666D02*
X160085300Y-85636666D01*
X160085300Y-85636666D02*
X160151966Y-85670000D01*
X160151966Y-85670000D02*
X160185300Y-85703333D01*
X160185300Y-85703333D02*
X160218633Y-85770000D01*
X160218633Y-85770000D02*
X160218633Y-85936666D01*
X160218633Y-85936666D02*
X160185300Y-86003333D01*
X160185300Y-86003333D02*
X160151966Y-86036666D01*
X114005666Y-75952633D02*
X114005666Y-76519300D01*
X114005666Y-76519300D02*
X114039000Y-76585966D01*
X114039000Y-76585966D02*
X114072333Y-76619300D01*
X114072333Y-76619300D02*
X114139000Y-76652633D01*
X114139000Y-76652633D02*
X114272333Y-76652633D01*
X114272333Y-76652633D02*
X114339000Y-76619300D01*
X114339000Y-76619300D02*
X114372333Y-76585966D01*
X114372333Y-76585966D02*
X114405666Y-76519300D01*
X114405666Y-76519300D02*
X114405666Y-75952633D01*
X114705666Y-76019300D02*
X114738999Y-75985966D01*
X114738999Y-75985966D02*
X114805666Y-75952633D01*
X114805666Y-75952633D02*
X114972333Y-75952633D01*
X114972333Y-75952633D02*
X115038999Y-75985966D01*
X115038999Y-75985966D02*
X115072333Y-76019300D01*
X115072333Y-76019300D02*
X115105666Y-76085966D01*
X115105666Y-76085966D02*
X115105666Y-76152633D01*
X115105666Y-76152633D02*
X115072333Y-76252633D01*
X115072333Y-76252633D02*
X114672333Y-76652633D01*
X114672333Y-76652633D02*
X115105666Y-76652633D01*
X120112633Y-78835666D02*
X119779300Y-79068999D01*
X120112633Y-79235666D02*
X119412633Y-79235666D01*
X119412633Y-79235666D02*
X119412633Y-78968999D01*
X119412633Y-78968999D02*
X119445966Y-78902333D01*
X119445966Y-78902333D02*
X119479300Y-78868999D01*
X119479300Y-78868999D02*
X119545966Y-78835666D01*
X119545966Y-78835666D02*
X119645966Y-78835666D01*
X119645966Y-78835666D02*
X119712633Y-78868999D01*
X119712633Y-78868999D02*
X119745966Y-78902333D01*
X119745966Y-78902333D02*
X119779300Y-78968999D01*
X119779300Y-78968999D02*
X119779300Y-79235666D01*
X119412633Y-78202333D02*
X119412633Y-78535666D01*
X119412633Y-78535666D02*
X119745966Y-78568999D01*
X119745966Y-78568999D02*
X119712633Y-78535666D01*
X119712633Y-78535666D02*
X119679300Y-78468999D01*
X119679300Y-78468999D02*
X119679300Y-78302333D01*
X119679300Y-78302333D02*
X119712633Y-78235666D01*
X119712633Y-78235666D02*
X119745966Y-78202333D01*
X119745966Y-78202333D02*
X119812633Y-78168999D01*
X119812633Y-78168999D02*
X119979300Y-78168999D01*
X119979300Y-78168999D02*
X120045966Y-78202333D01*
X120045966Y-78202333D02*
X120079300Y-78235666D01*
X120079300Y-78235666D02*
X120112633Y-78302333D01*
X120112633Y-78302333D02*
X120112633Y-78468999D01*
X120112633Y-78468999D02*
X120079300Y-78535666D01*
X120079300Y-78535666D02*
X120045966Y-78568999D01*
X114657633Y-71650667D02*
X114657633Y-71984000D01*
X114657633Y-71984000D02*
X113957633Y-71984000D01*
X114657633Y-71050666D02*
X114657633Y-71450666D01*
X114657633Y-71250666D02*
X113957633Y-71250666D01*
X113957633Y-71250666D02*
X114057633Y-71317333D01*
X114057633Y-71317333D02*
X114124300Y-71384000D01*
X114124300Y-71384000D02*
X114157633Y-71450666D01*
X114477333Y-79270966D02*
X114444000Y-79304300D01*
X114444000Y-79304300D02*
X114344000Y-79337633D01*
X114344000Y-79337633D02*
X114277333Y-79337633D01*
X114277333Y-79337633D02*
X114177333Y-79304300D01*
X114177333Y-79304300D02*
X114110667Y-79237633D01*
X114110667Y-79237633D02*
X114077333Y-79170966D01*
X114077333Y-79170966D02*
X114044000Y-79037633D01*
X114044000Y-79037633D02*
X114044000Y-78937633D01*
X114044000Y-78937633D02*
X114077333Y-78804300D01*
X114077333Y-78804300D02*
X114110667Y-78737633D01*
X114110667Y-78737633D02*
X114177333Y-78670966D01*
X114177333Y-78670966D02*
X114277333Y-78637633D01*
X114277333Y-78637633D02*
X114344000Y-78637633D01*
X114344000Y-78637633D02*
X114444000Y-78670966D01*
X114444000Y-78670966D02*
X114477333Y-78704300D01*
X115077333Y-78637633D02*
X114944000Y-78637633D01*
X114944000Y-78637633D02*
X114877333Y-78670966D01*
X114877333Y-78670966D02*
X114844000Y-78704300D01*
X114844000Y-78704300D02*
X114777333Y-78804300D01*
X114777333Y-78804300D02*
X114744000Y-78937633D01*
X114744000Y-78937633D02*
X114744000Y-79204300D01*
X114744000Y-79204300D02*
X114777333Y-79270966D01*
X114777333Y-79270966D02*
X114810667Y-79304300D01*
X114810667Y-79304300D02*
X114877333Y-79337633D01*
X114877333Y-79337633D02*
X115010667Y-79337633D01*
X115010667Y-79337633D02*
X115077333Y-79304300D01*
X115077333Y-79304300D02*
X115110667Y-79270966D01*
X115110667Y-79270966D02*
X115144000Y-79204300D01*
X115144000Y-79204300D02*
X115144000Y-79037633D01*
X115144000Y-79037633D02*
X115110667Y-78970966D01*
X115110667Y-78970966D02*
X115077333Y-78937633D01*
X115077333Y-78937633D02*
X115010667Y-78904300D01*
X115010667Y-78904300D02*
X114877333Y-78904300D01*
X114877333Y-78904300D02*
X114810667Y-78937633D01*
X114810667Y-78937633D02*
X114777333Y-78970966D01*
X114777333Y-78970966D02*
X114744000Y-79037633D01*
X121257633Y-71650666D02*
X120924300Y-71883999D01*
X121257633Y-72050666D02*
X120557633Y-72050666D01*
X120557633Y-72050666D02*
X120557633Y-71783999D01*
X120557633Y-71783999D02*
X120590966Y-71717333D01*
X120590966Y-71717333D02*
X120624300Y-71683999D01*
X120624300Y-71683999D02*
X120690966Y-71650666D01*
X120690966Y-71650666D02*
X120790966Y-71650666D01*
X120790966Y-71650666D02*
X120857633Y-71683999D01*
X120857633Y-71683999D02*
X120890966Y-71717333D01*
X120890966Y-71717333D02*
X120924300Y-71783999D01*
X120924300Y-71783999D02*
X120924300Y-72050666D01*
X121257633Y-70983999D02*
X121257633Y-71383999D01*
X121257633Y-71183999D02*
X120557633Y-71183999D01*
X120557633Y-71183999D02*
X120657633Y-71250666D01*
X120657633Y-71250666D02*
X120724300Y-71317333D01*
X120724300Y-71317333D02*
X120757633Y-71383999D01*
X158169999Y-99648633D02*
X157936666Y-99315300D01*
X157769999Y-99648633D02*
X157769999Y-98948633D01*
X157769999Y-98948633D02*
X158036666Y-98948633D01*
X158036666Y-98948633D02*
X158103333Y-98981966D01*
X158103333Y-98981966D02*
X158136666Y-99015300D01*
X158136666Y-99015300D02*
X158169999Y-99081966D01*
X158169999Y-99081966D02*
X158169999Y-99181966D01*
X158169999Y-99181966D02*
X158136666Y-99248633D01*
X158136666Y-99248633D02*
X158103333Y-99281966D01*
X158103333Y-99281966D02*
X158036666Y-99315300D01*
X158036666Y-99315300D02*
X157769999Y-99315300D01*
X158836666Y-99648633D02*
X158436666Y-99648633D01*
X158636666Y-99648633D02*
X158636666Y-98948633D01*
X158636666Y-98948633D02*
X158569999Y-99048633D01*
X158569999Y-99048633D02*
X158503333Y-99115300D01*
X158503333Y-99115300D02*
X158436666Y-99148633D01*
X159103333Y-99015300D02*
X159136666Y-98981966D01*
X159136666Y-98981966D02*
X159203333Y-98948633D01*
X159203333Y-98948633D02*
X159370000Y-98948633D01*
X159370000Y-98948633D02*
X159436666Y-98981966D01*
X159436666Y-98981966D02*
X159470000Y-99015300D01*
X159470000Y-99015300D02*
X159503333Y-99081966D01*
X159503333Y-99081966D02*
X159503333Y-99148633D01*
X159503333Y-99148633D02*
X159470000Y-99248633D01*
X159470000Y-99248633D02*
X159070000Y-99648633D01*
X159070000Y-99648633D02*
X159503333Y-99648633D01*
X123251966Y-69750000D02*
X123285300Y-69783333D01*
X123285300Y-69783333D02*
X123318633Y-69883333D01*
X123318633Y-69883333D02*
X123318633Y-69950000D01*
X123318633Y-69950000D02*
X123285300Y-70050000D01*
X123285300Y-70050000D02*
X123218633Y-70116667D01*
X123218633Y-70116667D02*
X123151966Y-70150000D01*
X123151966Y-70150000D02*
X123018633Y-70183333D01*
X123018633Y-70183333D02*
X122918633Y-70183333D01*
X122918633Y-70183333D02*
X122785300Y-70150000D01*
X122785300Y-70150000D02*
X122718633Y-70116667D01*
X122718633Y-70116667D02*
X122651966Y-70050000D01*
X122651966Y-70050000D02*
X122618633Y-69950000D01*
X122618633Y-69950000D02*
X122618633Y-69883333D01*
X122618633Y-69883333D02*
X122651966Y-69783333D01*
X122651966Y-69783333D02*
X122685300Y-69750000D01*
X122685300Y-69483333D02*
X122651966Y-69450000D01*
X122651966Y-69450000D02*
X122618633Y-69383333D01*
X122618633Y-69383333D02*
X122618633Y-69216667D01*
X122618633Y-69216667D02*
X122651966Y-69150000D01*
X122651966Y-69150000D02*
X122685300Y-69116667D01*
X122685300Y-69116667D02*
X122751966Y-69083333D01*
X122751966Y-69083333D02*
X122818633Y-69083333D01*
X122818633Y-69083333D02*
X122918633Y-69116667D01*
X122918633Y-69116667D02*
X123318633Y-69516667D01*
X123318633Y-69516667D02*
X123318633Y-69083333D01*
X122618633Y-68850000D02*
X122618633Y-68416666D01*
X122618633Y-68416666D02*
X122885300Y-68650000D01*
X122885300Y-68650000D02*
X122885300Y-68550000D01*
X122885300Y-68550000D02*
X122918633Y-68483333D01*
X122918633Y-68483333D02*
X122951966Y-68450000D01*
X122951966Y-68450000D02*
X123018633Y-68416666D01*
X123018633Y-68416666D02*
X123185300Y-68416666D01*
X123185300Y-68416666D02*
X123251966Y-68450000D01*
X123251966Y-68450000D02*
X123285300Y-68483333D01*
X123285300Y-68483333D02*
X123318633Y-68550000D01*
X123318633Y-68550000D02*
X123318633Y-68750000D01*
X123318633Y-68750000D02*
X123285300Y-68816666D01*
X123285300Y-68816666D02*
X123251966Y-68850000D01*
X158119999Y-80968633D02*
X157886666Y-80635300D01*
X157719999Y-80968633D02*
X157719999Y-80268633D01*
X157719999Y-80268633D02*
X157986666Y-80268633D01*
X157986666Y-80268633D02*
X158053333Y-80301966D01*
X158053333Y-80301966D02*
X158086666Y-80335300D01*
X158086666Y-80335300D02*
X158119999Y-80401966D01*
X158119999Y-80401966D02*
X158119999Y-80501966D01*
X158119999Y-80501966D02*
X158086666Y-80568633D01*
X158086666Y-80568633D02*
X158053333Y-80601966D01*
X158053333Y-80601966D02*
X157986666Y-80635300D01*
X157986666Y-80635300D02*
X157719999Y-80635300D01*
X158786666Y-80968633D02*
X158386666Y-80968633D01*
X158586666Y-80968633D02*
X158586666Y-80268633D01*
X158586666Y-80268633D02*
X158519999Y-80368633D01*
X158519999Y-80368633D02*
X158453333Y-80435300D01*
X158453333Y-80435300D02*
X158386666Y-80468633D01*
X159186666Y-80568633D02*
X159120000Y-80535300D01*
X159120000Y-80535300D02*
X159086666Y-80501966D01*
X159086666Y-80501966D02*
X159053333Y-80435300D01*
X159053333Y-80435300D02*
X159053333Y-80401966D01*
X159053333Y-80401966D02*
X159086666Y-80335300D01*
X159086666Y-80335300D02*
X159120000Y-80301966D01*
X159120000Y-80301966D02*
X159186666Y-80268633D01*
X159186666Y-80268633D02*
X159320000Y-80268633D01*
X159320000Y-80268633D02*
X159386666Y-80301966D01*
X159386666Y-80301966D02*
X159420000Y-80335300D01*
X159420000Y-80335300D02*
X159453333Y-80401966D01*
X159453333Y-80401966D02*
X159453333Y-80435300D01*
X159453333Y-80435300D02*
X159420000Y-80501966D01*
X159420000Y-80501966D02*
X159386666Y-80535300D01*
X159386666Y-80535300D02*
X159320000Y-80568633D01*
X159320000Y-80568633D02*
X159186666Y-80568633D01*
X159186666Y-80568633D02*
X159120000Y-80601966D01*
X159120000Y-80601966D02*
X159086666Y-80635300D01*
X159086666Y-80635300D02*
X159053333Y-80701966D01*
X159053333Y-80701966D02*
X159053333Y-80835300D01*
X159053333Y-80835300D02*
X159086666Y-80901966D01*
X159086666Y-80901966D02*
X159120000Y-80935300D01*
X159120000Y-80935300D02*
X159186666Y-80968633D01*
X159186666Y-80968633D02*
X159320000Y-80968633D01*
X159320000Y-80968633D02*
X159386666Y-80935300D01*
X159386666Y-80935300D02*
X159420000Y-80901966D01*
X159420000Y-80901966D02*
X159453333Y-80835300D01*
X159453333Y-80835300D02*
X159453333Y-80701966D01*
X159453333Y-80701966D02*
X159420000Y-80635300D01*
X159420000Y-80635300D02*
X159386666Y-80601966D01*
X159386666Y-80601966D02*
X159320000Y-80568633D01*
X139536666Y-102353633D02*
X139536666Y-102920300D01*
X139536666Y-102920300D02*
X139570000Y-102986966D01*
X139570000Y-102986966D02*
X139603333Y-103020300D01*
X139603333Y-103020300D02*
X139670000Y-103053633D01*
X139670000Y-103053633D02*
X139803333Y-103053633D01*
X139803333Y-103053633D02*
X139870000Y-103020300D01*
X139870000Y-103020300D02*
X139903333Y-102986966D01*
X139903333Y-102986966D02*
X139936666Y-102920300D01*
X139936666Y-102920300D02*
X139936666Y-102353633D01*
X140603333Y-102353633D02*
X140269999Y-102353633D01*
X140269999Y-102353633D02*
X140236666Y-102686966D01*
X140236666Y-102686966D02*
X140269999Y-102653633D01*
X140269999Y-102653633D02*
X140336666Y-102620300D01*
X140336666Y-102620300D02*
X140503333Y-102620300D01*
X140503333Y-102620300D02*
X140569999Y-102653633D01*
X140569999Y-102653633D02*
X140603333Y-102686966D01*
X140603333Y-102686966D02*
X140636666Y-102753633D01*
X140636666Y-102753633D02*
X140636666Y-102920300D01*
X140636666Y-102920300D02*
X140603333Y-102986966D01*
X140603333Y-102986966D02*
X140569999Y-103020300D01*
X140569999Y-103020300D02*
X140503333Y-103053633D01*
X140503333Y-103053633D02*
X140336666Y-103053633D01*
X140336666Y-103053633D02*
X140269999Y-103020300D01*
X140269999Y-103020300D02*
X140236666Y-102986966D01*
X114364833Y-87195966D02*
X114331500Y-87229300D01*
X114331500Y-87229300D02*
X114231500Y-87262633D01*
X114231500Y-87262633D02*
X114164833Y-87262633D01*
X114164833Y-87262633D02*
X114064833Y-87229300D01*
X114064833Y-87229300D02*
X113998167Y-87162633D01*
X113998167Y-87162633D02*
X113964833Y-87095966D01*
X113964833Y-87095966D02*
X113931500Y-86962633D01*
X113931500Y-86962633D02*
X113931500Y-86862633D01*
X113931500Y-86862633D02*
X113964833Y-86729300D01*
X113964833Y-86729300D02*
X113998167Y-86662633D01*
X113998167Y-86662633D02*
X114064833Y-86595966D01*
X114064833Y-86595966D02*
X114164833Y-86562633D01*
X114164833Y-86562633D02*
X114231500Y-86562633D01*
X114231500Y-86562633D02*
X114331500Y-86595966D01*
X114331500Y-86595966D02*
X114364833Y-86629300D01*
X114964833Y-86795966D02*
X114964833Y-87262633D01*
X114798167Y-86529300D02*
X114631500Y-87029300D01*
X114631500Y-87029300D02*
X115064833Y-87029300D01*
X121153466Y-75934000D02*
X121186800Y-75967333D01*
X121186800Y-75967333D02*
X121220133Y-76067333D01*
X121220133Y-76067333D02*
X121220133Y-76134000D01*
X121220133Y-76134000D02*
X121186800Y-76234000D01*
X121186800Y-76234000D02*
X121120133Y-76300667D01*
X121120133Y-76300667D02*
X121053466Y-76334000D01*
X121053466Y-76334000D02*
X120920133Y-76367333D01*
X120920133Y-76367333D02*
X120820133Y-76367333D01*
X120820133Y-76367333D02*
X120686800Y-76334000D01*
X120686800Y-76334000D02*
X120620133Y-76300667D01*
X120620133Y-76300667D02*
X120553466Y-76234000D01*
X120553466Y-76234000D02*
X120520133Y-76134000D01*
X120520133Y-76134000D02*
X120520133Y-76067333D01*
X120520133Y-76067333D02*
X120553466Y-75967333D01*
X120553466Y-75967333D02*
X120586800Y-75934000D01*
X120753466Y-75334000D02*
X121220133Y-75334000D01*
X120486800Y-75500667D02*
X120986800Y-75667333D01*
X120986800Y-75667333D02*
X120986800Y-75234000D01*
X120753466Y-74667333D02*
X121220133Y-74667333D01*
X120486800Y-74834000D02*
X120986800Y-75000666D01*
X120986800Y-75000666D02*
X120986800Y-74567333D01*
X133721966Y-98010000D02*
X133755300Y-98043333D01*
X133755300Y-98043333D02*
X133788633Y-98143333D01*
X133788633Y-98143333D02*
X133788633Y-98210000D01*
X133788633Y-98210000D02*
X133755300Y-98310000D01*
X133755300Y-98310000D02*
X133688633Y-98376667D01*
X133688633Y-98376667D02*
X133621966Y-98410000D01*
X133621966Y-98410000D02*
X133488633Y-98443333D01*
X133488633Y-98443333D02*
X133388633Y-98443333D01*
X133388633Y-98443333D02*
X133255300Y-98410000D01*
X133255300Y-98410000D02*
X133188633Y-98376667D01*
X133188633Y-98376667D02*
X133121966Y-98310000D01*
X133121966Y-98310000D02*
X133088633Y-98210000D01*
X133088633Y-98210000D02*
X133088633Y-98143333D01*
X133088633Y-98143333D02*
X133121966Y-98043333D01*
X133121966Y-98043333D02*
X133155300Y-98010000D01*
X133788633Y-97343333D02*
X133788633Y-97743333D01*
X133788633Y-97543333D02*
X133088633Y-97543333D01*
X133088633Y-97543333D02*
X133188633Y-97610000D01*
X133188633Y-97610000D02*
X133255300Y-97676667D01*
X133255300Y-97676667D02*
X133288633Y-97743333D01*
X133088633Y-97110000D02*
X133088633Y-96643333D01*
X133088633Y-96643333D02*
X133788633Y-96943333D01*
X121133466Y-84969000D02*
X121166800Y-85002333D01*
X121166800Y-85002333D02*
X121200133Y-85102333D01*
X121200133Y-85102333D02*
X121200133Y-85169000D01*
X121200133Y-85169000D02*
X121166800Y-85269000D01*
X121166800Y-85269000D02*
X121100133Y-85335667D01*
X121100133Y-85335667D02*
X121033466Y-85369000D01*
X121033466Y-85369000D02*
X120900133Y-85402333D01*
X120900133Y-85402333D02*
X120800133Y-85402333D01*
X120800133Y-85402333D02*
X120666800Y-85369000D01*
X120666800Y-85369000D02*
X120600133Y-85335667D01*
X120600133Y-85335667D02*
X120533466Y-85269000D01*
X120533466Y-85269000D02*
X120500133Y-85169000D01*
X120500133Y-85169000D02*
X120500133Y-85102333D01*
X120500133Y-85102333D02*
X120533466Y-85002333D01*
X120533466Y-85002333D02*
X120566800Y-84969000D01*
X120733466Y-84369000D02*
X121200133Y-84369000D01*
X120466800Y-84535667D02*
X120966800Y-84702333D01*
X120966800Y-84702333D02*
X120966800Y-84269000D01*
X120500133Y-83702333D02*
X120500133Y-83835666D01*
X120500133Y-83835666D02*
X120533466Y-83902333D01*
X120533466Y-83902333D02*
X120566800Y-83935666D01*
X120566800Y-83935666D02*
X120666800Y-84002333D01*
X120666800Y-84002333D02*
X120800133Y-84035666D01*
X120800133Y-84035666D02*
X121066800Y-84035666D01*
X121066800Y-84035666D02*
X121133466Y-84002333D01*
X121133466Y-84002333D02*
X121166800Y-83969000D01*
X121166800Y-83969000D02*
X121200133Y-83902333D01*
X121200133Y-83902333D02*
X121200133Y-83769000D01*
X121200133Y-83769000D02*
X121166800Y-83702333D01*
X121166800Y-83702333D02*
X121133466Y-83669000D01*
X121133466Y-83669000D02*
X121066800Y-83635666D01*
X121066800Y-83635666D02*
X120900133Y-83635666D01*
X120900133Y-83635666D02*
X120833466Y-83669000D01*
X120833466Y-83669000D02*
X120800133Y-83702333D01*
X120800133Y-83702333D02*
X120766800Y-83769000D01*
X120766800Y-83769000D02*
X120766800Y-83902333D01*
X120766800Y-83902333D02*
X120800133Y-83969000D01*
X120800133Y-83969000D02*
X120833466Y-84002333D01*
X120833466Y-84002333D02*
X120900133Y-84035666D01*
X117027333Y-86700966D02*
X116994000Y-86734300D01*
X116994000Y-86734300D02*
X116894000Y-86767633D01*
X116894000Y-86767633D02*
X116827333Y-86767633D01*
X116827333Y-86767633D02*
X116727333Y-86734300D01*
X116727333Y-86734300D02*
X116660667Y-86667633D01*
X116660667Y-86667633D02*
X116627333Y-86600966D01*
X116627333Y-86600966D02*
X116594000Y-86467633D01*
X116594000Y-86467633D02*
X116594000Y-86367633D01*
X116594000Y-86367633D02*
X116627333Y-86234300D01*
X116627333Y-86234300D02*
X116660667Y-86167633D01*
X116660667Y-86167633D02*
X116727333Y-86100966D01*
X116727333Y-86100966D02*
X116827333Y-86067633D01*
X116827333Y-86067633D02*
X116894000Y-86067633D01*
X116894000Y-86067633D02*
X116994000Y-86100966D01*
X116994000Y-86100966D02*
X117027333Y-86134300D01*
X117660667Y-86067633D02*
X117327333Y-86067633D01*
X117327333Y-86067633D02*
X117294000Y-86400966D01*
X117294000Y-86400966D02*
X117327333Y-86367633D01*
X117327333Y-86367633D02*
X117394000Y-86334300D01*
X117394000Y-86334300D02*
X117560667Y-86334300D01*
X117560667Y-86334300D02*
X117627333Y-86367633D01*
X117627333Y-86367633D02*
X117660667Y-86400966D01*
X117660667Y-86400966D02*
X117694000Y-86467633D01*
X117694000Y-86467633D02*
X117694000Y-86634300D01*
X117694000Y-86634300D02*
X117660667Y-86700966D01*
X117660667Y-86700966D02*
X117627333Y-86734300D01*
X117627333Y-86734300D02*
X117560667Y-86767633D01*
X117560667Y-86767633D02*
X117394000Y-86767633D01*
X117394000Y-86767633D02*
X117327333Y-86734300D01*
X117327333Y-86734300D02*
X117294000Y-86700966D01*
X119447333Y-77185966D02*
X119414000Y-77219300D01*
X119414000Y-77219300D02*
X119314000Y-77252633D01*
X119314000Y-77252633D02*
X119247333Y-77252633D01*
X119247333Y-77252633D02*
X119147333Y-77219300D01*
X119147333Y-77219300D02*
X119080667Y-77152633D01*
X119080667Y-77152633D02*
X119047333Y-77085966D01*
X119047333Y-77085966D02*
X119014000Y-76952633D01*
X119014000Y-76952633D02*
X119014000Y-76852633D01*
X119014000Y-76852633D02*
X119047333Y-76719300D01*
X119047333Y-76719300D02*
X119080667Y-76652633D01*
X119080667Y-76652633D02*
X119147333Y-76585966D01*
X119147333Y-76585966D02*
X119247333Y-76552633D01*
X119247333Y-76552633D02*
X119314000Y-76552633D01*
X119314000Y-76552633D02*
X119414000Y-76585966D01*
X119414000Y-76585966D02*
X119447333Y-76619300D01*
X120114000Y-77252633D02*
X119714000Y-77252633D01*
X119914000Y-77252633D02*
X119914000Y-76552633D01*
X119914000Y-76552633D02*
X119847333Y-76652633D01*
X119847333Y-76652633D02*
X119780667Y-76719300D01*
X119780667Y-76719300D02*
X119714000Y-76752633D01*
X111606666Y-102408633D02*
X111606666Y-101708633D01*
X111606666Y-102041966D02*
X112006666Y-102041966D01*
X112006666Y-102408633D02*
X112006666Y-101708633D01*
X112639999Y-101941966D02*
X112639999Y-102408633D01*
X112473333Y-101675300D02*
X112306666Y-102175300D01*
X112306666Y-102175300D02*
X112739999Y-102175300D01*
X126783333Y-87773633D02*
X126550000Y-87440300D01*
X126383333Y-87773633D02*
X126383333Y-87073633D01*
X126383333Y-87073633D02*
X126650000Y-87073633D01*
X126650000Y-87073633D02*
X126716667Y-87106966D01*
X126716667Y-87106966D02*
X126750000Y-87140300D01*
X126750000Y-87140300D02*
X126783333Y-87206966D01*
X126783333Y-87206966D02*
X126783333Y-87306966D01*
X126783333Y-87306966D02*
X126750000Y-87373633D01*
X126750000Y-87373633D02*
X126716667Y-87406966D01*
X126716667Y-87406966D02*
X126650000Y-87440300D01*
X126650000Y-87440300D02*
X126383333Y-87440300D01*
X127183333Y-87373633D02*
X127116667Y-87340300D01*
X127116667Y-87340300D02*
X127083333Y-87306966D01*
X127083333Y-87306966D02*
X127050000Y-87240300D01*
X127050000Y-87240300D02*
X127050000Y-87206966D01*
X127050000Y-87206966D02*
X127083333Y-87140300D01*
X127083333Y-87140300D02*
X127116667Y-87106966D01*
X127116667Y-87106966D02*
X127183333Y-87073633D01*
X127183333Y-87073633D02*
X127316667Y-87073633D01*
X127316667Y-87073633D02*
X127383333Y-87106966D01*
X127383333Y-87106966D02*
X127416667Y-87140300D01*
X127416667Y-87140300D02*
X127450000Y-87206966D01*
X127450000Y-87206966D02*
X127450000Y-87240300D01*
X127450000Y-87240300D02*
X127416667Y-87306966D01*
X127416667Y-87306966D02*
X127383333Y-87340300D01*
X127383333Y-87340300D02*
X127316667Y-87373633D01*
X127316667Y-87373633D02*
X127183333Y-87373633D01*
X127183333Y-87373633D02*
X127116667Y-87406966D01*
X127116667Y-87406966D02*
X127083333Y-87440300D01*
X127083333Y-87440300D02*
X127050000Y-87506966D01*
X127050000Y-87506966D02*
X127050000Y-87640300D01*
X127050000Y-87640300D02*
X127083333Y-87706966D01*
X127083333Y-87706966D02*
X127116667Y-87740300D01*
X127116667Y-87740300D02*
X127183333Y-87773633D01*
X127183333Y-87773633D02*
X127316667Y-87773633D01*
X127316667Y-87773633D02*
X127383333Y-87740300D01*
X127383333Y-87740300D02*
X127416667Y-87706966D01*
X127416667Y-87706966D02*
X127450000Y-87640300D01*
X127450000Y-87640300D02*
X127450000Y-87506966D01*
X127450000Y-87506966D02*
X127416667Y-87440300D01*
X127416667Y-87440300D02*
X127383333Y-87406966D01*
X127383333Y-87406966D02*
X127316667Y-87373633D01*
X116984833Y-69555966D02*
X116951500Y-69589300D01*
X116951500Y-69589300D02*
X116851500Y-69622633D01*
X116851500Y-69622633D02*
X116784833Y-69622633D01*
X116784833Y-69622633D02*
X116684833Y-69589300D01*
X116684833Y-69589300D02*
X116618167Y-69522633D01*
X116618167Y-69522633D02*
X116584833Y-69455966D01*
X116584833Y-69455966D02*
X116551500Y-69322633D01*
X116551500Y-69322633D02*
X116551500Y-69222633D01*
X116551500Y-69222633D02*
X116584833Y-69089300D01*
X116584833Y-69089300D02*
X116618167Y-69022633D01*
X116618167Y-69022633D02*
X116684833Y-68955966D01*
X116684833Y-68955966D02*
X116784833Y-68922633D01*
X116784833Y-68922633D02*
X116851500Y-68922633D01*
X116851500Y-68922633D02*
X116951500Y-68955966D01*
X116951500Y-68955966D02*
X116984833Y-68989300D01*
X117251500Y-68989300D02*
X117284833Y-68955966D01*
X117284833Y-68955966D02*
X117351500Y-68922633D01*
X117351500Y-68922633D02*
X117518167Y-68922633D01*
X117518167Y-68922633D02*
X117584833Y-68955966D01*
X117584833Y-68955966D02*
X117618167Y-68989300D01*
X117618167Y-68989300D02*
X117651500Y-69055966D01*
X117651500Y-69055966D02*
X117651500Y-69122633D01*
X117651500Y-69122633D02*
X117618167Y-69222633D01*
X117618167Y-69222633D02*
X117218167Y-69622633D01*
X117218167Y-69622633D02*
X117651500Y-69622633D01*
X125951966Y-70550000D02*
X125985300Y-70583333D01*
X125985300Y-70583333D02*
X126018633Y-70683333D01*
X126018633Y-70683333D02*
X126018633Y-70750000D01*
X126018633Y-70750000D02*
X125985300Y-70850000D01*
X125985300Y-70850000D02*
X125918633Y-70916667D01*
X125918633Y-70916667D02*
X125851966Y-70950000D01*
X125851966Y-70950000D02*
X125718633Y-70983333D01*
X125718633Y-70983333D02*
X125618633Y-70983333D01*
X125618633Y-70983333D02*
X125485300Y-70950000D01*
X125485300Y-70950000D02*
X125418633Y-70916667D01*
X125418633Y-70916667D02*
X125351966Y-70850000D01*
X125351966Y-70850000D02*
X125318633Y-70750000D01*
X125318633Y-70750000D02*
X125318633Y-70683333D01*
X125318633Y-70683333D02*
X125351966Y-70583333D01*
X125351966Y-70583333D02*
X125385300Y-70550000D01*
X126018633Y-69883333D02*
X126018633Y-70283333D01*
X126018633Y-70083333D02*
X125318633Y-70083333D01*
X125318633Y-70083333D02*
X125418633Y-70150000D01*
X125418633Y-70150000D02*
X125485300Y-70216667D01*
X125485300Y-70216667D02*
X125518633Y-70283333D01*
X125318633Y-69450000D02*
X125318633Y-69383333D01*
X125318633Y-69383333D02*
X125351966Y-69316666D01*
X125351966Y-69316666D02*
X125385300Y-69283333D01*
X125385300Y-69283333D02*
X125451966Y-69250000D01*
X125451966Y-69250000D02*
X125585300Y-69216666D01*
X125585300Y-69216666D02*
X125751966Y-69216666D01*
X125751966Y-69216666D02*
X125885300Y-69250000D01*
X125885300Y-69250000D02*
X125951966Y-69283333D01*
X125951966Y-69283333D02*
X125985300Y-69316666D01*
X125985300Y-69316666D02*
X126018633Y-69383333D01*
X126018633Y-69383333D02*
X126018633Y-69450000D01*
X126018633Y-69450000D02*
X125985300Y-69516666D01*
X125985300Y-69516666D02*
X125951966Y-69550000D01*
X125951966Y-69550000D02*
X125885300Y-69583333D01*
X125885300Y-69583333D02*
X125751966Y-69616666D01*
X125751966Y-69616666D02*
X125585300Y-69616666D01*
X125585300Y-69616666D02*
X125451966Y-69583333D01*
X125451966Y-69583333D02*
X125385300Y-69550000D01*
X125385300Y-69550000D02*
X125351966Y-69516666D01*
X125351966Y-69516666D02*
X125318633Y-69450000D01*
X114060666Y-83987633D02*
X114060666Y-84554300D01*
X114060666Y-84554300D02*
X114094000Y-84620966D01*
X114094000Y-84620966D02*
X114127333Y-84654300D01*
X114127333Y-84654300D02*
X114194000Y-84687633D01*
X114194000Y-84687633D02*
X114327333Y-84687633D01*
X114327333Y-84687633D02*
X114394000Y-84654300D01*
X114394000Y-84654300D02*
X114427333Y-84620966D01*
X114427333Y-84620966D02*
X114460666Y-84554300D01*
X114460666Y-84554300D02*
X114460666Y-83987633D01*
X115093999Y-84220966D02*
X115093999Y-84687633D01*
X114927333Y-83954300D02*
X114760666Y-84454300D01*
X114760666Y-84454300D02*
X115193999Y-84454300D01*
D13*
%TO.C,C45*%
X121279000Y-89586164D02*
X121279000Y-89801836D01*
X120559000Y-89586164D02*
X120559000Y-89801836D01*
%TO.C,R14*%
X160716359Y-101820000D02*
X161023641Y-101820000D01*
X160716359Y-102580000D02*
X161023641Y-102580000D01*
%TO.C,D5*%
X159285000Y-93995000D02*
X159285000Y-95465000D01*
X159285000Y-95465000D02*
X161570000Y-95465000D01*
X161570000Y-93995000D02*
X159285000Y-93995000D01*
%TO.C,J1*%
X128530000Y-95005000D02*
X127200000Y-95005000D01*
X128530000Y-93675000D02*
X128530000Y-95005000D01*
X128530000Y-92405000D02*
X128530000Y-89805000D01*
X128530000Y-92405000D02*
X125870000Y-92405000D01*
X128530000Y-89805000D02*
X125870000Y-89805000D01*
X125870000Y-92405000D02*
X125870000Y-89805000D01*
%TO.C,U1*%
X153730000Y-70800000D02*
X152530000Y-70800000D01*
X153530000Y-71000000D02*
X153530000Y-94200000D01*
X130330000Y-71000000D02*
X153530000Y-71000000D01*
X153730000Y-72000000D02*
X153730000Y-70800000D01*
X153530000Y-94200000D02*
X130330000Y-94200000D01*
X130330000Y-94200000D02*
X130330000Y-71000000D01*
%TO.C,X1*%
X155750000Y-91200000D02*
X159050000Y-91200000D01*
X159050000Y-91200000D02*
X159050000Y-87200000D01*
%TO.C,C33*%
X123791500Y-80707748D02*
X123791500Y-82130252D01*
X121971500Y-80707748D02*
X121971500Y-82130252D01*
%TO.C,U3*%
X117219000Y-88234000D02*
X115419000Y-88234000D01*
X117219000Y-88234000D02*
X118019000Y-88234000D01*
X117219000Y-91354000D02*
X116419000Y-91354000D01*
X117219000Y-91354000D02*
X118019000Y-91354000D01*
D14*
%TO.C,L3*%
X111424000Y-83419000D02*
X111424000Y-80419000D01*
X114764000Y-83419000D02*
X114764000Y-80419000D01*
D13*
%TO.C,R19*%
X160576359Y-95830000D02*
X160883641Y-95830000D01*
X160576359Y-96590000D02*
X160883641Y-96590000D01*
%TO.C,C3*%
X117480252Y-93429000D02*
X116957748Y-93429000D01*
X117480252Y-91959000D02*
X116957748Y-91959000D01*
%TO.C,D1*%
X158135000Y-79905000D02*
X158135000Y-78435000D01*
X158135000Y-78435000D02*
X155850000Y-78435000D01*
X155850000Y-79905000D02*
X158135000Y-79905000D01*
%TO.C,D4*%
X159295000Y-100015000D02*
X159295000Y-101485000D01*
X159295000Y-101485000D02*
X161580000Y-101485000D01*
X161580000Y-100015000D02*
X159295000Y-100015000D01*
%TO.C,C18*%
X156697836Y-83310000D02*
X156482164Y-83310000D01*
X156697836Y-82590000D02*
X156482164Y-82590000D01*
%TO.C,R11*%
X156436359Y-81420000D02*
X156743641Y-81420000D01*
X156436359Y-82180000D02*
X156743641Y-82180000D01*
D14*
%TO.C,L2*%
X111549000Y-91294000D02*
X111549000Y-88294000D01*
X114889000Y-91294000D02*
X114889000Y-88294000D01*
D13*
%TO.C,R2*%
X119459000Y-73627641D02*
X119459000Y-73320359D01*
X120219000Y-73627641D02*
X120219000Y-73320359D01*
%TO.C,R4*%
X120299000Y-87540359D02*
X120299000Y-87847641D01*
X119539000Y-87540359D02*
X119539000Y-87847641D01*
%TO.C,R13*%
X113141141Y-99580000D02*
X112833859Y-99580000D01*
X113141141Y-98820000D02*
X112833859Y-98820000D01*
%TO.C,C24*%
X123916500Y-88232748D02*
X123916500Y-89655252D01*
X122096500Y-88232748D02*
X122096500Y-89655252D01*
%TO.C,R6*%
X120174000Y-82265359D02*
X120174000Y-82572641D01*
X119414000Y-82265359D02*
X119414000Y-82572641D01*
%TO.C,R3*%
X120299000Y-89540359D02*
X120299000Y-89847641D01*
X119539000Y-89540359D02*
X119539000Y-89847641D01*
%TO.C,C15*%
X159540000Y-88627836D02*
X159540000Y-88412164D01*
X160260000Y-88627836D02*
X160260000Y-88412164D01*
%TO.C,U2*%
X117101500Y-72424000D02*
X115301500Y-72424000D01*
X117101500Y-72424000D02*
X117901500Y-72424000D01*
X117101500Y-75544000D02*
X116301500Y-75544000D01*
X117101500Y-75544000D02*
X117901500Y-75544000D01*
%TO.C,R5*%
X120174000Y-80265359D02*
X120174000Y-80572641D01*
X119414000Y-80265359D02*
X119414000Y-80572641D01*
%TO.C,D2*%
X111515000Y-97065000D02*
X111515000Y-98535000D01*
X111515000Y-98535000D02*
X113800000Y-98535000D01*
X113800000Y-97065000D02*
X111515000Y-97065000D01*
D14*
%TO.C,L1*%
X111431500Y-75484000D02*
X111431500Y-72484000D01*
X114771500Y-75484000D02*
X114771500Y-72484000D01*
D13*
%TO.C,C6*%
X116832748Y-78334000D02*
X117355252Y-78334000D01*
X116832748Y-79804000D02*
X117355252Y-79804000D01*
%TO.C,R1*%
X120219000Y-71380359D02*
X120219000Y-71687641D01*
X119459000Y-71380359D02*
X119459000Y-71687641D01*
%TO.C,R12*%
X160636359Y-98960000D02*
X160943641Y-98960000D01*
X160636359Y-99720000D02*
X160943641Y-99720000D01*
%TO.C,C23*%
X123911500Y-71972748D02*
X123911500Y-73395252D01*
X122091500Y-71972748D02*
X122091500Y-73395252D01*
%TO.C,R18*%
X156753641Y-81030000D02*
X156446359Y-81030000D01*
X156753641Y-80270000D02*
X156446359Y-80270000D01*
%TO.C,U5*%
X140625000Y-101702500D02*
X140625000Y-95702500D01*
X135405000Y-98702500D02*
X135405000Y-95702500D01*
%TO.C,C4*%
X116857748Y-86159000D02*
X117380252Y-86159000D01*
X116857748Y-87629000D02*
X117380252Y-87629000D01*
%TO.C,C44*%
X120504000Y-73591836D02*
X120504000Y-73376164D01*
X121224000Y-73591836D02*
X121224000Y-73376164D01*
%TO.C,C17*%
X134090000Y-97717836D02*
X134090000Y-97502164D01*
X134810000Y-97717836D02*
X134810000Y-97502164D01*
%TO.C,C46*%
X121304000Y-82311164D02*
X121304000Y-82526836D01*
X120584000Y-82311164D02*
X120584000Y-82526836D01*
%TO.C,C5*%
X117405252Y-85504000D02*
X116882748Y-85504000D01*
X117405252Y-84034000D02*
X116882748Y-84034000D01*
%TO.C,D3*%
X159285000Y-97125000D02*
X159285000Y-98595000D01*
X159285000Y-98595000D02*
X161570000Y-98595000D01*
X161570000Y-97125000D02*
X159285000Y-97125000D01*
%TO.C,C1*%
X117362752Y-77719000D02*
X116840248Y-77719000D01*
X117362752Y-76249000D02*
X116840248Y-76249000D01*
%TO.C,R8*%
X126746359Y-88245000D02*
X127053641Y-88245000D01*
X126746359Y-89005000D02*
X127053641Y-89005000D01*
%TO.C,C2*%
X116840248Y-70249000D02*
X117362752Y-70249000D01*
X116840248Y-71719000D02*
X117362752Y-71719000D01*
%TO.C,C10*%
X126435000Y-72538748D02*
X126435000Y-73061252D01*
X124965000Y-72538748D02*
X124965000Y-73061252D01*
%TO.C,U4*%
X117094000Y-80359000D02*
X115294000Y-80359000D01*
X117094000Y-80359000D02*
X117894000Y-80359000D01*
X117094000Y-83479000D02*
X116294000Y-83479000D01*
X117094000Y-83479000D02*
X117894000Y-83479000D01*
%TD*%
M02*
